<?xml version="1.0" encoding="utf-8"?>
<!-- Generator: Adobe Illustrator 17.0.0, SVG Export Plug-In . SVG Version: 6.00 Build 0)  -->
<!DOCTYPE svg PUBLIC "-//W3C//DTD SVG 1.1//EN" "http://www.w3.org/Graphics/SVG/1.1/DTD/svg11.dtd">
<svg version="1.1" id="Слой_1" xmlns="http://www.w3.org/2000/svg" xmlns:xlink="http://www.w3.org/1999/xlink" x="0px" y="0px"
	 width="135.092px" height="135.094px" viewBox="0 0 135.092 135.094" enable-background="new 0 0 135.092 135.094"
	 xml:space="preserve">
<g>
	<path fill-rule="evenodd" clip-rule="evenodd" fill="#94765A" d="M69.739,9.414c0.522-0.241,1.011-0.562,1.429-0.98
		c0.933-0.929,1.448-2.169,1.449-3.484C72.625,2.285,70.465,0.067,67.694,0c-0.001,0-0.002,0-0.002,0
		c-1.32-0.004-2.563,0.51-3.498,1.44c-0.933,0.931-1.45,2.167-1.451,3.488c-0.003,1.963,1.176,3.68,2.86,4.474L56.344,31.63
		c-0.269-0.225-0.568-0.584-0.604-1.082c-0.146-1.971-1.177-4.038-2.761-5.534c-0.94-0.883-1.833-2.942-2.097-3.663l-1.42-2.89
		l-1.081,3.386c0.003,0.098,0.1,2.438,0.599,4.728c0.159,0.729,0.409,1.3,0.609,1.759c0.314,0.711,0.486,1.105,0.344,1.902
		c-0.294,1.62-0.293,2.861-0.227,3.702l-21.72-9.049c0.645-1.753,0.28-3.79-1.118-5.192c-0.899-0.905-2.099-1.42-3.375-1.451
		c-1.342-0.032-2.655,0.492-3.603,1.438c-0.935,0.928-1.453,2.167-1.456,3.487c-0.003,1.319,0.508,2.559,1.438,3.493
		c0.9,0.907,2.101,1.421,3.378,1.452c0.001,0,0.001,0,0.001,0c0.631,0.015,1.24-0.098,1.812-0.307l9.252,22.47
		c-0.126,0.023-0.271,0.043-0.439,0.038c-0.375-0.009-0.682-0.12-0.941-0.339c-1.382-1.167-3.318-1.861-5.314-1.91
		c-0.188-0.004-0.376-0.003-0.566,0.004l-0.191,0.001c-1.309-0.033-3.255-0.785-3.895-1.073l-2.945-1.108l1.549,3.241
		c0.072,0.066,1.81,1.631,3.79,2.88c0.633,0.4,1.216,0.622,1.686,0.8c0.729,0.275,1.129,0.43,1.598,1.091
		c0.858,1.21,1.669,2.046,2.293,2.593L9.4,65.363c-0.776-1.654-2.444-2.835-4.446-2.882c0,0-0.001,0-0.002,0
		c-1.323-0.006-2.568,0.507-3.503,1.438C0.517,64.849,0.002,66.085,0,67.404c-0.004,2.662,2.155,4.878,4.812,4.943l0.111,0.003
		c1.324,0.001,2.569-0.513,3.505-1.446c0.416-0.417,0.735-0.898,0.975-1.415l22.232,9.263c-0.227,0.243-0.562,0.491-1.01,0.524
		c-1.97,0.151-4.037,1.183-5.528,2.765c-0.886,0.942-2.947,1.841-3.668,2.105l-2.937,1.488l3.437,1.014
		c0.098-0.005,2.437-0.104,4.734-0.606c0.73-0.158,1.298-0.412,1.756-0.613c0.555-0.245,0.921-0.406,1.441-0.393
		c0.143,0.003,0.295,0.019,0.462,0.049c0.835,0.148,1.65,0.234,2.423,0.252c0.487,0.012,0.883-0.009,1.233-0.036l-9.089,21.813
		c-0.504-0.187-1.035-0.309-1.586-0.321c-1.362-0.034-2.644,0.477-3.602,1.434c-0.935,0.927-1.452,2.164-1.457,3.479
		c-0.005,1.323,0.504,2.566,1.437,3.506c0.904,0.903,2.104,1.419,3.379,1.45c0,0,0,0,0.001,0c1.36,0.032,2.64-0.48,3.601-1.438
		c0.934-0.93,1.451-2.168,1.454-3.487c0.002-0.591-0.115-1.16-0.312-1.702l22.023-9.065c-0.14,0.8-0.247,1.865-0.191,3.22
		c0.041,0.951-0.202,1.344-0.681,2.123c-0.227,0.369-0.47,0.765-0.704,1.25c-1.253,2.591-1.316,4.959-1.319,5.059l0.801,3.448
		l1.641-2.837c0.361-0.708,1.529-2.713,2.574-3.455c1.763-1.257,3.066-3.162,3.486-5.104c0.117-0.548,0.528-0.877,0.839-1.052
		l9.085,22.061c-0.523,0.243-1.012,0.563-1.43,0.982c-0.934,0.933-1.448,2.171-1.448,3.485c-0.007,2.663,2.152,4.883,4.812,4.946
		l0.111,0.001c2.721,0.005,4.94-2.204,4.945-4.93c0.005-1.948-1.158-3.651-2.867-4.454l9.064-21.751
		c0.455,0.628,1.086,1.384,1.968,2.215c0.588,0.55,0.684,0.97,0.858,1.724c0.111,0.489,0.252,1.095,0.562,1.776
		c0.969,2.134,2.289,4.073,2.345,4.153l2.477,2.232l-0.175-3.328c-0.218-0.735-0.732-2.92-0.501-4.198
		c0.37-2.143-0.04-4.416-1.095-6.075c-0.354-0.561-0.202-1.188-0.083-1.509l22.207,9.251c-0.2,0.539-0.319,1.111-0.321,1.704
		c-0.001,1.317,0.51,2.56,1.441,3.495c0.901,0.902,2.1,1.417,3.377,1.448c0.001,0,0.001,0,0.001,0
		c1.362,0.032,2.642-0.479,3.607-1.438c1.926-1.924,1.931-5.056,0.009-6.982c-0.899-0.903-2.098-1.418-3.375-1.449
		c-0.631-0.015-1.24,0.098-1.812,0.307l-9.136-22.189c0.584,0.109,1.329,0.204,2.233,0.224c0.345,0.009,0.716,0.006,1.111-0.009
		l0.227-0.002c0.66,0.016,1.017,0.234,1.609,0.599c0.428,0.265,0.959,0.587,1.661,0.842c2.204,0.807,4.502,1.223,4.6,1.239
		l3.901,1.274l-3.067-3.684c-0.629-0.335-2.594-1.526-3.346-2.58c-1.265-1.768-3.172-3.072-5.099-3.485
		c-0.493-0.106-0.805-0.446-0.992-0.739l21.941-9.039c0.754,1.669,2.399,2.833,4.369,2.882h0.106
		c2.722,0.002,4.938-2.209,4.941-4.93c0.004-2.663-2.154-4.878-4.924-4.946c-0.001,0-0.003,0-0.003,0
		c-1.323,0-2.566,0.516-3.501,1.452c-0.414,0.414-0.73,0.895-0.97,1.411l-21.889-9.121c0.663-0.461,1.486-1.129,2.397-2.105
		c0.554-0.593,0.972-0.69,1.731-0.866c0.487-0.112,1.095-0.255,1.771-0.566c2.136-0.969,4.068-2.291,4.149-2.347l3.047-1.797
		l-4.146-0.502c-0.562,0.167-2.306,0.596-3.616,0.564c-0.202-0.006-0.396-0.022-0.577-0.053c-0.447-0.079-0.906-0.125-1.364-0.135
		c-1.724-0.042-3.398,0.394-4.716,1.232c-0.245,0.157-0.514,0.228-0.821,0.221c-0.247-0.006-0.474-0.063-0.636-0.117l9.178-22.027
		c0.506,0.185,1.039,0.307,1.59,0.32c0,0,0,0,0.001,0c1.356,0.033,2.635-0.478,3.599-1.436c0.936-0.929,1.452-2.17,1.454-3.489
		c0.002-1.32-0.509-2.562-1.44-3.497c-0.9-0.904-2.1-1.418-3.375-1.449c-1.361-0.033-2.641,0.479-3.6,1.437
		c-0.936,0.932-1.452,2.169-1.455,3.49c-0.001,0.593,0.116,1.162,0.313,1.7l-22.6,9.304c-0.076-0.339-0.144-0.976,0.279-1.478
		c1.279-1.501,1.995-3.698,1.916-5.882c-0.05-1.291,0.756-3.386,1.073-4.084l0.861-2.749l-2.992,1.349
		c-0.066,0.073-1.634,1.811-2.889,3.794c-0.4,0.63-0.622,1.215-0.799,1.682c-0.276,0.729-0.428,1.128-1.088,1.596
		c-1.158,0.822-1.963,1.594-2.512,2.203"/>
	<g>
		<polygon fill-rule="evenodd" clip-rule="evenodd" fill="#B9433B" points="67.443,84.074 75.649,87.547 79.144,79.291 87.44,75.9 
			84.072,67.652 87.548,59.438 79.295,55.946 75.904,47.647 67.651,51.018 59.439,47.542 55.946,55.797 47.65,59.186 51.018,67.436 
			47.541,75.648 55.8,79.142 59.19,87.445 		"/>
		<path fill="#B9433B" d="M101.83,56.151l-3.421-1.71l1.709-3.42c0,0,1.584,0.914,3.058-0.024c1.382-0.877,3.302-1.239,5.165-0.913
			c1.86,0.325,4.784-0.547,4.784-0.547s-1.896,1.303-3.953,2.239c-1.547,0.707-2.62,0.342-3.911,1.72
			C103.345,55.554,101.83,56.151,101.83,56.151z"/>
		<path fill="#B9433B" d="M34.885,83.876l1.712-3.417L33.18,78.75c0,0-0.718,1.679-2.458,1.815
			c-1.638,0.124-3.393,0.989-4.686,2.362c-1.293,1.375-4.16,2.432-4.16,2.432s2.298-0.093,4.511-0.577
			c1.665-0.365,2.303-1.298,4.161-0.968C33.317,84.306,34.885,83.876,34.885,83.876z"/>
		<path fill="#B9433B" d="M99.878,83.495l-1.234-3.611l3.617-1.236c0,0,0.485,1.763,2.194,2.128c1.601,0.346,3.224,1.44,4.321,2.976
			c1.098,1.537,3.79,2.972,3.79,2.972s-2.261-0.409-4.385-1.183c-1.6-0.583-2.107-1.597-3.993-1.518
			C101.378,84.134,99.878,83.495,99.878,83.495z"/>
		<path fill="#B9433B" d="M32.743,56.249l3.617-1.236l-1.234-3.615c0,0-1.692,0.695-3.023-0.433
			c-1.249-1.055-3.11-1.675-4.999-1.604c-1.882,0.073-4.666-1.186-4.666-1.186s1.704,1.544,3.613,2.748
			c1.445,0.913,2.555,0.696,3.647,2.234C31.325,55.453,32.743,56.249,32.743,56.249z"/>
		<path fill="#B9433B" d="M78.748,101.793l1.717-3.415l3.41,1.712c0,0-0.913,1.587,0.018,3.061c0.877,1.379,1.235,3.307,0.914,5.166
			c-0.336,1.856,0.535,4.783,0.535,4.783s-1.3-1.899-2.235-3.958c-0.707-1.552-0.338-2.62-1.712-3.909
			C79.345,103.306,78.748,101.793,78.748,101.793z"/>
		<path fill="#B9433B" d="M51.13,34.804l3.417,1.716l1.716-3.416c0,0-1.683-0.72-1.811-2.459c-0.121-1.635-0.987-3.393-2.357-4.691
			c-1.375-1.291-2.426-4.156-2.426-4.156s0.092,2.298,0.572,4.504c0.361,1.669,1.294,2.307,0.961,4.166
			C50.702,33.235,51.13,34.804,51.13,34.804z"/>
		<path fill="#B9433B" d="M51.448,99.824l3.62-1.232l1.23,3.613c0,0-1.762,0.489-2.126,2.195c-0.346,1.594-1.439,3.226-2.973,4.322
			c-1.539,1.095-2.974,3.79-2.974,3.79s0.408-2.265,1.187-4.389c0.581-1.6,1.592-2.104,1.512-3.991
			C50.811,101.322,51.448,99.824,51.448,99.824z"/>
		<path fill="#B9433B" d="M78.705,32.689l1.24,3.62l3.612-1.234c0,0-0.692-1.693,0.431-3.024c1.064-1.25,1.677-3.107,1.608-4.994
			c-0.073-1.89,1.187-4.668,1.187-4.668s-1.544,1.703-2.754,3.614c-0.91,1.441-0.691,2.552-2.232,3.642
			C79.503,31.273,78.705,32.689,78.705,32.689z"/>
		<g>
			<g>
				<g>
					<g>
						<path fill-rule="evenodd" clip-rule="evenodd" fill="#F3C983" d="M111.248,24.029c0.362,0.367,0.959,0.364,1.323,0.003
							c0.373-0.362,0.369-0.959,0.004-1.326c-0.36-0.365-0.957-0.362-1.323-0.001C110.883,23.07,110.885,23.666,111.248,24.029z"/>
						<path fill-rule="evenodd" clip-rule="evenodd" fill="#F3C983" d="M113.878,21.415c1.078,1.085,1.076,2.84-0.012,3.919
							c-1.081,1.075-2.839,1.076-3.914-0.007c-1.082-1.086-1.077-2.842,0.005-3.92C111.044,20.327,112.797,20.333,113.878,21.415
							L113.878,21.415z M114.494,20.794c-1.419-1.422-3.728-1.431-5.152-0.006c-1.428,1.419-1.434,3.729-0.01,5.155
							c1.425,1.428,3.726,1.431,5.153,0.012C115.912,24.536,115.915,22.222,114.494,20.794z"/>
					</g>
					<g>
						<path fill-rule="evenodd" clip-rule="evenodd" fill="#F3C983" d="M22.521,112.389c0.362,0.364,0.955,0.36,1.318,0.002
							c0.368-0.368,0.369-0.961,0.004-1.325c-0.363-0.367-0.96-0.37-1.325-0.006C22.156,111.424,22.153,112.019,22.521,112.389z"/>
						<path fill-rule="evenodd" clip-rule="evenodd" fill="#F3C983" d="M25.145,109.769c1.082,1.088,1.073,2.84-0.01,3.918
							c-1.083,1.082-2.836,1.08-3.918-0.006c-1.079-1.086-1.075-2.839,0.01-3.918C22.311,108.685,24.067,108.685,25.145,109.769
							L25.145,109.769z M25.765,109.15c-1.42-1.421-3.732-1.427-5.155-0.007c-1.429,1.416-1.433,3.728-0.015,5.154
							c1.426,1.428,3.733,1.435,5.158,0.01C27.179,112.888,27.187,110.58,25.765,109.15z"/>
					</g>
				</g>
				<g>
					<g>
						<path fill-rule="evenodd" clip-rule="evenodd" fill="#F3C983" d="M67.682,4c0.519,0.002,0.934,0.419,0.935,0.941
							c0.003,0.519-0.419,0.937-0.936,0.937c-0.517-0.001-0.939-0.424-0.938-0.945C66.741,4.416,67.164,4.001,67.682,4z"/>
						<path fill-rule="evenodd" clip-rule="evenodd" fill="#F3C983" d="M67.692,2.169c1.522,0.001,2.76,1.242,2.759,2.772
							c-0.003,1.534-1.246,2.772-2.773,2.767c-1.537-0.006-2.776-1.248-2.767-2.778C64.916,3.402,66.155,2.164,67.692,2.169
							L67.692,2.169z M67.689,1.291c-2.015-0.004-3.653,1.625-3.656,3.64c-0.003,2.015,1.628,3.652,3.641,3.655
							c2.017,0.004,3.652-1.625,3.653-3.641C71.332,2.931,69.699,1.295,67.689,1.291z"/>
					</g>
					<g>
						<path fill-rule="evenodd" clip-rule="evenodd" fill="#F3C983" d="M67.415,129.218c0.519,0.003,0.938,0.427,0.937,0.939
							c-0.006,0.517-0.423,0.936-0.938,0.936c-0.516,0-0.936-0.418-0.935-0.936C66.479,129.636,66.902,129.221,67.415,129.218z"/>
						<path fill-rule="evenodd" clip-rule="evenodd" fill="#F3C983" d="M67.419,127.388c1.529,0.001,2.772,1.246,2.767,2.778
							c-0.006,1.53-1.245,2.768-2.78,2.761c-1.527-0.002-2.766-1.246-2.765-2.774C64.642,128.62,65.892,127.383,67.419,127.388
							L67.419,127.388z M67.42,126.509c-2.012-0.005-3.651,1.627-3.651,3.642c-0.005,2.014,1.623,3.65,3.636,3.653
							c2.014,0.003,3.649-1.63,3.653-3.644C71.063,128.154,69.435,126.517,67.42,126.509z"/>
					</g>
				</g>
				<g>
					<g>
						<path fill-rule="evenodd" clip-rule="evenodd" fill="#F3C983" d="M22.709,22.517c0.364-0.364,0.958-0.364,1.326,0.005
							c0.364,0.366,0.366,0.957-0.005,1.321c-0.363,0.366-0.958,0.365-1.322,0.002C22.34,23.475,22.339,22.883,22.709,22.517z"/>
						<path fill-rule="evenodd" clip-rule="evenodd" fill="#F3C983" d="M21.415,21.218c1.084-1.076,2.834-1.079,3.915,0.007
							c1.085,1.085,1.081,2.842-0.007,3.919c-1.08,1.079-2.835,1.076-3.917-0.009C20.324,24.048,20.331,22.299,21.415,21.218
							L21.415,21.218z M20.8,20.6c-1.428,1.418-1.433,3.728-0.014,5.156c1.419,1.423,3.732,1.43,5.157,0.011
							c1.425-1.424,1.432-3.734,0.01-5.158C24.534,19.18,22.223,19.179,20.8,20.6z"/>
					</g>
					<g>
						<path fill-rule="evenodd" clip-rule="evenodd" fill="#F3C983" d="M111.066,111.254c0.365-0.371,0.958-0.368,1.323-0.002
							c0.366,0.368,0.359,0.956-0.007,1.322c-0.361,0.369-0.956,0.366-1.319,0.001C110.696,112.209,110.7,111.619,111.066,111.254z"
							/>
						<path fill-rule="evenodd" clip-rule="evenodd" fill="#F3C983" d="M109.771,109.949c1.085-1.077,2.838-1.079,3.919,0.011
							c1.077,1.083,1.072,2.837-0.011,3.914c-1.082,1.081-2.839,1.081-3.913-0.003C108.681,112.787,108.68,111.028,109.771,109.949
							L109.771,109.949z M109.151,109.331c-1.428,1.421-1.431,3.731-0.01,5.158c1.421,1.424,3.733,1.427,5.16,0.009
							c1.422-1.421,1.428-3.733,0.007-5.159C112.89,107.918,110.578,107.91,109.151,109.331z"/>
					</g>
				</g>
				<g>
					<g>
						<path fill-rule="evenodd" clip-rule="evenodd" fill="#F3C983" d="M4.002,67.411c-0.003-0.516,0.418-0.938,0.934-0.935
							c0.521,0.004,0.939,0.421,0.938,0.942c0.002,0.514-0.421,0.935-0.938,0.934C4.419,68.354,3.997,67.927,4.002,67.411z"/>
						<path fill-rule="evenodd" clip-rule="evenodd" fill="#F3C983" d="M2.162,67.408c0.011-1.529,1.245-2.768,2.782-2.761
							c1.532,0.001,2.767,1.239,2.764,2.771c-0.005,1.535-1.247,2.768-2.782,2.765C3.402,70.18,2.165,68.939,2.162,67.408
							L2.162,67.408z M1.291,67.408c-0.003,2.013,1.622,3.647,3.634,3.651c2.016,0.003,3.658-1.622,3.659-3.635
							c0.002-2.015-1.625-3.651-3.636-3.654C2.93,63.767,1.292,65.39,1.291,67.408z"/>
					</g>
					<g>
						<path fill-rule="evenodd" clip-rule="evenodd" fill="#F3C983" d="M129.222,67.679c-0.001-0.516,0.421-0.935,0.937-0.934
							c0.517-0.004,0.938,0.419,0.936,0.941c-0.001,0.513-0.424,0.932-0.939,0.932C129.637,68.617,129.221,68.195,129.222,67.679z"
							/>
						<path fill-rule="evenodd" clip-rule="evenodd" fill="#F3C983" d="M127.383,67.676c0.004-1.529,1.244-2.771,2.781-2.767
							c1.527,0.001,2.771,1.251,2.763,2.774c-0.006,1.532-1.247,2.77-2.773,2.77C128.622,70.449,127.383,69.207,127.383,67.676
							L127.383,67.676z M126.514,67.675c-0.007,2.014,1.618,3.645,3.639,3.653c2.008,0.004,3.647-1.626,3.65-3.641
							c0.003-2.012-1.626-3.649-3.637-3.652C128.155,64.034,126.511,65.661,126.514,67.675z"/>
					</g>
				</g>
			</g>
			<g>
				<g>
					<path fill="#F3C983" d="M84.502,39.456l17.23-7.086c-0.015-0.318,0.103-0.639,0.345-0.878c0.462-0.459,1.211-0.462,1.676,0.003
						c0.457,0.463,0.459,1.212-0.004,1.677c-0.244,0.234-0.558,0.354-0.876,0.344L95.706,50.71l0.016,0.012
						c0.461,0.465,0.458,1.212-0.002,1.674c-0.464,0.462-1.211,0.461-1.673,0c-0.463-0.468-0.463-1.218,0-1.679
						c0.237-0.231,0.547-0.348,0.851-0.344l7.172-17.199l-17.233,7.093c0,0.308-0.114,0.617-0.345,0.851
						c-0.468,0.461-1.218,0.461-1.678-0.004c-0.46-0.465-0.458-1.215,0.003-1.676c0.461-0.462,1.212-0.458,1.673,0.003
						L84.502,39.456z"/>
					<path fill="#F3C983" d="M39.387,84.386l-7.166,17.193c-0.316-0.009-0.637,0.101-0.876,0.342
						c-0.467,0.463-0.464,1.213-0.009,1.677c0.46,0.459,1.215,0.461,1.674,0c0.242-0.236,0.36-0.555,0.354-0.867l17.223-7.094
						l0.013,0.013c0.465,0.463,1.213,0.463,1.679,0.007c0.459-0.464,0.464-1.214,0-1.677c-0.459-0.464-1.21-0.467-1.676-0.005
						c-0.231,0.238-0.351,0.544-0.35,0.852l-17.228,7.094l7.169-17.202c0.303,0.005,0.612-0.111,0.847-0.344
						c0.465-0.461,0.47-1.214,0.003-1.678c-0.461-0.461-1.213-0.464-1.674,0.005c-0.461,0.456-0.461,1.209,0,1.668L39.387,84.386z"
						/>
				</g>
				<g>
					<path fill="#F3C983" d="M59.68,35.693L66.84,18.5c-0.23-0.216-0.372-0.522-0.371-0.865c0-0.655,0.533-1.186,1.185-1.181
						c0.654,0,1.183,0.532,1.186,1.186c-0.003,0.342-0.146,0.646-0.38,0.861l7.094,17.226l0.021,0.004
						c0.652-0.002,1.181,0.529,1.183,1.184c-0.006,0.65-0.536,1.178-1.191,1.178c-0.647,0.003-1.179-0.533-1.181-1.187
						c0-0.329,0.14-0.629,0.36-0.843l-7.096-17.235l-7.163,17.207c0.214,0.212,0.353,0.517,0.353,0.849
						c-0.01,0.646-0.535,1.178-1.188,1.178c-0.656-0.004-1.185-0.533-1.183-1.185c0.004-0.652,0.533-1.186,1.182-1.186L59.68,35.693
						z"/>
					<path fill="#F3C983" d="M59.543,99.365l7.092,17.224c-0.23,0.218-0.376,0.524-0.381,0.865c0.006,0.655,0.526,1.185,1.182,1.182
						c0.654,0.006,1.188-0.523,1.185-1.179c0.006-0.338-0.139-0.646-0.368-0.862l7.165-17.196l0.021,0.004
						c0.652-0.002,1.18-0.531,1.187-1.183c-0.001-0.652-0.535-1.186-1.181-1.186c-0.653,0-1.183,0.527-1.194,1.183
						c0.004,0.328,0.14,0.631,0.359,0.846l-7.165,17.199l-7.095-17.234c0.22-0.211,0.355-0.512,0.359-0.845
						c0-0.65-0.53-1.182-1.183-1.183c-0.653,0.001-1.184,0.526-1.185,1.181c-0.001,0.652,0.528,1.183,1.184,1.186L59.543,99.365z"/>
				</g>
				<g>
					<path fill="#F3C983" d="M39.458,50.585l-7.087-17.222c-0.321,0.009-0.638-0.108-0.878-0.348
						c-0.463-0.468-0.464-1.213,0.001-1.674c0.463-0.464,1.214-0.461,1.677,0.003c0.237,0.239,0.35,0.559,0.342,0.876l17.2,7.164
						l0.005-0.018c0.469-0.458,1.214-0.454,1.679,0.009c0.457,0.46,0.46,1.209-0.003,1.671c-0.467,0.464-1.218,0.461-1.678-0.001
						c-0.232-0.237-0.35-0.548-0.343-0.854l-17.202-7.169l7.097,17.235c0.302-0.007,0.617,0.116,0.849,0.347
						c0.459,0.462,0.458,1.212-0.004,1.676c-0.466,0.459-1.218,0.458-1.673-0.003c-0.462-0.463-0.461-1.212,0.001-1.674
						L39.458,50.585z"/>
					<path fill="#F3C983" d="M84.381,95.705l17.197,7.164c-0.008,0.32,0.106,0.639,0.348,0.882c0.46,0.461,1.21,0.462,1.669,0
						c0.465-0.459,0.468-1.209,0.007-1.676c-0.239-0.239-0.564-0.354-0.871-0.346l-7.093-17.226l0.011-0.015
						c0.464-0.461,0.461-1.211,0.003-1.672c-0.462-0.465-1.206-0.462-1.67-0.003c-0.465,0.461-0.471,1.211-0.012,1.673
						c0.238,0.236,0.55,0.354,0.858,0.346l7.09,17.231l-17.203-7.167c0.005-0.309-0.106-0.612-0.347-0.853
						c-0.458-0.461-1.206-0.461-1.672,0.003c-0.462,0.458-0.463,1.208,0.001,1.672c0.46,0.462,1.209,0.462,1.67,0.003L84.381,95.705
						z"/>
				</g>
				<g>
					<path fill="#F3C983" d="M35.691,75.418L18.497,68.25c-0.216,0.233-0.52,0.374-0.864,0.374c-0.655-0.001-1.182-0.53-1.18-1.186
						c0-0.655,0.535-1.184,1.186-1.182c0.339,0,0.646,0.144,0.864,0.375l17.225-7.094l-0.002-0.019
						c0.001-0.65,0.532-1.183,1.188-1.178c0.655,0,1.185,0.534,1.182,1.187c-0.004,0.649-0.534,1.178-1.192,1.181
						c-0.331-0.004-0.625-0.14-0.844-0.356l-17.23,7.09l17.206,7.168c0.212-0.221,0.513-0.352,0.845-0.353
						c0.658,0,1.185,0.53,1.179,1.184c0.002,0.655-0.537,1.186-1.182,1.186c-0.655-0.006-1.184-0.536-1.187-1.188V75.418z"/>
					<path fill="#F3C983" d="M99.369,75.555l17.217-7.097c0.22,0.233,0.526,0.378,0.867,0.378c0.655,0.002,1.187-0.529,1.189-1.179
						c0-0.655-0.533-1.19-1.182-1.184c-0.337-0.001-0.646,0.138-0.865,0.369l-17.197-7.167v-0.02
						c0.001-0.65-0.526-1.184-1.179-1.184c-0.654-0.006-1.187,0.525-1.187,1.18c0,0.655,0.526,1.187,1.18,1.184
						c0.331,0.001,0.636-0.132,0.849-0.354l17.204,7.169l-17.235,7.093c-0.218-0.221-0.511-0.356-0.846-0.358
						c-0.649-0.001-1.185,0.529-1.185,1.181c-0.001,0.658,0.525,1.188,1.179,1.188c0.653,0,1.188-0.528,1.188-1.178L99.369,75.555z"
						/>
				</g>
			</g>
			<path fill-rule="evenodd" clip-rule="evenodd" fill="#F3C983" d="M66.454,43.268l-10.746-4.482l-4.482,10.752l7.615-3.134
				L66.454,43.268L66.454,43.268z M68.744,43.276l7.603,3.165l7.595,3.167l-4.431-10.771L68.744,43.276L68.744,43.276z
				 M56.042,37.98l11.63-27.901l11.505,27.95l-11.577,4.768L56.042,37.98L56.042,37.98z M38.838,55.584l4.433,10.767l3.166-7.6
				l3.172-7.599L38.838,55.584L38.838,55.584z M27.001,26.823L54.895,38.45L50.083,50.01l-11.579,4.769L27.001,26.823L27.001,26.823
				z M42.795,67.496L37.978,79.05L10.079,67.424L38.026,55.92L42.795,67.496L42.795,67.496z M51.149,85.485l4.436,10.768
				l10.765-4.431l-7.602-3.168L51.149,85.485L51.149,85.485z M49.539,83.868l-3.136-7.613l-3.134-7.616l-4.48,10.75L49.539,83.868
				L49.539,83.868z M54.776,96.587l-27.951,11.506l11.627-27.896l11.556,4.813L54.776,96.587L54.776,96.587z M79.388,96.306
				l4.479-10.748l-7.614,3.133l-7.615,3.133L79.388,96.306L79.388,96.306z M67.426,125.018l-11.51-27.952l11.58-4.766l11.557,4.814
				L67.426,125.018L67.426,125.018z M85.01,85.085l11.58-4.766l11.508,27.952L80.195,96.647L85.01,85.085L85.01,85.085z
				 M96.647,54.9l-11.562-4.817l-4.76-11.573L108.27,27L96.647,54.9L96.647,54.9z M91.828,66.459l4.48-10.748l-10.751-4.485
				l3.132,7.616L91.828,66.459L91.828,66.459z M87.846,76.007l-3.499,8.407l-8.428,3.471l-8.423,3.466l-8.407-3.503l-8.411-3.508
				l-3.469-8.421l-3.465-8.421l3.5-8.411l3.507-8.408l8.427-3.472l8.421-3.461l8.407,3.501l8.407,3.503l3.47,8.425l3.466,8.422
				L87.846,76.007L87.846,76.007z M91.823,68.745l-3.172,7.601l-3.165,7.598l10.769-4.432L91.823,68.745L91.823,68.745z
				 M97.112,56.043l27.904,11.629L97.067,79.176l-4.769-11.58L97.112,56.043L97.112,56.043z M109.482,26.361L97.451,55.237
				l28.879,12.032l-0.005,0.806L97.398,79.99l11.909,28.922l-0.574,0.57l-28.873-12.03l-12.034,28.877h-0.807L55.107,97.397
				l-28.928,11.911l-0.567-0.574L37.644,79.86L8.762,67.823l0.007-0.804L37.7,55.112L25.789,26.182l0.57-0.573l28.879,12.034
				L67.266,8.769l0.812,0.002l11.907,28.928l28.928-11.909L109.482,26.361z"/>
			<path fill-rule="evenodd" clip-rule="evenodd" fill="#F3C983" d="M66.443,50.308l-7.236-3.012l-3.015,7.228l5.122-2.107
				L66.443,50.308L66.443,50.308z M68.731,50.313l5.113,2.134l5.113,2.128l-2.984-7.246L68.731,50.313L68.731,50.313z
				 M59.546,46.488l8.087-19.409l8.002,19.443l-8.053,3.314L59.546,46.488L59.546,46.488z M47.33,59.119l2.981,7.247l2.128-5.118
				l2.137-5.109L47.33,59.119L47.33,59.119z M38.991,38.867l19.411,8.089L55.05,55l-8.055,3.312L38.991,38.867L38.991,38.867z
				 M49.84,67.512l-3.355,8.036L27.076,67.46l19.442-8.002L49.84,67.512L49.84,67.512z M56.141,80.52l2.987,7.248l7.24-2.986
				l-5.121-2.134L56.141,80.52L56.141,80.52z M54.527,78.902l-2.106-5.124l-2.115-5.125l-3.014,7.234L54.527,78.902L54.527,78.902z
				 M58.312,88.101l-19.446,8.002l8.089-19.411l8.046,3.353L58.312,88.101L58.312,88.101z M75.887,87.802l3.011-7.234l-5.118,2.108
				l-5.125,2.111L75.887,87.802L75.887,87.802z M67.459,108.013l-8.005-19.44l8.056-3.315l8.038,3.351L67.459,108.013
				L67.459,108.013z M80.045,80.096l8.055-3.313l8.009,19.443l-19.415-8.089L80.045,80.096L80.045,80.096z M88.138,58.403
				l-8.041-3.352l-3.314-8.055l19.445-8.005L88.138,58.403L88.138,58.403z M84.788,66.44l3.013-7.232l-7.234-3.013l2.106,5.12
				L84.788,66.44L84.788,66.44z M81.844,73.504l-2.469,5.921l-5.93,2.445l-5.934,2.44l-5.921-2.465l-5.925-2.468l-2.441-5.935
				l-2.443-5.932l2.472-5.921l2.467-5.922l5.932-2.441l5.932-2.441l5.922,2.463l5.923,2.467l2.44,5.938l2.439,5.929L81.844,73.504
				L81.844,73.504z M84.783,68.729l-2.135,5.115l-2.13,5.109l7.245-2.979L84.783,68.729L84.783,68.729z M88.611,59.547l19.409,8.087
				l-19.445,8.003l-3.315-8.051L88.611,59.547L88.611,59.547z M97.437,38.355l-8.494,20.384l20.384,8.497l0.976,0.404l-0.976,0.402
				l-20.422,8.408l8.408,20.419l0.408,0.978l-0.982-0.408l-20.381-8.491l-8.502,20.384l-0.398,0.972l-0.406-0.975l-8.405-20.424
				l-20.42,8.412l-0.977,0.4l0.409-0.971l8.49-20.388L25.766,67.86l-0.971-0.404l0.971-0.405l20.421-8.405l-8.409-20.419
				l-0.402-0.979l0.979,0.408l20.378,8.492l8.494-20.385l0.411-0.969l0.404,0.977l8.409,20.419l20.417-8.409l0.975-0.398
				L97.437,38.355z"/>
			<g>
				
					<rect x="77.015" y="41.483" transform="matrix(-0.3807 -0.9247 0.9247 -0.3807 68.4228 130.7583)" fill-rule="evenodd" clip-rule="evenodd" fill="#F3C983" width="1.968" height="1.966"/>
				
					<rect x="41.533" y="56.099" transform="matrix(-0.3795 -0.9252 0.9252 -0.3795 5.8406 118.0816)" fill-rule="evenodd" clip-rule="evenodd" fill="#F3C983" width="1.969" height="1.967"/>
				
					<rect x="56.166" y="91.626" transform="matrix(-0.3816 -0.9243 0.9243 -0.3816 -6.6469 180.7726)" fill-rule="evenodd" clip-rule="evenodd" fill="#F3C983" width="1.968" height="1.968"/>
				<polygon fill-rule="evenodd" clip-rule="evenodd" fill="#F3C983" points="93.139,76.69 93.889,78.508 92.068,79.255 
					91.323,77.441 				"/>
				
					<rect x="91.663" y="56.199" transform="matrix(0.3829 -0.9238 0.9238 0.3829 4.3478 120.8705)" fill-rule="evenodd" clip-rule="evenodd" fill="#F3C983" width="1.966" height="1.965"/>
				<polygon fill-rule="evenodd" clip-rule="evenodd" fill="#F3C983" points="58.554,41.921 57.797,43.732 55.983,42.98 
					56.742,41.166 				"/>
				
					<rect x="41.527" y="76.878" transform="matrix(0.3845 -0.9231 0.9231 0.3845 -45.7097 87.1623)" fill-rule="evenodd" clip-rule="evenodd" fill="#F3C983" width="1.966" height="1.965"/>
				<polygon fill-rule="evenodd" clip-rule="evenodd" fill="#F3C983" points="79.162,92.071 78.41,93.886 76.591,93.129 
					77.348,91.312 				"/>
			</g>
			<g>
				<polygon fill-rule="evenodd" clip-rule="evenodd" fill="#F3C983" points="81.419,46.258 80.112,46.798 81.959,47.567 				"/>
				<polygon fill-rule="evenodd" clip-rule="evenodd" fill="#F3C983" points="72.873,42.72 71.56,43.256 73.414,44.027 				"/>
				<polygon fill-rule="evenodd" clip-rule="evenodd" fill="#F3C983" points="88.877,53.759 88.331,55.064 87.568,53.212 				"/>
				<polygon fill-rule="evenodd" clip-rule="evenodd" fill="#F3C983" points="92.379,62.263 91.837,63.572 91.08,61.716 				"/>
				<polygon fill-rule="evenodd" clip-rule="evenodd" fill="#F3C983" points="92.366,72.904 91.825,71.598 91.058,73.445 				"/>
				<polygon fill-rule="evenodd" clip-rule="evenodd" fill="#F3C983" points="62.309,42.718 63.614,43.265 61.761,44.024 				"/>
				<polygon fill-rule="evenodd" clip-rule="evenodd" fill="#F3C983" points="81.332,88.862 80.025,88.318 81.879,87.556 				"/>
				<polygon fill-rule="evenodd" clip-rule="evenodd" fill="#F3C983" points="72.773,92.363 71.467,91.822 73.317,91.057 				"/>
				<polygon fill-rule="evenodd" clip-rule="evenodd" fill="#F3C983" points="88.818,81.392 88.285,80.082 87.514,81.932 				"/>
				<polygon fill-rule="evenodd" clip-rule="evenodd" fill="#F3C983" points="53.676,88.806 54.985,88.266 53.132,87.499 				"/>
				<polygon fill-rule="evenodd" clip-rule="evenodd" fill="#F3C983" points="62.166,92.348 63.473,91.809 61.629,91.042 				"/>
				<polygon fill-rule="evenodd" clip-rule="evenodd" fill="#F3C983" points="46.304,53.681 46.842,54.986 47.614,53.14 				"/>
				<polygon fill-rule="evenodd" clip-rule="evenodd" fill="#F3C983" points="42.763,62.226 43.302,63.533 44.076,61.687 				"/>
				<polygon fill-rule="evenodd" clip-rule="evenodd" fill="#F3C983" points="53.801,46.226 55.108,46.77 53.257,47.531 				"/>
				<polygon fill-rule="evenodd" clip-rule="evenodd" fill="#F3C983" points="46.21,81.319 46.752,80.013 47.515,81.865 				"/>
				<polygon fill-rule="evenodd" clip-rule="evenodd" fill="#F3C983" points="42.707,72.76 43.255,71.452 44.012,73.307 				"/>
			</g>
			<g>
				<path fill-rule="evenodd" clip-rule="evenodd" fill="#F3C983" d="M75.408,48.71l1.591,3.86l-5.45-2.27L75.408,48.71
					L75.408,48.71z M74.96,49.797l-1.214,0.502l1.72,0.713L74.96,49.797z"/>
				<path fill-rule="evenodd" clip-rule="evenodd" fill="#F3C983" d="M86.415,59.767l-3.859-1.605l2.253,5.462L86.415,59.767
					L86.415,59.767z M85.326,60.205l-0.504,1.221l-0.709-1.722L85.326,60.205z"/>
				<path fill-rule="evenodd" clip-rule="evenodd" fill="#F3C983" d="M48.715,59.687l3.858-1.591l-2.27,5.45L48.715,59.687
					L48.715,59.687z M49.801,60.134l0.497,1.217l0.718-1.723L49.801,60.134z"/>
				<path fill-rule="evenodd" clip-rule="evenodd" fill="#F3C983" d="M59.769,48.678l-1.603,3.857l5.462-2.252L59.769,48.678
					L59.769,48.678z M60.212,49.766l1.218,0.508l-1.724,0.708L60.212,49.766z"/>
				<path fill-rule="evenodd" clip-rule="evenodd" fill="#F3C983" d="M48.678,75.327l3.857,1.609l-2.246-5.46L48.678,75.327
					L48.678,75.327z M49.769,74.886l0.504-1.215l0.715,1.721L49.769,74.886z"/>
				<path fill-rule="evenodd" clip-rule="evenodd" fill="#F3C983" d="M59.689,86.379l-1.59-3.863l5.453,2.273L59.689,86.379
					L59.689,86.379z M60.133,85.289l1.22-0.496l-1.717-0.719L60.133,85.289z"/>
				<path fill-rule="evenodd" clip-rule="evenodd" fill="#F3C983" d="M75.331,86.414l1.606-3.854l-5.463,2.25L75.331,86.414
					L75.331,86.414z M74.889,85.323l-1.219-0.499l1.725-0.715L74.889,85.323z"/>
				<path fill-rule="evenodd" clip-rule="evenodd" fill="#F3C983" d="M86.379,75.406l-3.862,1.585l2.273-5.45L86.379,75.406
					L86.379,75.406z M85.293,74.958l-0.501-1.216l-0.712,1.723L85.293,74.958z"/>
			</g>
			<g>
				<g>
					<path fill-rule="evenodd" clip-rule="evenodd" fill="#F3C983" d="M50.129,84.514c-0.394,0.668-1.744,0.86-2.377,0.782
						c-0.711-0.092-1.519-0.369-2.111-0.739c-1.011-0.642-2.027,0.748-0.813,1.335c1.175,0.57,2.399-0.066,3.607-0.271
						c0.773-0.132,0.314,0.358-0.155,0.735c-0.349,0.284-0.673,0.421-1.009,0.554c-1.4,0.544-2.298-0.207-3.487-0.034
						c-0.864,0.119-0.72,1.05,0.007,1.145c0.829,0.099,1.52-0.346,2.296-0.529c0.669-0.155,0.925,0.384,0.245,0.919
						c-0.335,0.258-0.662,0.438-0.985,0.556c-0.753,0.274-1.551,0.367-2.242,0.129c-1.254-0.44-1.48,1.357-0.176,1.021
						c0.23-0.061,0.908-0.355,1.249-0.456c0.761-0.208,0.768,0.404-0.193,1.097c-0.181,0.123-0.424,0.268-0.755,0.415
						c-1.694,0.888-0.305,2.287,0.588,0.597c0.152-0.333,0.297-0.578,0.423-0.757c0.695-0.959,1.309-0.951,1.094-0.194
						c-0.1,0.344-0.402,1.022-0.46,1.251c-0.342,1.305,1.456,1.087,1.027-0.166c-0.243-0.69-0.147-1.492,0.134-2.247
						c0.116-0.316,0.294-0.646,0.557-0.977c0.538-0.682,1.08-0.428,0.918,0.248c-0.185,0.771-0.634,1.462-0.537,2.295
						c0.092,0.722,1.016,0.87,1.141,0.011c0.174-1.191-0.567-2.094-0.015-3.488c0.129-0.333,0.271-0.661,0.557-1.009
						c0.378-0.461,0.869-0.927,0.733-0.153c-0.212,1.211-0.851,2.431-0.282,3.613c0.582,1.218,1.975,0.201,1.333-0.815
						c-0.365-0.587-0.64-1.4-0.726-2.111c-0.081-0.638,0.117-1.984,0.787-2.372C50.514,84.776,50.273,84.511,50.129,84.514
						L50.129,84.514z M41.829,93.159c0.182,0.186,0.182,0.487-0.004,0.673c-0.188,0.185-0.487,0.184-0.672-0.002
						c-0.186-0.187-0.185-0.485,0.004-0.673C41.341,92.976,41.641,92.975,41.829,93.159z"/>
					<path fill-rule="evenodd" clip-rule="evenodd" fill="#F3C983" d="M84.592,50.205c0.666-0.394,0.868-1.74,0.791-2.377
						c-0.094-0.713-0.364-1.519-0.736-2.114c-0.635-1.012,0.757-2.029,1.346-0.808c0.56,1.181-0.074,2.4-0.291,3.611
						c-0.133,0.769,0.357,0.31,0.736-0.157c0.281-0.347,0.424-0.668,0.554-1.006c0.556-1.397-0.193-2.295-0.022-3.487
						c0.129-0.862,1.055-0.717,1.15,0.014c0.096,0.83-0.356,1.52-0.539,2.289c-0.159,0.677,0.384,0.932,0.919,0.249
						c0.262-0.329,0.441-0.655,0.559-0.979c0.28-0.753,0.377-1.55,0.136-2.24c-0.431-1.254,1.365-1.475,1.024-0.172
						c-0.058,0.232-0.359,0.908-0.46,1.248c-0.213,0.759,0.399,0.771,1.096-0.193c0.129-0.173,0.268-0.42,0.419-0.752
						c0.895-1.689,2.286-0.292,0.593,0.597c-0.336,0.146-0.578,0.291-0.759,0.417c-0.96,0.689-0.952,1.302-0.195,1.092
						c0.34-0.098,1.023-0.396,1.25-0.458c1.303-0.332,1.078,1.469-0.172,1.033c-0.689-0.245-1.491-0.154-2.244,0.121
						c-0.322,0.119-0.647,0.296-0.982,0.553c-0.686,0.534-0.434,1.073,0.249,0.923c0.766-0.182,1.46-0.631,2.293-0.522
						c0.724,0.083,0.865,1.014,0.003,1.132c-1.191,0.169-2.085-0.579-3.49-0.031c-0.331,0.13-0.656,0.274-1.005,0.552
						c-0.462,0.379-0.931,0.864-0.159,0.735c1.214-0.208,2.433-0.84,3.616-0.269c1.21,0.581,0.193,1.974-0.822,1.333
						c-0.587-0.368-1.393-0.648-2.102-0.737c-0.641-0.081-1.988,0.108-2.386,0.778C84.85,50.583,84.581,50.341,84.592,50.205
						L84.592,50.205z M93.269,41.936c0.184,0.186,0.486,0.188,0.67,0c0.187-0.185,0.188-0.486,0.006-0.671
						c-0.189-0.185-0.493-0.188-0.675,0.001C93.085,41.452,93.082,41.751,93.269,41.936z"/>
				</g>
				<g>
					<path fill-rule="evenodd" clip-rule="evenodd" fill="#F3C983" d="M67.227,91.865c0.199,0.748-0.623,1.838-1.126,2.233
						c-0.57,0.438-1.337,0.811-2.018,0.966c-1.162,0.266-0.908,1.965,0.368,1.522c1.233-0.431,1.652-1.744,2.363-2.746
						c0.454-0.638,0.471,0.035,0.408,0.63c-0.044,0.445-0.176,0.779-0.321,1.104c-0.603,1.38-1.765,1.482-2.492,2.442
						c-0.52,0.697,0.234,1.253,0.813,0.805c0.658-0.513,0.83-1.323,1.248-1.998c0.371-0.588,0.932-0.376,0.825,0.479
						c-0.05,0.42-0.159,0.775-0.302,1.088c-0.338,0.727-0.837,1.357-1.495,1.675c-1.196,0.574-0.089,2.005,0.601,0.848
						c0.122-0.203,0.384-0.896,0.561-1.205c0.386-0.685,0.828-0.258,0.632,0.91c-0.037,0.216-0.107,0.49-0.241,0.829
						c-0.564,1.827,1.409,1.833,0.843,0.005c-0.13-0.344-0.202-0.615-0.237-0.834c-0.189-1.169,0.257-1.59,0.641-0.904
						c0.172,0.31,0.435,1.005,0.552,1.203c0.683,1.162,1.804-0.261,0.609-0.843c-0.657-0.317-1.154-0.951-1.491-1.684
						c-0.143-0.31-0.25-0.667-0.296-1.085c-0.102-0.862,0.456-1.066,0.825-0.476c0.417,0.679,0.581,1.483,1.248,2.004
						c0.573,0.447,1.326-0.105,0.806-0.807c-0.716-0.963-1.883-1.069-2.478-2.447c-0.14-0.329-0.269-0.661-0.32-1.108
						c-0.059-0.596-0.035-1.271,0.411-0.627c0.705,1.006,1.124,2.322,2.355,2.756c1.276,0.447,1.537-1.252,0.371-1.521
						c-0.676-0.158-1.444-0.535-2.004-0.977c-0.505-0.396-1.322-1.488-1.123-2.237C67.684,91.778,67.325,91.756,67.227,91.865
						L67.227,91.865z M67.467,103.847c0.262,0,0.476,0.213,0.481,0.477c-0.005,0.261-0.216,0.475-0.478,0.472
						c-0.264,0.003-0.477-0.211-0.475-0.475C66.996,104.057,67.204,103.847,67.467,103.847z"/>
					<path fill-rule="evenodd" clip-rule="evenodd" fill="#F3C983" d="M67.333,43.231c0.199-0.745-0.618-1.84-1.121-2.237
						c-0.562-0.441-1.332-0.819-2.011-0.977c-1.166-0.268-0.9-1.966,0.371-1.521c1.237,0.44,1.653,1.751,2.357,2.757
						c0.451,0.642,0.467-0.033,0.406-0.63c-0.045-0.447-0.172-0.775-0.317-1.107c-0.598-1.381-1.759-1.487-2.479-2.452
						c-0.518-0.698,0.241-1.249,0.814-0.799c0.662,0.521,0.832,1.322,1.246,2.003c0.365,0.59,0.924,0.381,0.822-0.48
						c-0.048-0.417-0.155-0.776-0.298-1.084c-0.336-0.731-0.833-1.363-1.489-1.685c-1.187-0.576-0.074-2.002,0.61-0.84
						c0.119,0.201,0.384,0.893,0.555,1.207c0.38,0.685,0.829,0.262,0.636-0.909c-0.035-0.216-0.109-0.492-0.235-0.831
						c-0.565-1.829,1.413-1.824,0.839,0c-0.131,0.341-0.202,0.615-0.238,0.833c-0.191,1.169,0.251,1.596,0.635,0.908
						c0.173-0.308,0.438-1.002,0.558-1.202c0.686-1.161,1.797,0.27,0.605,0.843c-0.663,0.322-1.159,0.949-1.498,1.676
						c-0.146,0.313-0.253,0.669-0.302,1.087c-0.105,0.861,0.453,1.064,0.826,0.478c0.415-0.675,0.591-1.481,1.252-1.994
						c0.573-0.451,1.329,0.105,0.806,0.801c-0.723,0.962-1.89,1.063-2.489,2.442c-0.144,0.329-0.274,0.659-0.327,1.107
						c-0.057,0.594-0.039,1.267,0.412,0.628c0.709-1.004,1.131-2.317,2.365-2.749c1.276-0.441,1.534,1.261,0.365,1.526
						c-0.679,0.152-1.444,0.524-2.012,0.964c-0.508,0.396-1.326,1.483-1.129,2.235C67.785,43.32,67.43,43.335,67.333,43.231
						L67.333,43.231z M67.627,31.248c0.26,0,0.472-0.213,0.474-0.474c0.002-0.264-0.212-0.474-0.477-0.474
						c-0.255-0.003-0.468,0.213-0.474,0.471C67.15,31.032,67.363,31.248,67.627,31.248z"/>
				</g>
				<g>
					<path fill-rule="evenodd" clip-rule="evenodd" fill="#F3C983" d="M84.512,84.97c0.675,0.39,0.862,1.736,0.778,2.375
						c-0.084,0.71-0.366,1.52-0.735,2.104c-0.64,1.012,0.75,2.04,1.336,0.819c0.569-1.175-0.063-2.402-0.273-3.617
						c-0.127-0.767,0.356-0.305,0.735,0.163c0.285,0.346,0.425,0.675,0.557,1.008c0.541,1.398-0.204,2.298-0.036,3.488
						c0.121,0.859,1.048,0.719,1.142-0.009c0.106-0.827-0.344-1.52-0.526-2.291c-0.159-0.678,0.388-0.928,0.925-0.246
						c0.259,0.336,0.435,0.664,0.548,0.98c0.274,0.753,0.365,1.557,0.13,2.245c-0.442,1.249,1.354,1.479,1.023,0.169
						c-0.061-0.227-0.359-0.902-0.455-1.246c-0.213-0.757,0.406-0.768,1.09,0.194c0.132,0.181,0.271,0.425,0.419,0.756
						c0.89,1.698,2.287,0.304,0.593-0.59c-0.33-0.148-0.57-0.291-0.753-0.423c-0.962-0.69-0.945-1.304-0.192-1.09
						c0.342,0.098,1.022,0.399,1.245,0.459c1.311,0.341,1.091-1.458-0.165-1.025c-0.689,0.235-1.491,0.141-2.242-0.134
						c-0.32-0.12-0.651-0.302-0.981-0.562c-0.684-0.537-0.425-1.08,0.252-0.923c0.768,0.189,1.459,0.644,2.287,0.542
						c0.727-0.089,0.872-1.018,0.012-1.144c-1.189-0.172-2.084,0.578-3.486,0.021c-0.334-0.132-0.662-0.277-1.004-0.56
						c-0.465-0.381-0.931-0.868-0.158-0.729c1.211,0.214,2.437,0.851,3.612,0.283c1.216-0.584,0.197-1.974-0.812-1.34
						c-0.59,0.369-1.397,0.644-2.112,0.729c-0.638,0.077-1.982-0.122-2.376-0.793C84.777,84.586,84.507,84.825,84.512,84.97
						L84.512,84.97z M93.16,93.27c0.185-0.184,0.484-0.184,0.669,0.003c0.184,0.185,0.186,0.485,0,0.671
						c-0.188,0.184-0.486,0.187-0.669-0.001C92.975,93.752,92.975,93.457,93.16,93.27z"/>
					<path fill-rule="evenodd" clip-rule="evenodd" fill="#F3C983" d="M50.197,50.505c-0.386-0.67-1.735-0.868-2.374-0.789
						c-0.711,0.086-1.516,0.362-2.105,0.729c-1.017,0.634-2.032-0.754-0.817-1.338c1.182-0.565,2.406,0.07,3.618,0.286
						c0.768,0.135,0.308-0.357-0.157-0.735c-0.349-0.285-0.679-0.428-1.007-0.559c-1.399-0.553-2.299,0.194-3.489,0.019
						c-0.86-0.127-0.715-1.052,0.014-1.143c0.829-0.096,1.521,0.351,2.29,0.538c0.674,0.157,0.928-0.384,0.25-0.92
						c-0.333-0.256-0.659-0.44-0.978-0.559c-0.754-0.277-1.555-0.372-2.245-0.133c-1.254,0.431-1.475-1.366-0.167-1.03
						c0.23,0.063,0.902,0.363,1.244,0.461c0.76,0.219,0.773-0.397-0.193-1.094c-0.175-0.126-0.421-0.268-0.753-0.421
						c-1.688-0.892-0.285-2.282,0.596-0.594c0.146,0.336,0.29,0.581,0.42,0.759c0.685,0.968,1.301,0.954,1.089,0.196
						c-0.096-0.344-0.393-1.017-0.458-1.247c-0.328-1.305,1.468-1.08,1.03,0.172c-0.238,0.689-0.149,1.492,0.128,2.243
						c0.118,0.322,0.29,0.647,0.551,0.981c0.535,0.683,1.08,0.434,0.918-0.246c-0.178-0.769-0.627-1.461-0.525-2.29
						c0.093-0.728,1.016-0.87,1.146-0.007c0.164,1.189-0.582,2.087-0.037,3.488c0.128,0.333,0.271,0.661,0.556,1.008
						c0.376,0.464,0.861,0.929,0.731,0.159c-0.21-1.215-0.839-2.436-0.27-3.614c0.592-1.211,1.973-0.193,1.336,0.816
						c-0.37,0.591-0.653,1.396-0.743,2.108c-0.075,0.637,0.116,1.986,0.779,2.378C50.585,50.246,50.345,50.511,50.197,50.505
						L50.197,50.505z M41.935,41.825c0.185-0.184,0.187-0.483-0.001-0.671c-0.186-0.186-0.484-0.188-0.669-0.001
						c-0.187,0.185-0.189,0.483,0.002,0.673C41.447,42.01,41.751,42.012,41.935,41.825z"/>
				</g>
				<g>
					<path fill-rule="evenodd" clip-rule="evenodd" fill="#F3C983" d="M91.863,67.868c0.746-0.196,1.837,0.622,2.232,1.126
						c0.439,0.57,0.814,1.332,0.967,2.016c0.268,1.169,1.966,0.911,1.518-0.365c-0.423-1.235-1.741-1.655-2.741-2.365
						c-0.642-0.458,0.032-0.47,0.627-0.409c0.447,0.049,0.778,0.179,1.108,0.323c1.379,0.606,1.48,1.768,2.438,2.49
						c0.704,0.524,1.254-0.233,0.81-0.807c-0.517-0.665-1.323-0.837-2.003-1.258c-0.583-0.361-0.378-0.925,0.486-0.819
						c0.415,0.052,0.773,0.155,1.079,0.302c0.73,0.338,1.362,0.843,1.68,1.498c0.577,1.198,2.007,0.079,0.846-0.606
						c-0.2-0.119-0.895-0.382-1.208-0.562c-0.685-0.382-0.257-0.83,0.914-0.63c0.218,0.033,0.488,0.109,0.832,0.237
						c1.821,0.572,1.826-1.402-0.001-0.839c-0.341,0.124-0.616,0.197-0.832,0.232c-1.168,0.194-1.592-0.249-0.905-0.634
						c0.309-0.176,1-0.44,1.203-0.557c1.166-0.68-0.26-1.796-0.843-0.604c-0.316,0.657-0.953,1.151-1.683,1.486
						c-0.308,0.144-0.666,0.255-1.086,0.301c-0.861,0.102-1.065-0.462-0.472-0.822c0.675-0.418,1.481-0.585,1.998-1.246
						c0.449-0.577-0.102-1.334-0.799-0.815c-0.966,0.721-1.073,1.882-2.454,2.48c-0.325,0.142-0.662,0.271-1.105,0.317
						c-0.595,0.06-1.272,0.04-0.633-0.414c1.01-0.699,2.326-1.116,2.757-2.349c0.448-1.277-1.25-1.538-1.517-0.373
						c-0.159,0.679-0.538,1.443-0.975,2.011c-0.397,0.507-1.492,1.319-2.238,1.119C91.78,67.416,91.761,67.77,91.863,67.868
						L91.863,67.868z M103.848,67.626c-0.001-0.265,0.208-0.474,0.473-0.474c0.259,0,0.471,0.213,0.477,0.474
						c-0.001,0.261-0.219,0.476-0.479,0.474C104.06,68.1,103.845,67.887,103.848,67.626z"/>
					<path fill-rule="evenodd" clip-rule="evenodd" fill="#F3C983" d="M43.232,67.764c-0.753-0.2-1.843,0.613-2.243,1.12
						c-0.434,0.562-0.813,1.33-0.969,2.011c-0.269,1.163-1.971,0.899-1.518-0.374c0.432-1.232,1.738-1.65,2.753-2.353
						c0.643-0.448-0.033-0.47-0.629-0.409c-0.445,0.047-0.776,0.172-1.108,0.318c-1.382,0.594-1.491,1.756-2.451,2.478
						c-0.698,0.523-1.254-0.243-0.802-0.816c0.514-0.659,1.325-0.827,2-1.242c0.591-0.367,0.384-0.931-0.473-0.824
						c-0.421,0.045-0.773,0.154-1.088,0.295c-0.729,0.336-1.363,0.835-1.683,1.492c-0.581,1.192-2.005,0.072-0.842-0.607
						c0.202-0.12,0.891-0.382,1.21-0.558c0.683-0.382,0.257-0.821-0.912-0.635c-0.218,0.034-0.489,0.106-0.83,0.237
						c-1.826,0.56-1.824-1.416,0-0.843c0.342,0.13,0.613,0.208,0.833,0.243c1.167,0.196,1.589-0.252,0.908-0.634
						c-0.311-0.178-1.002-0.44-1.206-0.564c-1.155-0.683,0.275-1.794,0.845-0.603c0.322,0.661,0.956,1.163,1.681,1.497
						c0.31,0.145,0.665,0.252,1.084,0.305c0.86,0.104,1.067-0.46,0.482-0.827c-0.675-0.412-1.486-0.585-1.998-1.249
						c-0.444-0.577,0.107-1.331,0.802-0.808c0.965,0.722,1.065,1.885,2.44,2.488c0.33,0.144,0.661,0.275,1.105,0.32
						c0.595,0.063,1.275,0.046,0.633-0.406c-1.002-0.706-2.315-1.126-2.745-2.364c-0.445-1.274,1.259-1.53,1.52-0.366
						c0.152,0.68,0.531,1.451,0.971,2.012c0.391,0.507,1.481,1.326,2.228,1.129C43.315,67.307,43.338,67.666,43.232,67.764
						L43.232,67.764z M31.25,67.47c0-0.267-0.215-0.479-0.476-0.479c-0.262,0.003-0.477,0.213-0.477,0.476
						c0.004,0.264,0.212,0.477,0.477,0.476C31.031,67.943,31.245,67.732,31.25,67.47z"/>
				</g>
			</g>
			<g>
				<g>
					<path fill-rule="evenodd" clip-rule="evenodd" fill="#F3C983" d="M81.483,54.544c-0.245,0.242-0.635,0.24-0.877-0.003
						c-0.237-0.24-0.239-0.634,0.006-0.873c0.238-0.242,0.631-0.24,0.874,0C81.727,53.912,81.73,54.306,81.483,54.544L81.483,54.544
						z M79.294,51.626c0.085,0.179,0.376,0.599,0.673,0.981c0.74,0.944,0.874,0.878,0.635-0.299
						c-0.097-0.471-0.233-0.957-0.314-1.14C79.727,49.966,78.739,50.425,79.294,51.626L79.294,51.626z M81.034,51.058
						c-0.036,0.201-0.039,0.705-0.014,1.183c0.064,1.197,0.214,1.225,0.688,0.123c0.193-0.441,0.365-0.916,0.402-1.11
						C82.34,49.945,81.266,49.752,81.034,51.058L81.034,51.058z M82.78,51.588c0.939-0.935,1.707-0.165,0.771,0.775
						c-0.141,0.138-0.555,0.43-0.962,0.685c-1.021,0.628-1.13,0.522-0.501-0.499C82.349,52.144,82.641,51.729,82.78,51.588
						L82.78,51.588z M83.907,53.027c-0.193,0.034-0.674,0.2-1.117,0.388c-1.101,0.474-1.075,0.625,0.124,0.69
						c0.477,0.03,0.984,0.03,1.181-0.006C85.406,53.877,85.215,52.798,83.907,53.027L83.907,53.027z M84.008,54.85
						c-0.181-0.084-0.667-0.224-1.135-0.322c-1.174-0.248-1.243-0.106-0.299,0.64c0.378,0.296,0.792,0.583,0.972,0.669
						C84.75,56.401,85.209,55.41,84.008,54.85z"/>
					<path fill-rule="evenodd" clip-rule="evenodd" fill="#F3C983" d="M54.484,81.427c0.241-0.24,0.24-0.631,0.002-0.871
						c-0.242-0.251-0.634-0.248-0.873-0.006c-0.242,0.243-0.245,0.634-0.004,0.877C53.848,81.668,54.246,81.67,54.484,81.427
						L54.484,81.427z M51.58,79.231c0.176,0.082,0.594,0.371,0.968,0.67c0.94,0.742,0.882,0.885-0.297,0.636
						c-0.474-0.101-0.955-0.234-1.136-0.32C49.912,79.651,50.375,78.666,51.58,79.231L51.58,79.231z M51.002,80.963
						c0.195-0.034,0.705-0.034,1.183-0.009c1.195,0.072,1.223,0.221,0.119,0.692c-0.445,0.187-0.92,0.355-1.116,0.391
						C49.883,82.266,49.695,81.193,51.002,80.963L51.002,80.963z M51.521,82.712c-0.938,0.935-0.167,1.711,0.772,0.776
						c0.143-0.145,0.435-0.555,0.689-0.964c0.634-1.021,0.529-1.126-0.494-0.494C52.074,82.278,51.663,82.571,51.521,82.712
						L51.521,82.712z M52.953,83.847c0.034-0.195,0.21-0.672,0.397-1.116c0.478-1.101,0.626-1.074,0.695,0.129
						c0.022,0.48,0.016,0.979-0.015,1.18C53.795,85.343,52.722,85.153,52.953,83.847L52.953,83.847z M54.777,83.957
						c-0.082-0.179-0.214-0.67-0.313-1.143c-0.243-1.175-0.103-1.241,0.635-0.295c0.298,0.38,0.586,0.796,0.673,0.979
						C56.327,84.702,55.337,85.159,54.777,83.957z"/>
				</g>
				<g>
					<path fill-rule="evenodd" clip-rule="evenodd" fill="#F3C983" d="M68.211,48.498c-0.005,0.339-0.284,0.618-0.622,0.619
						c-0.347-0.002-0.622-0.28-0.621-0.621c0.005-0.341,0.283-0.618,0.62-0.618C67.93,47.878,68.208,48.16,68.211,48.498
						L68.211,48.498z M64.6,47.981c0.186,0.072,0.684,0.162,1.16,0.221c1.195,0.143,1.243,0.001,0.242-0.658
						c-0.401-0.268-0.841-0.517-1.025-0.585C63.729,46.504,63.352,47.527,64.6,47.981L64.6,47.981z M65.428,46.352
						c0.108,0.163,0.462,0.525,0.825,0.844c0.89,0.805,1.014,0.713,0.573-0.398c-0.181-0.449-0.394-0.904-0.509-1.067
						C65.56,44.639,64.662,45.261,65.428,46.352L65.428,46.352z M67.035,45.494c-0.003,0.194,0.083,0.695,0.191,1.161
						c0.274,1.17,0.427,1.175,0.701,0.004c0.114-0.468,0.195-0.968,0.199-1.163C68.13,44.166,67.041,44.165,67.035,45.494
						L67.035,45.494z M68.848,45.709c-0.114,0.16-0.333,0.618-0.51,1.065c-0.444,1.118-0.325,1.205,0.575,0.408
						c0.354-0.328,0.709-0.683,0.825-0.846C70.503,45.252,69.611,44.624,68.848,45.709L68.848,45.709z M70.208,46.927
						c-0.183,0.068-0.625,0.32-1.031,0.58c-1.007,0.661-0.952,0.8,0.24,0.661c0.48-0.053,0.976-0.144,1.16-0.21
						C71.827,47.503,71.455,46.475,70.208,46.927z"/>
					<path fill-rule="evenodd" clip-rule="evenodd" fill="#F3C983" d="M68.125,86.602c0.002-0.344-0.274-0.623-0.617-0.621
						c-0.341,0-0.62,0.272-0.616,0.616c-0.005,0.341,0.268,0.615,0.612,0.619C67.846,87.219,68.122,86.94,68.125,86.602
						L68.125,86.602z M64.514,87.099c0.189-0.066,0.682-0.159,1.163-0.212c1.193-0.141,1.244,0.003,0.241,0.66
						c-0.405,0.261-0.842,0.514-1.033,0.576C63.638,88.579,63.268,87.553,64.514,87.099L64.514,87.099z M65.333,88.733
						c0.116-0.162,0.47-0.522,0.832-0.844c0.897-0.799,1.021-0.707,0.576,0.406c-0.182,0.449-0.403,0.899-0.519,1.063
						C65.464,90.447,64.573,89.817,65.333,88.733L65.333,88.733z M66.94,89.601c0.001-0.199,0.09-0.695,0.199-1.163
						c0.275-1.171,0.428-1.17,0.7-0.002c0.111,0.473,0.194,0.969,0.192,1.165C68.03,90.93,66.936,90.924,66.94,89.601L66.94,89.601z
						 M68.753,89.39c-0.112-0.163-0.325-0.619-0.505-1.068c-0.444-1.115-0.322-1.201,0.579-0.393
						c0.355,0.318,0.708,0.673,0.826,0.84C70.407,89.857,69.515,90.476,68.753,89.39L68.753,89.39z M70.12,88.178
						c-0.189-0.068-0.628-0.32-1.028-0.585c-1.004-0.66-0.949-0.801,0.242-0.658c0.478,0.06,0.974,0.149,1.163,0.218
						C71.744,87.609,71.363,88.631,70.12,88.178z"/>
				</g>
				<g>
					<path fill-rule="evenodd" clip-rule="evenodd" fill="#F3C983" d="M54.543,53.61c0.244,0.244,0.237,0.639-0.002,0.877
						c-0.243,0.242-0.635,0.24-0.876-0.001c-0.236-0.243-0.239-0.634,0.004-0.877C53.911,53.37,54.302,53.37,54.543,53.61
						L54.543,53.61z M51.626,55.797c0.182-0.084,0.602-0.369,0.975-0.666c0.948-0.739,0.885-0.881-0.294-0.639
						c-0.468,0.097-0.957,0.231-1.135,0.317C49.962,55.364,50.423,56.357,51.626,55.797L51.626,55.797z M51.06,54.062
						c0.196,0.034,0.697,0.039,1.181,0.012c1.203-0.063,1.226-0.212,0.127-0.688c-0.446-0.194-0.92-0.364-1.119-0.396
						C49.948,52.759,49.752,53.829,51.06,54.062L51.06,54.062z M51.59,52.314c-0.937-0.938-0.168-1.711,0.77-0.771
						c0.145,0.144,0.434,0.556,0.687,0.962c0.628,1.022,0.524,1.13-0.494,0.499C52.137,52.746,51.727,52.456,51.59,52.314
						L51.59,52.314z M53.023,51.184c0.035,0.198,0.206,0.673,0.396,1.119c0.471,1.106,0.62,1.077,0.69-0.123
						c0.027-0.483,0.023-0.987-0.007-1.18C53.868,49.692,52.797,49.878,53.023,51.184L53.023,51.184z M54.848,51.087
						c-0.086,0.18-0.216,0.667-0.322,1.135c-0.242,1.18-0.104,1.243,0.639,0.299c0.302-0.377,0.584-0.791,0.673-0.971
						C56.404,50.35,55.409,49.884,54.848,51.087z"/>
					<path fill-rule="evenodd" clip-rule="evenodd" fill="#F3C983" d="M81.43,80.612c-0.242-0.241-0.641-0.247-0.874-0.004
						c-0.246,0.24-0.25,0.633-0.004,0.879c0.241,0.238,0.632,0.238,0.874,0C81.664,81.242,81.669,80.854,81.43,80.612L81.43,80.612z
						 M79.227,83.518c0.088-0.181,0.376-0.593,0.675-0.974c0.745-0.942,0.88-0.877,0.632,0.295
						c-0.094,0.475-0.233,0.959-0.315,1.141C79.655,85.183,78.669,84.715,79.227,83.518L79.227,83.518z M80.963,84.093
						c-0.035-0.194-0.041-0.701-0.011-1.182c0.075-1.2,0.223-1.224,0.695-0.118c0.183,0.436,0.351,0.919,0.39,1.113
						C82.266,85.213,81.191,85.399,80.963,84.093L80.963,84.093z M82.713,83.575c0.934,0.935,1.71,0.169,0.77-0.773
						c-0.142-0.142-0.548-0.435-0.955-0.687c-1.025-0.637-1.131-0.53-0.5,0.492C82.285,83.02,82.573,83.429,82.713,83.575
						L82.713,83.575z M83.847,82.138c-0.193-0.032-0.67-0.204-1.113-0.393c-1.102-0.477-1.08-0.63,0.122-0.694
						c0.479-0.027,0.987-0.02,1.183,0.016C85.348,81.301,85.152,82.373,83.847,82.138L83.847,82.138z M83.957,80.316
						c-0.185,0.08-0.667,0.22-1.141,0.315c-1.175,0.243-1.24,0.104-0.296-0.636c0.381-0.298,0.798-0.584,0.979-0.668
						C84.695,78.766,85.159,79.759,83.957,80.316z"/>
				</g>
				<g>
					<path fill-rule="evenodd" clip-rule="evenodd" fill="#F3C983" d="M48.497,66.883c0.347,0.005,0.619,0.283,0.619,0.625
						c0,0.341-0.279,0.617-0.62,0.618c-0.341-0.001-0.615-0.28-0.613-0.618C47.877,67.165,48.155,66.888,48.497,66.883
						L48.497,66.883z M47.984,70.498c0.064-0.192,0.16-0.686,0.215-1.162c0.148-1.193,0.002-1.248-0.657-0.243
						c-0.266,0.405-0.515,0.843-0.584,1.026C46.503,71.366,47.524,71.743,47.984,70.498L47.984,70.498z M46.35,69.669
						c0.163-0.115,0.527-0.468,0.845-0.823c0.807-0.896,0.716-1.022-0.4-0.581c-0.443,0.182-0.901,0.396-1.066,0.513
						C44.64,69.536,45.266,70.428,46.35,69.669L46.35,69.669z M45.492,68.059c0.197,0,0.697-0.086,1.166-0.191
						c1.169-0.271,1.165-0.424,0.002-0.7c-0.47-0.113-0.97-0.197-1.167-0.2C44.165,66.966,44.168,68.057,45.492,68.059
						L45.492,68.059z M45.708,66.245c0.16,0.113,0.62,0.333,1.065,0.511c1.118,0.449,1.202,0.326,0.402-0.57
						c-0.314-0.358-0.673-0.717-0.837-0.83C45.251,64.591,44.621,65.482,45.708,66.245L45.708,66.245z M46.925,64.885
						c0.07,0.191,0.321,0.628,0.583,1.033c0.654,1.003,0.796,0.953,0.657-0.239c-0.053-0.479-0.148-0.977-0.21-1.162
						C47.503,63.267,46.475,63.64,46.925,64.885z"/>
					<path fill-rule="evenodd" clip-rule="evenodd" fill="#F3C983" d="M86.604,66.971c-0.347-0.003-0.622,0.274-0.626,0.618
						c-0.001,0.339,0.277,0.621,0.615,0.616c0.347,0,0.621-0.275,0.625-0.616C87.215,67.248,86.94,66.971,86.604,66.971
						L86.604,66.971z M87.1,70.578c-0.064-0.183-0.158-0.682-0.216-1.162c-0.135-1.192,0.009-1.244,0.662-0.24
						c0.265,0.405,0.515,0.849,0.583,1.033C88.578,71.455,87.549,71.823,87.1,70.578L87.1,70.578z M88.736,69.762
						c-0.166-0.115-0.524-0.472-0.843-0.831c-0.798-0.895-0.713-1.024,0.4-0.575c0.45,0.182,0.904,0.398,1.067,0.511
						C90.447,69.632,89.821,70.524,88.736,69.762L88.736,69.762z M89.599,68.155c-0.196-0.003-0.693-0.086-1.163-0.195
						c-1.166-0.282-1.168-0.432,0-0.703c0.468-0.111,0.97-0.191,1.167-0.192C90.929,67.064,90.929,68.158,89.599,68.155
						L89.599,68.155z M89.385,66.34c-0.157,0.115-0.616,0.329-1.063,0.505c-1.116,0.446-1.204,0.32-0.404-0.574
						c0.331-0.358,0.688-0.71,0.848-0.828C89.857,64.69,90.478,65.577,89.385,66.34L89.385,66.34z M88.178,64.975
						c-0.071,0.185-0.321,0.623-0.582,1.028c-0.661,1.003-0.807,0.95-0.664-0.243c0.059-0.479,0.152-0.977,0.22-1.16
						C87.607,63.354,88.636,63.732,88.178,64.975z"/>
				</g>
			</g>
			<path fill-rule="evenodd" clip-rule="evenodd" fill="#F3C983" d="M72.543,55.548c0.174-0.123,0.378-0.216,0.625-0.243
				c0.385-0.05,0.765,0.077,1.051,0.341c0.319,0.289,0.476,0.704,0.5,1.124c0.031,0.459-0.036,0.917-0.094,1.376
				c-0.021,0.175-0.119,0.708-0.081,0.95c0.344-0.084,0.752-0.882,0.886-1.117c0.355-0.591,0.719-1.217,1.27-1.638
				c1.329-0.994,3.082,0.775,2.082,2.094c-0.422,0.552-1.051,0.916-1.637,1.262c-0.236,0.139-1.038,0.542-1.119,0.892
				c0.239,0.036,0.775-0.061,0.948-0.082c0.464-0.062,0.934-0.122,1.417-0.083c0.407,0.03,0.818,0.194,1.094,0.507
				c0.254,0.288,0.377,0.667,0.329,1.046c-0.033,0.244-0.121,0.45-0.249,0.624c0.211,0.028,0.424,0.114,0.616,0.265
				c0.301,0.237,0.48,0.596,0.499,0.971c0.027,0.427-0.147,0.821-0.418,1.137c-0.309,0.363-0.691,0.649-1.062,0.938
				c-0.151,0.112-0.59,0.415-0.729,0.61c0.302,0.191,1.168-0.093,1.419-0.154c0.667-0.17,1.368-0.354,2.059-0.256
				c1.63,0.231,1.634,2.725-0.009,2.944c-0.694,0.093-1.391-0.089-2.052-0.267c-0.251-0.063-1.116-0.35-1.421-0.165
				c0.148,0.2,0.596,0.513,0.729,0.618c0.368,0.281,0.733,0.56,1.036,0.906c0.281,0.322,0.458,0.724,0.436,1.15
				c-0.016,0.387-0.203,0.75-0.504,0.988c-0.196,0.151-0.405,0.232-0.617,0.26c0.127,0.172,0.216,0.38,0.245,0.62
				c0.049,0.384-0.077,0.764-0.332,1.047c-0.276,0.313-0.688,0.474-1.102,0.503c-0.472,0.039-0.942-0.027-1.412-0.09
				c-0.176-0.022-0.709-0.123-0.951-0.085c0.085,0.354,0.897,0.764,1.113,0.896c0.595,0.35,1.217,0.716,1.641,1.272
				c0.991,1.322-0.772,3.087-2.093,2.081c-0.55-0.421-0.918-1.048-1.26-1.643c-0.13-0.225-0.543-1.034-0.887-1.12
				c-0.037,0.246,0.06,0.778,0.078,0.95c0.063,0.459,0.124,0.917,0.091,1.38c-0.029,0.416-0.188,0.831-0.499,1.12
				c-0.297,0.261-0.68,0.387-1.064,0.339c-0.241-0.037-0.444-0.123-0.617-0.255c-0.032,0.215-0.115,0.427-0.267,0.615
				c-0.232,0.301-0.593,0.484-0.977,0.504c-0.422,0.022-0.813-0.146-1.13-0.423c-0.362-0.311-0.648-0.688-0.938-1.066
				c-0.105-0.135-0.417-0.582-0.613-0.729c-0.188,0.304,0.094,1.169,0.159,1.427c0.174,0.662,0.354,1.36,0.251,2.051
				c-0.234,1.635-2.715,1.639-2.942-0.004c-0.096-0.692,0.091-1.391,0.268-2.051c0.066-0.252,0.348-1.118,0.163-1.422
				c-0.196,0.141-0.504,0.583-0.615,0.73c-0.28,0.365-0.563,0.728-0.914,1.033c-0.316,0.275-0.716,0.455-1.146,0.436
				c-0.388-0.02-0.75-0.2-0.983-0.502c-0.152-0.197-0.236-0.406-0.264-0.62c-0.173,0.126-0.376,0.22-0.62,0.249
				c-0.383,0.043-0.758-0.078-1.04-0.333c-0.322-0.287-0.478-0.693-0.51-1.104c-0.033-0.479,0.027-0.947,0.09-1.412
				c0.028-0.174,0.122-0.703,0.087-0.95c-0.352,0.081-0.763,0.88-0.899,1.117c-0.35,0.591-0.714,1.214-1.276,1.629
				c-1.316,0.998-3.081-0.762-2.075-2.085c0.418-0.556,1.047-0.921,1.641-1.26c0.229-0.141,1.038-0.544,1.12-0.89
				c-0.244-0.038-0.781,0.059-0.95,0.08c-0.46,0.059-0.914,0.119-1.38,0.088c-0.414-0.026-0.832-0.191-1.118-0.501
				c-0.259-0.292-0.388-0.676-0.342-1.06c0.035-0.238,0.125-0.447,0.252-0.616c-0.208-0.029-0.414-0.114-0.61-0.264
				c-0.309-0.24-0.486-0.598-0.502-0.987c-0.022-0.433,0.155-0.832,0.439-1.148c0.306-0.345,0.676-0.627,1.039-0.907
				c0.15-0.111,0.586-0.412,0.731-0.613c-0.305-0.181-1.167,0.092-1.421,0.159c-0.663,0.173-1.359,0.361-2.057,0.262
				c-1.638-0.236-1.629-2.722,0.01-2.949c0.693-0.093,1.391,0.092,2.055,0.268c0.25,0.064,1.117,0.35,1.422,0.16
				c-0.147-0.202-0.592-0.511-0.727-0.617c-0.374-0.288-0.754-0.578-1.065-0.941c-0.272-0.317-0.438-0.715-0.413-1.136
				c0.023-0.375,0.205-0.736,0.506-0.974c0.198-0.146,0.402-0.231,0.617-0.259c-0.132-0.169-0.216-0.378-0.254-0.621
				c-0.041-0.387,0.089-0.769,0.349-1.056c0.288-0.312,0.705-0.47,1.12-0.497c0.461-0.033,0.922,0.034,1.375,0.096
				c0.175,0.02,0.711,0.119,0.949,0.083c-0.08-0.348-0.888-0.763-1.113-0.894c-0.591-0.348-1.214-0.714-1.638-1.272
				c-0.992-1.32,0.777-3.076,2.094-2.076c0.556,0.419,0.917,1.046,1.258,1.639c0.134,0.224,0.548,1.039,0.892,1.122
				c0.044-0.246-0.055-0.777-0.076-0.95c-0.057-0.47-0.12-0.941-0.086-1.418c0.036-0.41,0.199-0.813,0.509-1.095
				c0.284-0.258,0.666-0.379,1.046-0.332c0.242,0.031,0.454,0.121,0.622,0.25c0.032-0.21,0.111-0.419,0.264-0.614
				c0.237-0.305,0.604-0.483,0.992-0.502c0.422-0.021,0.833,0.163,1.141,0.445c0.344,0.302,0.625,0.67,0.904,1.036
				c0.108,0.135,0.418,0.581,0.615,0.729c0.185-0.307-0.091-1.166-0.155-1.415c-0.178-0.668-0.359-1.366-0.262-2.055
				c0.236-1.642,2.718-1.634,2.95,0.006c0.095,0.692-0.092,1.387-0.269,2.051c-0.064,0.255-0.348,1.117-0.163,1.424
				c0.202-0.141,0.505-0.579,0.617-0.729c0.286-0.375,0.58-0.75,0.938-1.064c0.318-0.265,0.713-0.433,1.141-0.41
				c0.378,0.021,0.735,0.203,0.972,0.502C72.433,55.128,72.516,55.337,72.543,55.548L72.543,55.548z M63.151,56.867
				c-0.036,0.612-0.213,1.19-0.391,1.77c-0.181,0.574-0.445,1.359-0.26,1.953c0.265,0.83,1.206,1.482,1.877,1.971
				c0.325,0.231,0.71,0.458,1.053,0.673c0.141,0.084,0.292,0.182,0.448,0.278c0.039-0.185,0.079-0.367,0.119-0.53
				c0.096-0.387,0.214-0.822,0.275-1.218c0.133-0.816,0.342-1.94-0.044-2.711c-0.287-0.553-1.032-0.923-1.557-1.203
				C64.134,57.559,63.605,57.275,63.151,56.867L63.151,56.867z M56.89,63.105c0.404,0.458,0.683,0.987,0.972,1.528
				c0.281,0.53,0.647,1.277,1.199,1.563c0.771,0.402,1.894,0.196,2.715,0.065c0.396-0.06,0.832-0.175,1.217-0.267
				c0.167-0.04,0.341-0.074,0.52-0.117c-0.099-0.166-0.198-0.319-0.288-0.464c-0.209-0.337-0.43-0.733-0.667-1.054
				c-0.482-0.672-1.131-1.616-1.955-1.883c-0.59-0.188-1.377,0.074-1.948,0.248C58.072,62.896,57.497,63.074,56.89,63.105
				L56.89,63.105z M56.866,71.944c0.61,0.038,1.188,0.215,1.769,0.392c0.571,0.173,1.358,0.441,1.948,0.25
				c0.827-0.263,1.478-1.2,1.964-1.874c0.238-0.317,0.463-0.712,0.67-1.05c0.083-0.146,0.182-0.289,0.276-0.447
				c-0.175-0.043-0.342-0.081-0.509-0.12c-0.391-0.096-0.824-0.213-1.22-0.277c-0.816-0.13-1.942-0.341-2.708,0.059
				c-0.552,0.28-0.926,1.024-1.211,1.547C57.564,70.964,57.275,71.492,56.866,71.944L56.866,71.944z M63.108,78.209
				c0.453-0.404,0.983-0.69,1.519-0.974c0.529-0.275,1.274-0.646,1.559-1.198c0.403-0.768,0.191-1.896,0.064-2.713
				c-0.063-0.395-0.173-0.83-0.271-1.22c-0.041-0.163-0.077-0.343-0.122-0.53c-0.156,0.098-0.306,0.192-0.451,0.281
				c-0.338,0.212-0.727,0.433-1.05,0.668c-0.679,0.484-1.618,1.133-1.885,1.962c-0.192,0.592,0.076,1.381,0.253,1.952
				C62.898,77.017,63.072,77.6,63.108,78.209L63.108,78.209z M71.947,78.23c0.033-0.615,0.212-1.188,0.387-1.767
				c0.176-0.573,0.44-1.359,0.253-1.953c-0.261-0.824-1.2-1.47-1.872-1.962c-0.325-0.24-0.712-0.461-1.056-0.67
				c-0.15-0.096-0.305-0.192-0.458-0.28c-0.042,0.172-0.081,0.347-0.122,0.506c-0.087,0.393-0.209,0.823-0.268,1.218
				c-0.135,0.816-0.347,1.944,0.054,2.719c0.284,0.556,1.03,0.924,1.555,1.207C70.959,77.536,71.489,77.819,71.947,78.23
				L71.947,78.23z M78.209,71.99c-0.408-0.458-0.691-0.987-0.975-1.521c-0.282-0.527-0.645-1.275-1.2-1.561
				c-0.769-0.398-1.891-0.191-2.709-0.067c-0.394,0.065-0.834,0.183-1.22,0.274c-0.162,0.037-0.349,0.077-0.53,0.122
				c0.095,0.152,0.193,0.305,0.284,0.449c0.205,0.339,0.428,0.729,0.663,1.052c0.491,0.676,1.135,1.621,1.962,1.885
				c0.593,0.187,1.382-0.072,1.956-0.249C77.021,72.199,77.598,72.019,78.209,71.99L78.209,71.99z M78.225,63.154
				c-0.615-0.039-1.191-0.219-1.763-0.391c-0.575-0.178-1.365-0.448-1.959-0.262c-0.828,0.264-1.476,1.206-1.966,1.879
				c-0.235,0.323-0.462,0.71-0.672,1.05c-0.095,0.15-0.188,0.302-0.282,0.457c0.177,0.043,0.352,0.086,0.524,0.13
				c0.391,0.09,0.819,0.206,1.214,0.271c0.822,0.134,1.949,0.341,2.722-0.058c0.553-0.286,0.924-1.03,1.202-1.556
				C77.53,64.139,77.818,63.612,78.225,63.154L78.225,63.154z M69.222,63.514c0.158-0.101,0.32-0.199,0.459-0.286
				c0.339-0.21,0.733-0.436,1.057-0.668c0.67-0.487,1.614-1.129,1.876-1.959c0.193-0.588-0.071-1.374-0.243-1.95
				c-0.172-0.577-0.348-1.154-0.376-1.764c-0.459,0.408-0.993,0.689-1.53,0.977c-0.529,0.277-1.273,0.643-1.566,1.196
				c-0.401,0.772-0.193,1.898-0.067,2.719c0.063,0.394,0.176,0.828,0.268,1.216C69.139,63.158,69.177,63.335,69.222,63.514
				L69.222,63.514z M68.545,64.492c-0.13-0.393-0.232-0.876-0.326-1.285c-0.099-0.417-0.222-0.871-0.28-1.291
				c-0.167-1.063-0.368-2.267,0.155-3.275c0.402-0.772,1.208-1.196,1.945-1.585c0.467-0.244,0.958-0.499,1.352-0.851
				c0.203-0.175,0.361-0.473,0.173-0.712c-0.072-0.095-0.187-0.154-0.305-0.16c-0.185-0.007-0.359,0.089-0.5,0.202
				c-0.307,0.264-0.56,0.604-0.807,0.926c-0.382,0.495-1.072,1.515-1.813,0.974c-0.788-0.581-0.442-1.676-0.241-2.454
				c0.14-0.52,0.321-1.162,0.246-1.697c-0.083-0.603-1.063-0.616-1.147-0.006c-0.076,0.536,0.104,1.178,0.24,1.703
				c0.198,0.773,0.536,1.867-0.244,2.443c-0.75,0.542-1.434-0.483-1.808-0.978c-0.245-0.313-0.494-0.652-0.79-0.913
				c-0.134-0.119-0.32-0.223-0.505-0.215c-0.122,0.006-0.238,0.061-0.31,0.158c-0.192,0.242-0.019,0.538,0.172,0.716
				c0.396,0.35,0.888,0.61,1.343,0.854c0.734,0.394,1.536,0.819,1.933,1.594c0.515,1.003,0.317,2.208,0.142,3.271
				c-0.069,0.419-0.189,0.876-0.291,1.288c-0.099,0.411-0.206,0.92-0.35,1.304l-0.115,0.339L66.1,64.686
				c-0.376-0.189-0.788-0.461-1.149-0.683c-0.363-0.225-0.769-0.462-1.111-0.714c-0.868-0.633-1.859-1.345-2.207-2.426
				c-0.261-0.833,0.012-1.698,0.263-2.492c0.155-0.507,0.317-1.031,0.349-1.566c0.019-0.259-0.074-0.583-0.379-0.625
				c-0.122-0.012-0.238,0.028-0.33,0.108c-0.138,0.122-0.194,0.317-0.21,0.492c-0.031,0.404,0.031,0.828,0.081,1.224
				c0.081,0.623,0.321,1.833-0.592,1.968c-0.964,0.155-1.496-0.869-1.904-1.561c-0.27-0.464-0.595-1.046-1.027-1.374
				c-0.485-0.368-1.182,0.318-0.817,0.808c0.329,0.436,0.906,0.762,1.375,1.036c0.689,0.401,1.707,0.939,1.557,1.903
				c-0.143,0.91-1.353,0.672-1.973,0.585c-0.393-0.052-0.802-0.111-1.199-0.087c-0.181,0.012-0.385,0.068-0.511,0.205
				c-0.084,0.092-0.127,0.206-0.108,0.332c0.035,0.305,0.362,0.394,0.631,0.385c0.523-0.031,1.051-0.196,1.56-0.347
				c0.797-0.242,1.657-0.51,2.49-0.24c1.072,0.344,1.778,1.343,2.408,2.214c0.249,0.345,0.486,0.75,0.706,1.114
				c0.216,0.358,0.505,0.797,0.682,1.174l0.151,0.315l-0.331,0.114c-0.402,0.132-0.885,0.234-1.292,0.332
				c-0.417,0.097-0.874,0.215-1.289,0.279c-1.069,0.167-2.274,0.366-3.278-0.159c-0.772-0.398-1.195-1.206-1.581-1.941
				c-0.252-0.467-0.504-0.959-0.861-1.356c-0.173-0.199-0.464-0.36-0.709-0.173c-0.094,0.077-0.149,0.188-0.159,0.307
				c-0.01,0.184,0.091,0.363,0.2,0.5c0.264,0.304,0.611,0.563,0.927,0.809c0.494,0.381,1.517,1.07,0.966,1.811
				c-0.574,0.785-1.669,0.443-2.438,0.237c-0.53-0.14-1.17-0.316-1.71-0.243c-0.599,0.08-0.611,1.061-0.003,1.151
				c0.543,0.077,1.183-0.105,1.699-0.239c0.777-0.203,1.873-0.543,2.448,0.243c0.539,0.746-0.485,1.428-0.977,1.806
				c-0.318,0.241-0.646,0.49-0.911,0.788c-0.12,0.137-0.224,0.317-0.215,0.507c0.004,0.122,0.056,0.231,0.153,0.31
				c0.242,0.191,0.537,0.022,0.713-0.176c0.358-0.389,0.615-0.877,0.86-1.341c0.393-0.738,0.823-1.536,1.595-1.933
				c1-0.519,2.204-0.314,3.27-0.144c0.416,0.069,0.873,0.188,1.29,0.293c0.414,0.098,0.882,0.201,1.286,0.338l0.343,0.115
				l-0.168,0.32c-0.188,0.38-0.45,0.783-0.672,1.148c-0.223,0.362-0.459,0.768-0.706,1.111c-0.639,0.873-1.349,1.864-2.427,2.201
				c-0.829,0.267-1.692-0.002-2.489-0.251c-0.505-0.152-1.029-0.317-1.558-0.348c-0.265-0.016-0.59,0.076-0.629,0.382
				c-0.02,0.117,0.025,0.24,0.106,0.327c0.126,0.137,0.328,0.193,0.513,0.209c0.394,0.024,0.804-0.034,1.2-0.081
				c0.616-0.085,1.825-0.321,1.968,0.596c0.146,0.962-0.878,1.49-1.567,1.893c-0.468,0.27-1.048,0.594-1.372,1.025
				c-0.372,0.488,0.332,1.182,0.808,0.817c0.435-0.327,0.764-0.906,1.036-1.369c0.405-0.693,0.943-1.711,1.906-1.559
				c0.915,0.146,0.673,1.354,0.588,1.972c-0.053,0.396-0.117,0.824-0.087,1.226c0.013,0.175,0.071,0.369,0.21,0.492
				c0.087,0.082,0.208,0.121,0.327,0.108c0.306-0.037,0.4-0.358,0.383-0.626c-0.024-0.53-0.193-1.058-0.348-1.565
				c-0.237-0.793-0.51-1.658-0.243-2.493c0.347-1.075,1.342-1.783,2.214-2.421c0.342-0.246,0.751-0.48,1.114-0.702
				c0.366-0.223,0.771-0.489,1.152-0.675l0.315-0.155l0.118,0.332c0.141,0.389,0.241,0.904,0.336,1.306
				c0.103,0.418,0.223,0.876,0.286,1.295c0.171,1.063,0.366,2.268-0.152,3.266c-0.398,0.772-1.203,1.196-1.941,1.587
				c-0.463,0.246-0.953,0.501-1.345,0.855c-0.195,0.173-0.365,0.47-0.178,0.707c0.075,0.099,0.189,0.153,0.313,0.163
				c0.184,0.006,0.368-0.099,0.506-0.214c0.296-0.264,0.548-0.591,0.788-0.911c0.384-0.49,1.068-1.513,1.813-0.968
				c0.785,0.576,0.44,1.672,0.232,2.445c-0.133,0.524-0.317,1.167-0.243,1.702c0.086,0.606,1.06,0.602,1.147-0.001
				c0.08-0.535-0.096-1.18-0.232-1.701c-0.203-0.776-0.543-1.875,0.249-2.45c0.741-0.542,1.43,0.489,1.803,0.981
				c0.245,0.315,0.502,0.665,0.811,0.929c0.133,0.116,0.308,0.209,0.489,0.2c0.124-0.006,0.24-0.058,0.313-0.154
				c0.188-0.244,0.027-0.534-0.172-0.715c-0.392-0.354-0.885-0.608-1.348-0.858c-0.737-0.396-1.539-0.822-1.938-1.591
				c-0.517-1.009-0.316-2.211-0.146-3.281c0.067-0.417,0.189-0.872,0.289-1.28c0.099-0.417,0.199-0.895,0.334-1.298l0.114-0.332
				l0.32,0.154c0.376,0.178,0.812,0.464,1.17,0.689c0.362,0.219,0.767,0.456,1.107,0.705c0.871,0.636,1.862,1.347,2.208,2.424
				c0.264,0.832-0.007,1.691-0.254,2.488c-0.155,0.504-0.318,1.031-0.344,1.561c-0.019,0.261,0.072,0.588,0.378,0.63
				c0.12,0.015,0.236-0.033,0.329-0.113c0.139-0.126,0.192-0.327,0.205-0.507c0.027-0.394-0.038-0.809-0.079-1.2
				c-0.081-0.623-0.317-1.828,0.596-1.965c0.96-0.149,1.491,0.87,1.891,1.561c0.269,0.464,0.6,1.048,1.028,1.38
				c0.492,0.369,1.185-0.328,0.817-0.818c-0.328-0.434-0.913-0.762-1.372-1.032c-0.69-0.406-1.709-0.944-1.55-1.907
				c0.138-0.911,1.347-0.67,1.969-0.586c0.392,0.052,0.823,0.117,1.224,0.088c0.178-0.015,0.37-0.071,0.493-0.212
				c0.079-0.088,0.122-0.204,0.108-0.324c-0.041-0.311-0.362-0.4-0.631-0.386c-0.527,0.028-1.054,0.192-1.558,0.349
				c-0.801,0.241-1.666,0.511-2.492,0.244c-1.079-0.344-1.793-1.343-2.424-2.22c-0.246-0.339-0.483-0.747-0.705-1.111
				c-0.22-0.355-0.49-0.772-0.676-1.146l-0.156-0.32l0.336-0.117c0.39-0.139,0.897-0.245,1.307-0.344
				c0.414-0.098,0.873-0.218,1.293-0.28c1.067-0.169,2.268-0.367,3.269,0.151c0.772,0.404,1.195,1.206,1.582,1.941
				c0.242,0.46,0.505,0.953,0.856,1.349c0.176,0.194,0.473,0.364,0.711,0.177c0.098-0.079,0.152-0.19,0.161-0.309
				c0.006-0.19-0.096-0.373-0.216-0.513c-0.258-0.295-0.597-0.548-0.907-0.787c-0.498-0.381-1.517-1.071-0.972-1.812
				c0.583-0.782,1.676-0.436,2.449-0.236c0.52,0.14,1.162,0.319,1.702,0.249c0.607-0.086,0.602-1.065-0.001-1.151
				c-0.538-0.074-1.181,0.1-1.7,0.234c-0.777,0.202-1.874,0.542-2.454-0.248c-0.542-0.742,0.484-1.427,0.979-1.809
				c0.322-0.24,0.669-0.498,0.931-0.799c0.117-0.141,0.215-0.317,0.203-0.5c-0.007-0.125-0.06-0.231-0.155-0.308
				c-0.243-0.189-0.538-0.03-0.717,0.17c-0.355,0.396-0.607,0.885-0.86,1.347c-0.394,0.736-0.813,1.544-1.587,1.939
				c-1.005,0.519-2.21,0.311-3.278,0.146c-0.425-0.074-0.873-0.189-1.288-0.29c-0.273-0.065-0.538-0.13-0.809-0.2
				c-0.162-0.043-0.35-0.089-0.506-0.142l-0.324-0.123l0.151-0.302c0.066-0.154,0.174-0.314,0.254-0.461
				c0.143-0.24,0.287-0.476,0.436-0.714c0.225-0.363,0.461-0.768,0.711-1.108c0.638-0.873,1.349-1.865,2.429-2.2
				c0.83-0.267,1.697,0.001,2.491,0.252c0.507,0.154,1.04,0.321,1.562,0.35c0.268,0.015,0.591-0.076,0.631-0.379
				c0.012-0.12-0.025-0.242-0.106-0.33c-0.123-0.136-0.314-0.192-0.497-0.211c-0.399-0.031-0.827,0.033-1.222,0.086
				c-0.623,0.077-1.83,0.317-1.968-0.597c-0.153-0.963,0.871-1.497,1.565-1.896c0.463-0.274,1.04-0.597,1.371-1.031
				c0.365-0.486-0.321-1.186-0.811-0.816c-0.433,0.326-0.764,0.902-1.037,1.371c-0.404,0.689-0.937,1.708-1.902,1.556
				c-0.913-0.145-0.67-1.352-0.583-1.969c0.052-0.391,0.111-0.806,0.089-1.199c-0.012-0.184-0.068-0.384-0.208-0.511
				c-0.091-0.083-0.206-0.123-0.331-0.113c-0.302,0.04-0.395,0.371-0.383,0.63c0.032,0.53,0.194,1.057,0.344,1.559
				c0.242,0.795,0.511,1.666,0.243,2.495c-0.345,1.07-1.341,1.778-2.215,2.409c-0.344,0.249-0.751,0.485-1.117,0.711
				c-0.356,0.211-0.794,0.5-1.167,0.674l-0.319,0.152L68.545,64.492z"/>
			<path fill-rule="evenodd" clip-rule="evenodd" fill="#F3C983" d="M64.211,59.449c-0.015,0.063-0.038,0.123-0.055,0.187
				c-0.065,0.208-0.307,0.945-0.239,1.16c0.134,0.434,0.99,1.02,1.337,1.273c0.013,0.009,0.027,0.019,0.043,0.029
				c0.004-0.016,0.007-0.043,0.017-0.059c0.063-0.431,0.258-1.443,0.055-1.845c-0.108-0.2-0.794-0.551-0.987-0.655
				C64.323,59.506,64.268,59.478,64.211,59.449L64.211,59.449z M62.1,65.285c-0.007-0.015-0.021-0.033-0.032-0.047
				c-0.256-0.355-0.832-1.207-1.265-1.35c-0.214-0.066-0.952,0.173-1.162,0.236c-0.062,0.018-0.116,0.039-0.181,0.053
				c0.033,0.059,0.063,0.116,0.096,0.176c0.099,0.19,0.448,0.883,0.65,0.991c0.402,0.209,1.414,0.017,1.845-0.05
				C62.069,65.291,62.086,65.288,62.1,65.285L62.1,65.285z M62.087,69.795c-0.015-0.002-0.033-0.006-0.047-0.009
				c-0.43-0.067-1.442-0.261-1.849-0.058c-0.197,0.106-0.543,0.782-0.648,0.988c-0.037,0.053-0.065,0.11-0.09,0.166
				c0.054,0.018,0.118,0.036,0.182,0.058c0.203,0.059,0.94,0.301,1.156,0.235c0.431-0.137,1.005-0.982,1.266-1.34
				C62.071,69.825,62.077,69.81,62.087,69.795L62.087,69.795z M64.181,75.632c0.052-0.033,0.108-0.059,0.167-0.089
				c0.202-0.11,0.881-0.454,0.986-0.652c0.208-0.401,0.015-1.417-0.047-1.842c-0.004-0.021-0.007-0.042-0.014-0.064
				c-0.015,0.01-0.024,0.019-0.042,0.031c-0.359,0.261-1.206,0.837-1.343,1.267c-0.071,0.219,0.169,0.951,0.233,1.163
				C64.142,75.512,64.159,75.571,64.181,75.632L64.181,75.632z M70.88,75.645c0.021-0.059,0.039-0.121,0.056-0.182
				c0.065-0.206,0.308-0.944,0.243-1.156c-0.141-0.43-0.988-1.012-1.341-1.27c-0.018-0.012-0.037-0.024-0.055-0.037
				c-0.004,0.018-0.003,0.032-0.009,0.05c-0.068,0.429-0.261,1.446-0.059,1.846c0.109,0.204,0.801,0.556,0.993,0.659
				C70.77,75.586,70.827,75.616,70.88,75.645L70.88,75.645z M72.984,69.822c0.014,0.017,0.02,0.028,0.034,0.043
				c0.254,0.353,0.835,1.205,1.265,1.346c0.218,0.068,0.954-0.177,1.167-0.237c0.059-0.022,0.125-0.037,0.182-0.057
				c-0.029-0.056-0.062-0.109-0.09-0.164c-0.099-0.197-0.447-0.886-0.651-0.993c-0.397-0.204-1.41-0.016-1.839,0.051
				C73.027,69.813,73.009,69.816,72.984,69.822L72.984,69.822z M75.647,64.212c-0.061-0.018-0.124-0.043-0.188-0.055
				c-0.212-0.065-0.946-0.309-1.163-0.242c-0.431,0.136-1.012,0.981-1.274,1.338c-0.01,0.021-0.024,0.036-0.034,0.052
				c0.02,0.005,0.043,0.014,0.061,0.015c0.431,0.068,1.448,0.262,1.85,0.056c0.204-0.105,0.541-0.788,0.654-0.994
				C75.59,64.329,75.618,64.27,75.647,64.212L75.647,64.212z M70.913,59.46c-0.053,0.032-0.108,0.068-0.169,0.095
				c-0.205,0.109-0.885,0.452-0.99,0.653c-0.21,0.398-0.025,1.415,0.044,1.843c0.002,0.018,0.006,0.036,0.012,0.054
				c0.012-0.012,0.034-0.025,0.047-0.04c0.359-0.256,1.209-0.831,1.349-1.257c0.068-0.219-0.169-0.956-0.236-1.163
				C70.953,59.583,70.935,59.526,70.913,59.46z"/>
			<path fill-rule="evenodd" clip-rule="evenodd" fill="#F3C983" d="M67.547,64.645c-0.054,0.21-0.107,0.418-0.179,0.603
				l-0.369,1.028l-0.982-0.484c-0.17-0.086-0.348-0.188-0.522-0.296c0.113,0.188,0.219,0.378,0.299,0.551l0.468,0.994l-1.042,0.345
				c-0.177,0.065-0.38,0.114-0.575,0.163c0.192,0.049,0.386,0.102,0.562,0.162l1.074,0.364l-0.506,1.003
				c-0.087,0.168-0.187,0.34-0.292,0.514c0.18-0.103,0.355-0.211,0.525-0.295l0.985-0.484l0.372,1.037
				c0.065,0.183,0.121,0.392,0.17,0.6c0.046-0.199,0.102-0.393,0.165-0.574l0.351-1.039l0.992,0.468
				c0.174,0.086,0.361,0.191,0.547,0.304c-0.105-0.174-0.208-0.352-0.291-0.523l-0.486-0.984l1.037-0.366
				c0.182-0.068,0.389-0.125,0.599-0.172c-0.221-0.056-0.432-0.115-0.616-0.179l-0.987-0.369l0.441-0.959
				c0.082-0.173,0.194-0.371,0.307-0.562c-0.182,0.113-0.366,0.221-0.543,0.299l-0.99,0.468l-0.348-1.037
				C67.649,65.042,67.6,64.846,67.547,64.645L67.547,64.645z M67.545,66.5c0.017,0.07,0.034,0.146,0.057,0.208l0.127,0.375
				l0.36-0.166c0.064-0.033,0.132-0.068,0.193-0.108c-0.037,0.068-0.08,0.139-0.11,0.198l-0.157,0.35l0.356,0.134
				c0.066,0.019,0.147,0.047,0.224,0.063c-0.076,0.02-0.153,0.04-0.213,0.064l-0.38,0.13l0.178,0.358
				c0.034,0.061,0.064,0.129,0.105,0.189c-0.064-0.035-0.133-0.077-0.201-0.109l-0.361-0.17L67.6,68.394
				c-0.025,0.062-0.042,0.135-0.057,0.205c-0.02-0.077-0.045-0.151-0.067-0.218l-0.133-0.371l-0.353,0.178
				c-0.06,0.027-0.13,0.065-0.194,0.102c0.037-0.065,0.076-0.127,0.104-0.187l0.185-0.365l-0.384-0.133
				c-0.066-0.016-0.136-0.037-0.206-0.056c0.072-0.015,0.14-0.037,0.209-0.056l0.373-0.13l-0.168-0.359
				c-0.027-0.062-0.068-0.132-0.106-0.195c0.062,0.032,0.128,0.074,0.188,0.106l0.355,0.175l0.139-0.371
				C67.51,66.651,67.523,66.574,67.545,66.5z"/>
		</g>
	</g>
</g>
</svg>
