<?xml version="1.0" encoding="utf-8"?>
<!-- Generator: Adobe Illustrator 19.1.0, SVG Export Plug-In . SVG Version: 6.00 Build 0)  -->
<svg version="1.1" id="Layer_1" xmlns="http://www.w3.org/2000/svg" xmlns:xlink="http://www.w3.org/1999/xlink" x="0px" y="0px"
	 viewBox="0 0 16.3 14.3" style="enable-background:new 0 0 16.3 14.3;" xml:space="preserve">
<style type="text/css">
	.st0{clip-path:url(#SVGID_2_);}
	.st1{clip-path:url(#SVGID_4_);fill:#ffffff;}
	.st2{clip-path:url(#SVGID_6_);}
	.st3{clip-path:url(#SVGID_8_);fill:#ffffff;}
	.st4{clip-path:url(#SVGID_10_);}
	.st5{clip-path:url(#SVGID_12_);fill:#ffffff;}
</style>
<g>
	<g>
		<defs>
			<path id="SVGID_1_" d="M2.3,8.3c-0.6,0-1-0.4-1-1c0-0.6,0.4-1,1-1h13c0.6,0,1,0.4,1,1c0,0.6-0.4,1-1,1H2.3z"/>
		</defs>
		<clipPath id="SVGID_2_">
			<use xlink:href="#SVGID_1_"  style="overflow:visible;"/>
		</clipPath>
		<g class="st0">
			<defs>
				<rect id="SVGID_3_" x="-18.2" y="-83.3" width="320" height="568"/>
			</defs>
			<clipPath id="SVGID_4_">
				<use xlink:href="#SVGID_3_"  style="overflow:visible;"/>
			</clipPath>
			<rect x="-3.7" y="1.3" class="st1" width="25" height="12"/>
		</g>
	</g>
</g>
<g>
	<g>
		<defs>
			<path id="SVGID_5_" d="M2.1,8c-0.4,0.4-1,0.4-1.4,0c-0.4-0.4-0.4-1,0-1.4l5.7-5.7c0.4-0.4,1-0.4,1.4,0c0.4,0.4,0.4,1,0,1.4L2.1,8
				z"/>
		</defs>
		<clipPath id="SVGID_6_">
			<use xlink:href="#SVGID_5_"  style="overflow:visible;"/>
		</clipPath>
		<g class="st2">
			<defs>
				<rect id="SVGID_7_" x="-18.2" y="-83.3" width="320" height="568"/>
			</defs>
			<clipPath id="SVGID_8_">
				<use xlink:href="#SVGID_7_"  style="overflow:visible;"/>
			</clipPath>
			<rect x="-1.8" y="-5.6" transform="matrix(0.7071 0.7071 -0.7071 0.7071 4.363 -1.6898)" class="st3" width="12" height="20"/>
		</g>
	</g>
</g>
<g>
	<g>
		<defs>
			<path id="SVGID_9_" d="M7.8,12.2c0.4,0.4,0.4,1,0,1.4c-0.4,0.4-1,0.4-1.4,0L0.7,8c-0.4-0.4-0.4-1,0-1.4c0.4-0.4,1-0.4,1.4,0
				L7.8,12.2z"/>
		</defs>
		<clipPath id="SVGID_10_">
			<use xlink:href="#SVGID_9_"  style="overflow:visible;"/>
		</clipPath>
		<g class="st4">
			<defs>
				<rect id="SVGID_11_" x="-18.2" y="-83.3" width="320" height="568"/>
			</defs>
			<clipPath id="SVGID_12_">
				<use xlink:href="#SVGID_11_"  style="overflow:visible;"/>
			</clipPath>
			<rect x="-1.8" y="0.1" transform="matrix(0.7071 -0.7071 0.7071 0.7071 -5.8901 5.9367)" class="st5" width="12" height="20"/>
		</g>
	</g>
</g>
</svg>
