<?xml version="1.0" encoding="utf-8"?>
<!-- Generator: Adobe Illustrator 17.0.0, SVG Export Plug-In . SVG Version: 6.00 Build 0)  -->
<!DOCTYPE svg PUBLIC "-//W3C//DTD SVG 1.1//EN" "http://www.w3.org/Graphics/SVG/1.1/DTD/svg11.dtd">
<svg version="1.1" id="Слой_1" xmlns="http://www.w3.org/2000/svg" xmlns:xlink="http://www.w3.org/1999/xlink" x="0px" y="0px"
	 width="136.04px" height="136.471px" viewBox="0 0 136.04 136.471" enable-background="new 0 0 136.04 136.471"
	 xml:space="preserve">
<g>
	<polygon fill-rule="evenodd" clip-rule="evenodd" fill="#AD8766" points="113.015,110.258 82.36,99.111 70.231,129.39 
		56.438,99.827 26.449,112.665 37.598,82.01 7.315,69.88 36.876,56.089 24.039,26.099 54.698,37.249 66.825,6.965 80.618,36.529 
		110.607,23.692 99.459,54.348 129.742,66.477 100.179,80.269 	"/>
	<g>
		<defs>
			<polygon id="SVGID_1_" points="113.015,110.258 82.36,99.111 70.231,129.39 56.438,99.827 26.449,112.665 37.598,82.01 
				7.315,69.88 36.876,56.089 24.039,26.099 54.698,37.249 66.825,6.965 80.618,36.529 110.607,23.692 99.459,54.348 
				129.742,66.477 100.179,80.269 			"/>
		</defs>
		<clipPath id="SVGID_2_">
			<use xlink:href="#SVGID_1_"  overflow="visible"/>
		</clipPath>
		<polygon clip-path="url(#SVGID_2_)" fill-rule="evenodd" clip-rule="evenodd" fill="#81644E" points="110.498,23.396 
			68.529,68.179 101.524,53.917 		"/>
		<polygon clip-path="url(#SVGID_2_)" fill-rule="evenodd" clip-rule="evenodd" fill="#81644E" points="68.529,68.179 
			130.35,66.477 100.101,80.399 		"/>
		<polygon clip-path="url(#SVGID_2_)" fill-rule="evenodd" clip-rule="evenodd" fill="#81644E" points="112.953,110.057 
			68.812,68.91 82.167,100.442 		"/>
		<path clip-path="url(#SVGID_2_)" fill-rule="evenodd" clip-rule="evenodd" fill="#81644E" d="M68.529,68.179
			c-0.318,0.719,1.7,61.606,1.7,61.606l-14.469-28.97L68.529,68.179z"/>
		<polygon clip-path="url(#SVGID_2_)" fill-rule="evenodd" clip-rule="evenodd" fill="#81644E" points="25.792,113.387 
			68.529,68.179 36.726,82.35 		"/>
		<polygon clip-path="url(#SVGID_2_)" fill-rule="evenodd" clip-rule="evenodd" fill="#81644E" points="6.686,69.88 68.529,68.179 
			35.899,55.407 		"/>
		<polygon clip-path="url(#SVGID_2_)" fill-rule="evenodd" clip-rule="evenodd" fill="#81644E" points="24.637,26.693 
			68.529,68.179 53.623,35.821 		"/>
		<polygon clip-path="url(#SVGID_2_)" fill="#81644E" points="66.827,6.111 68.529,68.179 82.183,34.313 		"/>
	</g>
	<polygon fill-rule="evenodd" clip-rule="evenodd" fill="#D24A43" points="33.963,54.84 32.537,51.474 17.65,48.286 31.018,56.2 	
		"/>
	<polygon fill-rule="evenodd" clip-rule="evenodd" fill="#D24A43" points="53.521,34.305 54.888,30.925 46.615,18.139 
		50.477,33.184 	"/>
	<polygon fill-rule="evenodd" clip-rule="evenodd" fill="#D24A43" points="81.868,33.616 85.236,32.188 88.423,17.3 80.507,30.671 	
		"/>
	<polygon fill-rule="evenodd" clip-rule="evenodd" fill="#D24A43" points="102.402,53.171 105.786,54.54 118.571,46.27 
		103.52,50.131 	"/>
	<polygon fill-rule="evenodd" clip-rule="evenodd" fill="#D24A43" points="34.653,83.185 31.272,81.816 18.486,90.089 
		33.537,86.228 	"/>
	<polygon fill-rule="evenodd" clip-rule="evenodd" fill="#D24A43" points="83.533,102.053 82.165,105.437 90.437,118.224 
		86.572,103.171 	"/>
	<polygon fill-rule="evenodd" clip-rule="evenodd" fill="#D24A43" points="103.092,81.519 104.52,84.887 119.406,88.075 
		106.038,80.159 	"/>
	<polygon fill-rule="evenodd" clip-rule="evenodd" fill="#D24A43" points="55.187,102.741 51.821,104.169 48.633,119.058 
		56.548,105.686 	"/>
	<polygon fill-rule="evenodd" clip-rule="evenodd" fill="#B58A58" points="102.878,31.711 97.592,55.105 118.601,66.683 
		98.322,79.493 104.989,102.528 81.599,97.244 70.023,118.25 57.213,97.971 34.177,104.645 39.463,81.256 18.455,69.676 
		38.735,56.864 32.065,33.83 55.456,39.113 67.031,18.105 79.843,38.384 	"/>
	
		<linearGradient id="SVGID_3_" gradientUnits="userSpaceOnUse" x1="51.5192" y1="3.6335" x2="17.0718" y2="78.9487" gradientTransform="matrix(1 2.259642e-004 -2.259642e-004 1 30.5003 35.0533)">
		<stop  offset="0.0066" style="stop-color:#F1C481"/>
		<stop  offset="0.2504" style="stop-color:#EABE7D"/>
		<stop  offset="0.5532" style="stop-color:#DAB173"/>
		<stop  offset="0.886" style="stop-color:#C09D63"/>
		<stop  offset="1" style="stop-color:#B6945D"/>
	</linearGradient>
	<polygon fill-rule="evenodd" clip-rule="evenodd" fill="url(#SVGID_3_)" points="96.937,38.02 97.37,55.208 109.941,66.942 
		98.094,79.405 98.684,96.588 81.498,97.022 69.763,109.591 57.301,97.743 40.118,98.335 39.684,81.15 27.115,69.416 38.963,56.954 
		38.372,39.772 55.557,39.336 67.291,26.768 79.755,38.612 	"/>
	<polygon fill-rule="evenodd" clip-rule="evenodd" fill="#D24A43" points="109.748,24.42 73.578,65.894 128.615,66.384 
		73.705,70.156 112.281,109.398 70.811,73.228 70.319,128.265 66.549,73.356 27.31,111.938 63.479,70.464 8.442,69.976 
		63.35,66.206 24.77,26.965 66.246,63.13 66.732,8.09 70.502,63 	"/>
	<polygon fill-rule="evenodd" clip-rule="evenodd" fill="#B58A58" points="80.86,36.38 83.182,52.84 99.732,54.414 89.737,67.698 
		100.323,80.511 83.868,82.834 82.291,99.382 69.007,89.386 56.196,99.975 53.874,83.518 37.323,81.94 47.32,68.66 36.731,55.847 
		53.189,53.525 54.765,36.974 68.049,46.968 	"/>
	<polygon fill-rule="evenodd" clip-rule="evenodd" fill="#F3C983" points="99.491,54.494 78.127,67.951 100.101,80.399 
		75.472,74.813 82.21,99.146 68.759,77.779 56.307,99.748 61.896,75.122 37.561,81.862 58.929,68.407 36.958,55.954 61.588,61.548 
		54.851,37.213 68.301,58.58 80.749,36.608 75.158,61.236 	"/>
	
		<linearGradient id="SVGID_4_" gradientUnits="userSpaceOnUse" x1="11.1255" y1="51.2463" x2="51.947" y2="23.7396" gradientTransform="matrix(1 2.259642e-004 -2.259642e-004 1 30.5003 35.0533)">
		<stop  offset="0.0066" style="stop-color:#95382C"/>
		<stop  offset="0.0178" style="stop-color:#96392C"/>
		<stop  offset="0.2716" style="stop-color:#AE4037"/>
		<stop  offset="0.5227" style="stop-color:#C1453D"/>
		<stop  offset="0.7678" style="stop-color:#CD4841"/>
		<stop  offset="1" style="stop-color:#D24A43"/>
	</linearGradient>
	<polygon fill-rule="evenodd" clip-rule="evenodd" fill="url(#SVGID_4_)" points="78.073,43.565 82.549,53.503 92.681,57.526 
		88.818,67.719 93.138,77.725 83.202,82.2 79.18,92.331 68.987,88.469 58.982,92.79 54.507,82.854 44.375,78.832 48.238,68.639 
		43.918,58.634 53.852,54.158 57.873,44.026 68.069,47.886 	"/>
	<polygon fill="#F3C983" points="78.073,43.565 77.379,43.874 81.982,54.093 91.705,57.956 88.001,67.734 92.145,77.337 
		82.611,81.633 78.75,91.358 68.969,87.651 59.366,91.798 55.072,82.259 45.349,78.402 49.057,68.62 44.91,59.019 54.444,54.722 
		58.304,44.999 68.087,48.704 78.373,44.26 78.073,43.565 77.379,43.874 78.073,43.565 77.771,42.87 68.049,47.068 57.443,43.052 
		53.261,53.591 42.925,58.25 47.42,68.659 43.402,79.261 53.942,83.444 58.596,93.784 69.006,89.287 79.61,93.304 83.795,82.765 
		94.129,78.11 89.636,67.699 93.654,57.097 83.113,52.91 78.459,42.572 77.771,42.87 	"/>
	<polygon fill-rule="evenodd" clip-rule="evenodd" fill="#A83F34" points="57.247,42.652 68.53,68.175 67.853,46.551 	"/>
	<polygon fill-rule="evenodd" clip-rule="evenodd" fill="#A83F34" points="78.462,42.658 68.53,68.175 83.427,52.595 	"/>
	<polygon fill-rule="evenodd" clip-rule="evenodd" fill="#A83F34" points="68.53,68.175 93.897,56.894 90.002,68.181 	"/>
	<polygon fill-rule="evenodd" clip-rule="evenodd" fill="#A83F34" points="68.53,68.175 94.564,78.243 84.091,83.074 	"/>
	<polygon fill-rule="evenodd" clip-rule="evenodd" fill="#A83F34" points="68.53,68.175 79.79,93.815 68.523,89.379 	"/>
	<polygon fill-rule="evenodd" clip-rule="evenodd" fill="#A83F34" points="68.53,68.175 58.442,93.809 53.611,83.74 	"/>
	<polygon fill-rule="evenodd" clip-rule="evenodd" fill="#A83F34" points="68.53,68.175 43.005,79.439 47.036,68.833 	"/>
	<polygon fill-rule="evenodd" clip-rule="evenodd" fill="#A83F34" points="42.473,58.088 68.53,68.175 52.947,53.258 	"/>
	<polygon fill="#F3C983" points="77.061,46.168 76.819,46.28 80.864,55.262 89.784,58.801 86.384,67.772 90.185,76.577 
		81.442,80.517 77.903,89.433 68.933,86.035 60.127,89.837 56.19,81.094 47.272,77.555 50.671,68.583 46.869,59.776 55.612,55.838 
		59.151,46.921 68.123,50.317 77.167,46.412 77.061,46.168 76.819,46.28 77.061,46.168 76.958,45.926 68.108,49.746 58.851,46.24 
		55.199,55.441 46.175,59.507 50.098,68.595 46.59,77.855 55.793,81.508 59.858,90.532 68.947,86.608 78.202,90.115 81.855,80.912 
		90.881,76.847 86.956,67.758 90.465,58.5 81.262,54.848 77.198,45.82 76.958,45.926 	"/>
	<polygon fill-rule="evenodd" clip-rule="evenodd" fill="#F3C983" points="92.234,43.011 71.433,66.865 103.088,67.145 
		71.508,69.313 93.694,91.886 69.84,71.083 69.56,102.739 67.389,71.155 44.822,93.346 65.624,69.491 33.97,69.21 65.55,67.046 
		43.365,44.473 67.216,65.275 67.496,33.62 69.661,65.2 	"/>
	<polygon fill-rule="evenodd" clip-rule="evenodd" fill="#D24A43" points="69.663,65.249 70.194,66.432 71.401,66.912 
		70.941,68.123 71.455,69.315 70.275,69.846 69.794,71.05 68.583,70.592 67.393,71.107 66.859,69.925 65.656,69.446 66.115,68.233 
		65.6,67.043 66.782,66.512 67.26,65.306 68.473,65.764 	"/>
	<polygon fill-rule="evenodd" clip-rule="evenodd" fill="#F3C983" points="70.448,66.351 69.263,67.893 71.178,68.244 
		69.248,68.498 70.353,70.097 68.812,68.91 68.465,70.825 68.211,68.898 66.61,70.003 67.795,68.463 65.88,68.112 67.811,67.858 
		66.703,66.259 68.245,67.446 68.593,65.532 68.847,67.458 	"/>
	<circle fill-rule="evenodd" clip-rule="evenodd" fill="#94765A" cx="66.827" cy="3.967" r="3.965"/>
	
		<rect x="64.904" y="2.046" transform="matrix(0.7065 0.7077 -0.7077 0.7065 22.4195 -46.1282)" fill-rule="evenodd" clip-rule="evenodd" fill="#F3C983" width="3.845" height="3.843"/>
	<path fill-rule="evenodd" clip-rule="evenodd" fill="#94765A" d="M74.195,132.504c0,2.189-1.778,3.967-3.967,3.967
		c-2.189-0.002-3.965-1.779-3.964-3.97c0.001-2.188,1.777-3.964,3.966-3.963C72.42,128.538,74.195,130.314,74.195,132.504z"/>
	
		<rect x="68.306" y="130.584" transform="matrix(0.7063 0.7079 -0.7079 0.7063 114.4309 -10.7985)" fill-rule="evenodd" clip-rule="evenodd" fill="#F3C983" width="3.846" height="3.842"/>
	<path fill-rule="evenodd" clip-rule="evenodd" fill="#94765A" d="M136.04,66.478c-0.002,2.188-1.776,3.965-3.967,3.966
		c-2.189-0.002-3.964-1.779-3.964-3.968c0.002-2.19,1.776-3.964,3.967-3.966C134.266,62.513,136.042,64.287,136.04,66.478z"/>
	
		<rect x="130.151" y="64.557" transform="matrix(0.7065 0.7077 -0.7077 0.7065 85.8163 -73.9608)" fill-rule="evenodd" clip-rule="evenodd" fill="#F3C983" width="3.845" height="3.842"/>
	<path fill-rule="evenodd" clip-rule="evenodd" fill="#94765A" d="M7.932,69.879c-0.001,2.19-1.777,3.967-3.967,3.968
		c-2.19-0.003-3.965-1.78-3.965-3.97c0.001-2.188,1.777-3.964,3.967-3.964C6.157,65.914,7.932,67.69,7.932,69.879z"/>
	
		<rect x="2.042" y="67.959" transform="matrix(0.7063 0.7079 -0.7079 0.7063 50.634 17.7166)" fill-rule="evenodd" clip-rule="evenodd" fill="#F3C983" width="3.847" height="3.843"/>
	<path fill-rule="evenodd" clip-rule="evenodd" fill="#94765A" d="M117.201,20.593c0.762,2.053-0.282,4.337-2.334,5.104
		c-2.053,0.762-4.337-0.284-5.1-2.337c-0.765-2.052,0.281-4.337,2.333-5.1C114.153,17.496,116.435,18.541,117.201,20.593z"/>
	
		<rect x="111.561" y="20.056" transform="matrix(0.909 0.4168 -0.4168 0.909 19.4882 -45.3012)" fill-rule="evenodd" clip-rule="evenodd" fill="#F3C983" width="3.845" height="3.843"/>
	<path fill-rule="evenodd" clip-rule="evenodd" fill="#94765A" d="M28.107,113.477c0.764,2.05-0.281,4.337-2.334,5.102
		c-2.052,0.763-4.336-0.285-5.1-2.335c-0.764-2.055,0.281-4.338,2.334-5.101C25.059,110.379,27.342,111.422,28.107,113.477z"/>
	
		<rect x="22.467" y="112.939" transform="matrix(0.909 0.4169 -0.4169 0.909 50.1055 0.2893)" fill-rule="evenodd" clip-rule="evenodd" fill="#F3C983" width="3.847" height="3.842"/>
	<circle fill-rule="evenodd" clip-rule="evenodd" fill="#94765A" cx="115.207" cy="112.712" r="3.966"/>
	
		<rect x="113.285" y="110.793" transform="matrix(0.9786 0.2058 -0.2058 0.9786 25.6574 -21.2932)" fill-rule="evenodd" clip-rule="evenodd" fill="#F3C983" width="3.844" height="3.844"/>
	<path fill-rule="evenodd" clip-rule="evenodd" fill="#94765A" d="M25.789,21.203c1.198,1.831,0.681,4.291-1.152,5.49
		c-1.834,1.198-4.29,0.681-5.489-1.154c-1.197-1.832-0.681-4.29,1.151-5.488C22.135,18.853,24.591,19.367,25.789,21.203z"/>
	
		<rect x="20.546" y="21.45" transform="matrix(0.9785 0.2063 -0.2063 0.9785 5.3048 -4.1325)" fill-rule="evenodd" clip-rule="evenodd" fill="#F3C983" width="3.846" height="3.845"/>
</g>
</svg>
