<?xml version="1.0" encoding="utf-8"?>
<!-- Generator: Adobe Illustrator 17.0.0, SVG Export Plug-In . SVG Version: 6.00 Build 0)  -->
<!DOCTYPE svg PUBLIC "-//W3C//DTD SVG 1.1//EN" "http://www.w3.org/Graphics/SVG/1.1/DTD/svg11.dtd">
<svg version="1.1" id="Слой_1" xmlns="http://www.w3.org/2000/svg" xmlns:xlink="http://www.w3.org/1999/xlink" x="0px" y="0px"
	 width="122.476px" height="129.671px" viewBox="0 0 122.476 129.671" enable-background="new 0 0 122.476 129.671"
	 xml:space="preserve">
<g>
	<polygon fill-rule="evenodd" clip-rule="evenodd" fill="#94765A" points="50.309,31.725 61.109,6.641 69.637,26.222 	"/>
	<linearGradient id="SVGID_1_" gradientUnits="userSpaceOnUse" x1="55.25" y1="39.6955" x2="82.9893" y2="39.6955">
		<stop  offset="0" style="stop-color:#9E7E5F"/>
		<stop  offset="1" style="stop-color:#886D53"/>
	</linearGradient>
	<polygon fill-rule="evenodd" clip-rule="evenodd" fill="url(#SVGID_1_)" points="55.25,30.317 82.989,49.074 74.137,36.55 	"/>
	<polygon fill-rule="evenodd" clip-rule="evenodd" fill="#81674F" points="55.25,30.317 69.637,26.222 74.137,36.55 	"/>
	<polygon fill-rule="evenodd" clip-rule="evenodd" fill="#9E7E5F" points="66.199,37.72 29.963,80.912 92.511,54.847 	"/>
	<linearGradient id="SVGID_2_" gradientUnits="userSpaceOnUse" x1="30.3652" y1="42.4236" x2="62.4648" y2="42.4236">
		<stop  offset="0" style="stop-color:#81674F"/>
		<stop  offset="0.204" style="stop-color:#84694F"/>
		<stop  offset="0.4574" style="stop-color:#8B7051"/>
		<stop  offset="0.7358" style="stop-color:#977B55"/>
		<stop  offset="1" style="stop-color:#AA8D5B"/>
	</linearGradient>
	<polygon fill-rule="evenodd" clip-rule="evenodd" fill="url(#SVGID_2_)" points="30.365,29.591 51.488,55.256 62.465,42.171 	"/>
	<polygon fill-rule="evenodd" clip-rule="evenodd" fill="#81674F" points="48.23,36.55 50.309,31.725 62.253,42.423 	"/>
	<linearGradient id="SVGID_3_" gradientUnits="userSpaceOnUse" x1="56.9784" y1="32.6431" x2="50.5458" y2="35.0602">
		<stop  offset="0" style="stop-color:#785E45"/>
		<stop  offset="0.1949" style="stop-color:#6F573F"/>
		<stop  offset="0.5673" style="stop-color:#57442E"/>
		<stop  offset="1" style="stop-color:#3D2C14"/>
	</linearGradient>
	<polygon fill-rule="evenodd" clip-rule="evenodd" fill="url(#SVGID_3_)" points="50.309,31.725 55.25,30.317 55.694,36.55 	"/>
	<polygon fill-rule="evenodd" clip-rule="evenodd" fill="#C49D69" points="55.25,30.317 62.253,42.423 55.694,36.55 	"/>
	<polygon fill-rule="evenodd" clip-rule="evenodd" fill="#705640" points="55.25,30.317 62.253,42.423 66.199,37.72 	"/>
	<polygon fill-rule="evenodd" clip-rule="evenodd" fill="#705640" points="82.432,48.288 87.518,51.596 99.774,36.372 	"/>
	<polygon fill-rule="evenodd" clip-rule="evenodd" fill="#94765A" points="87.518,51.596 92.511,54.847 93.106,44.655 	"/>
	<polygon fill-rule="evenodd" clip-rule="evenodd" fill="#836950" points="93.106,44.655 99.774,36.372 92.511,54.847 	"/>
	<polygon fill-rule="evenodd" clip-rule="evenodd" fill="#836950" points="74.137,36.55 99.774,36.372 104.448,24.485 	"/>
	<polygon fill-rule="evenodd" clip-rule="evenodd" fill="#BF9464" points="82.432,48.288 74.137,36.55 79.67,36.511 	"/>
	<polygon fill-rule="evenodd" clip-rule="evenodd" fill="#927459" points="79.67,36.511 90.967,42.423 82.432,48.288 	"/>
	<polygon fill-rule="evenodd" clip-rule="evenodd" fill="#816248" points="79.67,36.511 90.967,42.423 99.774,36.372 	"/>
	<linearGradient id="SVGID_4_" gradientUnits="userSpaceOnUse" x1="61.7089" y1="65.9915" x2="89.1655" y2="113.5476">
		<stop  offset="0" style="stop-color:#6F5840"/>
		<stop  offset="0.2113" style="stop-color:#7D634B"/>
		<stop  offset="0.4639" style="stop-color:#8A6E53"/>
		<stop  offset="0.7239" style="stop-color:#917458"/>
		<stop  offset="1" style="stop-color:#94765A"/>
	</linearGradient>
	<polygon fill-rule="evenodd" clip-rule="evenodd" fill="url(#SVGID_4_)" points="51.189,72.065 92.511,54.847 61.238,129.671 	"/>
	<polygon fill-rule="evenodd" clip-rule="evenodd" fill="#F3C983" points="52.143,107.939 55.25,95.336 61.238,129.671 	"/>
	<polygon fill-rule="evenodd" clip-rule="evenodd" fill="#94765A" points="52.734,80.912 18.027,111.273 55.25,95.336 	"/>
	<polygon fill-rule="evenodd" clip-rule="evenodd" fill="#71563D" points="51.189,72.065 35.381,96.09 52.734,80.912 	"/>
	<linearGradient id="SVGID_5_" gradientUnits="userSpaceOnUse" x1="38.9601" y1="76.5863" x2="46.5108" y2="89.6645">
		<stop  offset="0" style="stop-color:#D24A43"/>
		<stop  offset="0.233" style="stop-color:#CB4841"/>
		<stop  offset="0.5225" style="stop-color:#BE453C"/>
		<stop  offset="0.8404" style="stop-color:#A83F34"/>
		<stop  offset="1" style="stop-color:#9B3A2F"/>
	</linearGradient>
	<polygon fill-rule="evenodd" clip-rule="evenodd" fill="url(#SVGID_5_)" points="35.381,78.653 35.381,96.09 51.189,72.065 	"/>
	<linearGradient id="SVGID_6_" gradientUnits="userSpaceOnUse" x1="27.543" y1="83.178" x2="36.0215" y2="97.863">
		<stop  offset="0" style="stop-color:#D55C43"/>
		<stop  offset="0.3213" style="stop-color:#D55A43"/>
		<stop  offset="0.7196" style="stop-color:#D35243"/>
		<stop  offset="1" style="stop-color:#D24A43"/>
	</linearGradient>
	<polygon fill-rule="evenodd" clip-rule="evenodd" fill="url(#SVGID_6_)" points="35.381,78.653 28.184,102.388 35.381,96.09 	"/>
	<linearGradient id="SVGID_7_" gradientUnits="userSpaceOnUse" x1="29.4674" y1="81.1977" x2="32.2422" y2="86.0038">
		<stop  offset="0" style="stop-color:#BB443C"/>
		<stop  offset="0.2274" style="stop-color:#B7433A"/>
		<stop  offset="0.5099" style="stop-color:#AA3F35"/>
		<stop  offset="0.8203" style="stop-color:#95382C"/>
		<stop  offset="1" style="stop-color:#873224"/>
	</linearGradient>
	<polygon fill-rule="evenodd" clip-rule="evenodd" fill="url(#SVGID_7_)" points="35.381,78.653 26.705,89.201 29.963,80.912 	"/>
	<linearGradient id="SVGID_8_" gradientUnits="userSpaceOnUse" x1="27.543" y1="83.178" x2="36.0215" y2="97.863">
		<stop  offset="0" style="stop-color:#BB443C"/>
		<stop  offset="0.2274" style="stop-color:#B7433A"/>
		<stop  offset="0.5099" style="stop-color:#AA3F35"/>
		<stop  offset="0.8203" style="stop-color:#95382C"/>
		<stop  offset="1" style="stop-color:#873224"/>
	</linearGradient>
	<polygon fill-rule="evenodd" clip-rule="evenodd" fill="url(#SVGID_8_)" points="26.705,89.201 27.705,98.121 28.184,102.388 
		35.381,78.653 	"/>
	<polygon fill-rule="evenodd" clip-rule="evenodd" fill="#D24A43" points="22.169,100.741 26.705,89.201 27.705,98.121 	"/>
	<polygon fill-rule="evenodd" clip-rule="evenodd" fill="#9D3B30" points="27.705,98.121 18.027,111.273 22.169,100.741 	"/>
	<polygon fill-rule="evenodd" clip-rule="evenodd" fill="#D45643" points="27.705,98.121 28.184,102.388 18.027,111.273 	"/>
	<polygon fill-rule="evenodd" clip-rule="evenodd" fill="#540D00" points="23.602,103.696 28.184,102.388 18.027,111.273 	"/>
	<linearGradient id="SVGID_9_" gradientUnits="userSpaceOnUse" x1="23.6016" y1="102.79" x2="28.1836" y2="102.79">
		<stop  offset="0" style="stop-color:#8D3527"/>
		<stop  offset="0.1772" style="stop-color:#893325"/>
		<stop  offset="0.3973" style="stop-color:#7E2E1D"/>
		<stop  offset="0.6402" style="stop-color:#6D2405"/>
		<stop  offset="0.8977" style="stop-color:#591500"/>
		<stop  offset="1" style="stop-color:#520700"/>
	</linearGradient>
	<polygon fill-rule="evenodd" clip-rule="evenodd" fill="url(#SVGID_9_)" points="24.938,101.884 28.184,102.388 23.602,103.696 	
		"/>
	<polygon fill-rule="evenodd" clip-rule="evenodd" fill="#682100" points="28.184,102.388 23.602,103.696 22.627,105.088 	"/>
	<linearGradient id="SVGID_10_" gradientUnits="userSpaceOnUse" x1="48.7214" y1="104.5179" x2="56.5769" y2="96.6624">
		<stop  offset="0" style="stop-color:#F3C983"/>
		<stop  offset="0.5564" style="stop-color:#B99569"/>
		<stop  offset="1" style="stop-color:#94765A"/>
	</linearGradient>
	<polygon fill-rule="evenodd" clip-rule="evenodd" fill="url(#SVGID_10_)" points="47.924,98.473 52.143,107.939 55.25,95.336 	"/>
	<linearGradient id="SVGID_11_" gradientUnits="userSpaceOnUse" x1="23.5767" y1="80.1875" x2="39.0825" y2="64.6816">
		<stop  offset="0" style="stop-color:#F3C983"/>
		<stop  offset="0.5564" style="stop-color:#B99569"/>
		<stop  offset="1" style="stop-color:#94765A"/>
	</linearGradient>
	<polygon fill-rule="evenodd" clip-rule="evenodd" fill="url(#SVGID_11_)" points="20.021,76.632 29.963,80.912 41.528,67.127 	"/>
	<linearGradient id="SVGID_12_" gradientUnits="userSpaceOnUse" x1="26.1665" y1="71.2534" x2="34.2902" y2="59.7367">
		<stop  offset="0" style="stop-color:#F3C983"/>
		<stop  offset="0.246" style="stop-color:#DDB277"/>
		<stop  offset="0.7285" style="stop-color:#B68860"/>
		<stop  offset="1" style="stop-color:#A27455"/>
	</linearGradient>
	<polygon fill-rule="evenodd" clip-rule="evenodd" fill="url(#SVGID_12_)" points="27.705,73.236 23.105,57.941 41.528,67.127 	"/>
	<polygon fill-rule="evenodd" clip-rule="evenodd" fill="#A27455" points="29.905,54.98 33.939,63.343 23.105,57.941 	"/>
	<polygon fill-rule="evenodd" clip-rule="evenodd" fill="#F3C983" points="26.705,69.911 0,68.008 23.105,57.941 	"/>
	<polygon fill-rule="evenodd" clip-rule="evenodd" fill="#DFAE6D" points="0,68.008 26.705,69.911 20.021,76.632 	"/>
	<polygon fill-rule="evenodd" clip-rule="evenodd" fill="#CFA265" points="26.705,69.911 20.021,76.632 27.705,73.236 	"/>
	<polygon fill-rule="evenodd" clip-rule="evenodd" fill="#CFA265" points="31.334,57.941 44.057,46.229 33.939,63.343 	"/>
	<polygon fill-rule="evenodd" clip-rule="evenodd" fill="#CFA265" points="27.705,28.545 31.334,57.941 17.844,24.669 	"/>
	<polygon fill-rule="evenodd" clip-rule="evenodd" fill="#F3C983" points="30.365,29.591 29.209,40.731 27.705,28.545 	"/>
	<linearGradient id="SVGID_13_" gradientUnits="userSpaceOnUse" x1="29.209" y1="43.7661" x2="44.0566" y2="43.7661">
		<stop  offset="0" style="stop-color:#E1BA79"/>
		<stop  offset="0.1377" style="stop-color:#D4AC72"/>
		<stop  offset="0.4922" style="stop-color:#BE9364"/>
		<stop  offset="0.7922" style="stop-color:#B2865D"/>
		<stop  offset="1" style="stop-color:#AE825B"/>
	</linearGradient>
	<polygon fill-rule="evenodd" clip-rule="evenodd" fill="url(#SVGID_13_)" points="30.365,29.591 29.209,40.731 31.334,57.941 
		44.057,46.229 	"/>
	<linearGradient id="SVGID_14_" gradientUnits="userSpaceOnUse" x1="33.9395" y1="61.1917" x2="51.4883" y2="61.1917">
		<stop  offset="0" style="stop-color:#E1BA79"/>
		<stop  offset="0.1377" style="stop-color:#D4AC72"/>
		<stop  offset="0.4922" style="stop-color:#BE9364"/>
		<stop  offset="0.7922" style="stop-color:#B2865D"/>
		<stop  offset="1" style="stop-color:#AE825B"/>
	</linearGradient>
	<polygon fill-rule="evenodd" clip-rule="evenodd" fill="url(#SVGID_14_)" points="33.939,63.343 51.488,55.256 41.528,67.127 	"/>
	<linearGradient id="SVGID_15_" gradientUnits="userSpaceOnUse" x1="29.9629" y1="60.8213" x2="51.4883" y2="60.8213">
		<stop  offset="0" style="stop-color:#F3C983"/>
		<stop  offset="0.9247" style="stop-color:#CA9E63"/>
		<stop  offset="1" style="stop-color:#C79B60"/>
	</linearGradient>
	<polygon fill-rule="evenodd" clip-rule="evenodd" fill="url(#SVGID_15_)" points="39.534,40.731 29.963,80.912 51.488,55.256 	"/>
	<linearGradient id="SVGID_16_" gradientUnits="userSpaceOnUse" x1="79.2607" y1="78.6177" x2="115.7363" y2="78.6177">
		<stop  offset="0" style="stop-color:#5C442F"/>
		<stop  offset="0.144" style="stop-color:#6B513C"/>
		<stop  offset="0.3486" style="stop-color:#7D6149"/>
		<stop  offset="0.5578" style="stop-color:#896C52"/>
		<stop  offset="0.7722" style="stop-color:#917358"/>
		<stop  offset="1" style="stop-color:#94765A"/>
	</linearGradient>
	<polygon fill-rule="evenodd" clip-rule="evenodd" fill="url(#SVGID_16_)" points="85.318,72.059 79.261,86.548 115.736,70.687 	"/>
	<linearGradient id="SVGID_17_" gradientUnits="userSpaceOnUse" x1="88.9146" y1="72.0591" x2="88.9146" y2="54.8467">
		<stop  offset="0" style="stop-color:#5C442F"/>
		<stop  offset="0.2333" style="stop-color:#654C37"/>
		<stop  offset="0.6767" style="stop-color:#7E624A"/>
		<stop  offset="1" style="stop-color:#94765A"/>
	</linearGradient>
	<polygon fill-rule="evenodd" clip-rule="evenodd" fill="url(#SVGID_17_)" points="85.318,72.059 92.511,54.847 90.313,71.834 	"/>
	<linearGradient id="SVGID_18_" gradientUnits="userSpaceOnUse" x1="103.0244" y1="71.8335" x2="103.0244" y2="54.8467">
		<stop  offset="0" style="stop-color:#5C442F"/>
		<stop  offset="0.4481" style="stop-color:#654E38"/>
		<stop  offset="1" style="stop-color:#765E47"/>
	</linearGradient>
	<polygon fill-rule="evenodd" clip-rule="evenodd" fill="url(#SVGID_18_)" points="92.511,54.847 115.736,70.687 90.313,71.834 	"/>
	<linearGradient id="SVGID_19_" gradientUnits="userSpaceOnUse" x1="92.5107" y1="62.7668" x2="122.4756" y2="62.7668">
		<stop  offset="0" style="stop-color:#E1BA79"/>
		<stop  offset="0.1377" style="stop-color:#D4AC72"/>
		<stop  offset="0.4922" style="stop-color:#BE9364"/>
		<stop  offset="0.7922" style="stop-color:#B2865D"/>
		<stop  offset="1" style="stop-color:#AE825B"/>
	</linearGradient>
	<polygon fill-rule="evenodd" clip-rule="evenodd" fill="url(#SVGID_19_)" points="92.511,54.847 122.476,67.753 115.736,70.687 	
		"/>
	<linearGradient id="SVGID_20_" gradientUnits="userSpaceOnUse" x1="79.2607" y1="95.8164" x2="104.6309" y2="95.8164">
		<stop  offset="0" style="stop-color:#4F391F"/>
		<stop  offset="0.3037" style="stop-color:#574129"/>
		<stop  offset="0.8813" style="stop-color:#705841"/>
		<stop  offset="1" style="stop-color:#765E47"/>
	</linearGradient>
	<polygon fill-rule="evenodd" clip-rule="evenodd" fill="url(#SVGID_20_)" points="79.261,86.548 104.631,111.086 92.511,80.546 	
		"/>
	<linearGradient id="SVGID_21_" gradientUnits="userSpaceOnUse" x1="74.1367" y1="95.0225" x2="85.3184" y2="95.0225">
		<stop  offset="0.0023" style="stop-color:#523B27"/>
		<stop  offset="0.0388" style="stop-color:#543E2A"/>
		<stop  offset="0.6945" style="stop-color:#81654D"/>
		<stop  offset="1" style="stop-color:#94765A"/>
	</linearGradient>
	<polygon fill-rule="evenodd" clip-rule="evenodd" fill="url(#SVGID_21_)" points="79.261,86.548 85.318,103.497 74.137,98.811 	"/>
	<linearGradient id="SVGID_22_" gradientUnits="userSpaceOnUse" x1="91.9458" y1="111.0864" x2="91.9458" y2="86.5483">
		<stop  offset="0" style="stop-color:#785E45"/>
		<stop  offset="0.1949" style="stop-color:#6F573F"/>
		<stop  offset="0.5673" style="stop-color:#57442E"/>
		<stop  offset="1" style="stop-color:#3D2C14"/>
	</linearGradient>
	<polygon fill-rule="evenodd" clip-rule="evenodd" fill="url(#SVGID_22_)" points="79.261,86.548 85.318,103.497 104.631,111.086 	
		"/>
	<linearGradient id="SVGID_23_" gradientUnits="userSpaceOnUse" x1="48.081" y1="80.9116" x2="48.081" y2="37.7202">
		<stop  offset="0" style="stop-color:#E1BA79"/>
		<stop  offset="0.1377" style="stop-color:#D4AC72"/>
		<stop  offset="0.4922" style="stop-color:#BE9364"/>
		<stop  offset="0.7922" style="stop-color:#B2865D"/>
		<stop  offset="1" style="stop-color:#AE825B"/>
	</linearGradient>
	<polygon fill-rule="evenodd" clip-rule="evenodd" fill="url(#SVGID_23_)" points="40.233,76.632 66.199,37.72 29.963,80.912 	"/>
	<linearGradient id="SVGID_24_" gradientUnits="userSpaceOnUse" x1="71.8501" y1="72.0649" x2="71.8501" y2="54.8467">
		<stop  offset="0" style="stop-color:#BB443C"/>
		<stop  offset="0.2274" style="stop-color:#B7433A"/>
		<stop  offset="0.5099" style="stop-color:#AA3F35"/>
		<stop  offset="0.8203" style="stop-color:#95382C"/>
		<stop  offset="1" style="stop-color:#873224"/>
	</linearGradient>
	<polygon fill-rule="evenodd" clip-rule="evenodd" fill="url(#SVGID_24_)" points="51.189,72.065 91.104,58.216 92.511,54.847 	"/>
	<linearGradient id="SVGID_25_" gradientUnits="userSpaceOnUse" x1="59.7373" y1="8.4239" x2="70.6992" y2="8.4239">
		<stop  offset="0" style="stop-color:#D24A43"/>
		<stop  offset="0.233" style="stop-color:#CB4841"/>
		<stop  offset="0.5225" style="stop-color:#BE453C"/>
		<stop  offset="0.8404" style="stop-color:#A83F34"/>
		<stop  offset="1" style="stop-color:#9B3A2F"/>
	</linearGradient>
	<polygon fill-rule="evenodd" clip-rule="evenodd" fill="url(#SVGID_25_)" points="66.799,0 59.737,16.848 70.699,9.178 	"/>
</g>
</svg>
