<?xml version="1.0" encoding="utf-8"?>
<!-- Generator: Adobe Illustrator 19.1.0, SVG Export Plug-In . SVG Version: 6.00 Build 0)  -->
<svg version="1.1" xmlns="http://www.w3.org/2000/svg" xmlns:xlink="http://www.w3.org/1999/xlink" x="0px" y="0px"
	 viewBox="0 0 242.3 156.2" style="enable-background:new 0 0 242.3 156.2;" xml:space="preserve">
<style type="text/css">
	.st0{fill-rule:evenodd;clip-rule:evenodd;fill:#FFFFFF;}
	.st1{fill-rule:evenodd;clip-rule:evenodd;fill:#ECF1F4;}
	.st2{fill:#ECF1F4;}
	.st3{fill:#CE0021;}
	.st4{fill:#FAD682;}
</style>
<g id="snow">
	<path class="st0" d="M65,41.6c0.1,0.2,0.2,0.4,0.3,0.5l0.4,0.9l-1,0.3c-0.2,0.1-0.4,0.1-0.5,0.2c0.2,0.1,0.4,0.1,0.6,0.2l1,0.4
		L65.3,45c-0.1,0.2-0.2,0.3-0.3,0.5c0.2-0.1,0.3-0.2,0.5-0.3l1-0.5l0.3,1c0.1,0.2,0.1,0.4,0.2,0.5c0-0.2,0.1-0.4,0.2-0.6l0.3-1
		l0.9,0.4c0.2,0.1,0.3,0.2,0.5,0.3c-0.1-0.2-0.2-0.3-0.3-0.5l-0.5-0.9l1-0.4c0.2-0.1,0.4-0.1,0.6-0.2c-0.2,0-0.4-0.1-0.5-0.2l-1-0.3
		l0.4-0.9c0.1-0.2,0.2-0.3,0.3-0.5c-0.2,0.1-0.4,0.2-0.5,0.3l-0.9,0.4l-0.3-0.9C67.1,41.2,67,41,67,40.8c-0.1,0.2-0.1,0.4-0.2,0.6
		l-0.4,1l-0.9-0.5C65.3,41.8,65.2,41.7,65,41.6L65,41.6z M66.3,42.9c0.1,0,0.1,0.1,0.2,0.1l0.3,0.2l0.1-0.4c0-0.1,0-0.1,0.1-0.2
		c0,0.1,0,0.1,0.1,0.2l0.1,0.3l0.3-0.2c0.1,0,0.1-0.1,0.2-0.1c0,0.1-0.1,0.1-0.1,0.2l-0.2,0.3l0.4,0.1c0.1,0,0.1,0,0.2,0.1
		c-0.1,0-0.1,0-0.2,0.1l-0.4,0.1l0.2,0.3c0,0.1,0.1,0.1,0.1,0.2c-0.1,0-0.1-0.1-0.2-0.1L67.1,44L67,44.4c0,0.1,0,0.1-0.1,0.2
		c0-0.1,0-0.1-0.1-0.2L66.8,44l-0.3,0.2c-0.1,0-0.1,0.1-0.2,0.1c0-0.1,0.1-0.1,0.1-0.2l0.2-0.3l-0.4-0.1c-0.1,0-0.1,0-0.2-0.1
		c0.1,0,0.1,0,0.2-0.1l0.4-0.1L66.4,43C66.3,43,66.3,42.9,66.3,42.9z"/>
	<path class="st0" d="M33.8,107.6c-0.2,0.1-0.3,0.2-0.5,0.3l-0.9,0.5l-0.4-1c-0.1-0.2-0.1-0.4-0.2-0.6c0,0.2-0.1,0.4-0.2,0.6
		l-0.3,0.9l-0.9-0.4c-0.2-0.1-0.4-0.2-0.5-0.3c0.1,0.2,0.2,0.4,0.3,0.5l0.4,0.9l-1,0.3c-0.2,0.1-0.4,0.1-0.6,0.2
		c0.2,0,0.4,0.1,0.6,0.2l1,0.4l-0.5,0.9c-0.1,0.2-0.2,0.3-0.3,0.5c0.2-0.1,0.4-0.2,0.5-0.3l0.9-0.4l0.3,1c0.1,0.2,0.1,0.4,0.2,0.6
		c0-0.2,0.1-0.4,0.2-0.5l0.3-1l1,0.5c0.2,0.1,0.3,0.2,0.5,0.3c-0.1-0.2-0.2-0.3-0.3-0.5L33,110l1-0.4c0.2-0.1,0.4-0.1,0.6-0.2
		c-0.2,0-0.4-0.1-0.6-0.2l-1-0.3l0.4-0.9C33.6,107.9,33.7,107.7,33.8,107.6L33.8,107.6z M32.4,109l-0.2,0.3l0.4,0.1
		c0.1,0,0.1,0,0.2,0.1c-0.1,0-0.1,0-0.2,0.1l-0.4,0.1l0.2,0.3c0,0.1,0.1,0.1,0.1,0.2c-0.1,0-0.1-0.1-0.2-0.1L32,110l-0.1,0.4
		c0,0.1,0,0.1-0.1,0.2c0-0.1,0-0.1-0.1-0.2l-0.1-0.4l-0.3,0.2c-0.1,0-0.1,0.1-0.2,0.1c0-0.1,0.1-0.1,0.1-0.2l0.2-0.3l-0.4-0.1
		c-0.1,0-0.1,0-0.2-0.1c0.1,0,0.1,0,0.2-0.1l0.4-0.1l-0.2-0.3c0-0.1-0.1-0.1-0.1-0.2c0.1,0,0.1,0.1,0.2,0.1l0.3,0.2l0.1-0.3
		c0-0.1,0-0.1,0.1-0.2c0,0.1,0,0.1,0.1,0.2l0.1,0.4L32.4,109c0-0.1,0-0.2,0.1-0.2C32.5,108.9,32.5,108.9,32.4,109z"/>
	<path class="st0" d="M42.6,45.3L42.3,46l0.7,0.2c0.1,0,0.3,0.1,0.4,0.1c-0.1,0-0.3,0.1-0.4,0.1l-0.7,0.3l0.3,0.7
		c0.1,0.1,0.1,0.2,0.2,0.4c-0.1-0.1-0.2-0.1-0.4-0.2l-0.7-0.3L41.5,48c0,0.1-0.1,0.3-0.1,0.4c0-0.1-0.1-0.3-0.1-0.4L41,47.2
		l-0.7,0.3c-0.1,0.1-0.3,0.1-0.4,0.2c0.1-0.1,0.1-0.2,0.2-0.4l0.3-0.7l-0.7-0.3c-0.1,0-0.3-0.1-0.4-0.1c0.1,0,0.3-0.1,0.4-0.1
		l0.7-0.2l-0.3-0.7c-0.1-0.1-0.1-0.2-0.2-0.4c0.1,0.1,0.3,0.2,0.4,0.2l0.7,0.3l0.3-0.7c0-0.1,0.1-0.3,0.1-0.4c0,0.1,0.1,0.3,0.1,0.4
		l0.3,0.7l0.7-0.3c0.1-0.1,0.2-0.1,0.4-0.2C42.7,45.1,42.6,45.2,42.6,45.3z"/>
	<path class="st0" d="M92.8,5.8c-0.3,0.2-0.7,0.4-1,0.6l-1.9,0.9l-0.7-2c-0.1-0.3-0.2-0.7-0.3-1.1c-0.1,0.4-0.2,0.8-0.3,1.2
		l-0.7,1.9L86,6.4c-0.3-0.2-0.7-0.4-1.1-0.6c0.2,0.4,0.4,0.7,0.6,1l0.9,1.9l-2,0.7c-0.3,0.1-0.7,0.2-1.1,0.3
		c0.4,0.1,0.8,0.2,1.1,0.3l2,0.7l-0.9,1.9c-0.2,0.3-0.4,0.7-0.6,1c0.4-0.2,0.7-0.4,1-0.6l1.9-0.9l0.7,2c0.1,0.3,0.2,0.7,0.3,1.1
		c0.1-0.4,0.2-0.7,0.3-1.1l0.7-2l1.9,1c0.3,0.2,0.7,0.4,1,0.6c-0.2-0.3-0.4-0.7-0.6-1l-0.9-1.9l2-0.7c0.4-0.1,0.7-0.2,1.1-0.3
		c-0.4-0.1-0.8-0.2-1.1-0.3l-2-0.7l0.9-1.9C92.3,6.5,92.5,6.1,92.8,5.8L92.8,5.8z M90,8.6l-0.3,0.7l0.7,0.2c0.1,0,0.3,0.1,0.4,0.1
		c-0.1,0-0.3,0.1-0.4,0.1l-0.7,0.3l0.3,0.7c0.1,0.1,0.1,0.2,0.2,0.4C90.1,11,90,11,89.9,10.9l-0.7-0.3l-0.2,0.7
		c0,0.1-0.1,0.3-0.1,0.4c0-0.1-0.1-0.3-0.1-0.4l-0.2-0.7l-0.7,0.3c-0.1,0.1-0.3,0.1-0.4,0.2c0.1-0.1,0.1-0.2,0.2-0.4l0.3-0.7
		l-0.7-0.3c-0.1,0-0.3-0.1-0.4-0.1c0.1,0,0.3-0.1,0.4-0.1l0.7-0.2l-0.3-0.7c-0.1-0.1-0.1-0.2-0.2-0.4c0.1,0.1,0.3,0.2,0.4,0.2
		l0.7,0.3l0.3-0.7c0-0.1,0.1-0.3,0.1-0.4c0,0.1,0.1,0.3,0.1,0.4l0.3,0.7l0.7-0.3c0.1-0.1,0.2-0.1,0.4-0.2C90.2,8.4,90.1,8.5,90,8.6z
		"/>
	<path class="st0" d="M64,5.3c-0.3,0.2-0.6,0.4-1,0.5l-1.8,0.9l-0.7-1.9c-0.1-0.3-0.2-0.7-0.3-1.1c-0.1,0.4-0.2,0.8-0.3,1.1
		l-0.7,1.8l-1.8-0.8c-0.3-0.2-0.7-0.4-1-0.6c0.2,0.3,0.4,0.7,0.5,1l0.9,1.8L56,8.7c-0.3,0.1-0.7,0.2-1,0.3c0.4,0.1,0.8,0.2,1.1,0.3
		l1.9,0.7L57,11.8c-0.2,0.3-0.3,0.6-0.5,1c0.3-0.2,0.7-0.4,1-0.5l1.8-0.9l0.6,1.9c0.1,0.3,0.2,0.7,0.3,1.1c0.1-0.4,0.2-0.7,0.3-1
		l0.6-1.9l1.8,0.9c0.3,0.2,0.6,0.3,0.9,0.5c-0.2-0.3-0.4-0.6-0.5-1L62.6,10l1.9-0.7c0.3-0.1,0.7-0.2,1.1-0.3
		c-0.4-0.1-0.7-0.2-1.1-0.3l-1.9-0.6l0.9-1.8C63.6,5.9,63.8,5.6,64,5.3L64,5.3z M61.4,8l-0.3,0.7l0.7,0.2C61.9,8.9,62,9,62.2,9
		c-0.1,0-0.3,0.1-0.4,0.1l-0.7,0.2l0.3,0.6c0.1,0.1,0.1,0.2,0.2,0.3c-0.1-0.1-0.2-0.1-0.3-0.2l-0.7-0.3l-0.2,0.7
		c0,0.1-0.1,0.2-0.1,0.4c0-0.1-0.1-0.3-0.1-0.4l-0.2-0.7l-0.7,0.3c-0.1,0.1-0.2,0.1-0.4,0.2c0.1-0.1,0.1-0.2,0.2-0.3l0.3-0.6
		l-0.7-0.2c-0.1,0-0.3-0.1-0.4-0.1c0.1,0,0.3-0.1,0.4-0.1l0.7-0.2L59.1,8C59,7.9,59,7.8,58.9,7.6c0.1,0.1,0.3,0.1,0.4,0.2l0.6,0.3
		l0.2-0.7c0-0.1,0.1-0.3,0.1-0.4c0,0.1,0.1,0.3,0.1,0.4l0.2,0.7l0.6-0.3c0.1-0.1,0.2-0.1,0.3-0.2C61.5,7.8,61.5,7.9,61.4,8z"/>
	<path class="st0" d="M57.2,71.8c-0.2,0.1-0.5,0.3-0.7,0.4l-1.3,0.6l-0.5-1.4c-0.1-0.2-0.2-0.5-0.2-0.8c-0.1,0.3-0.1,0.6-0.2,0.8
		l-0.5,1.3l-1.3-0.6c-0.2-0.1-0.5-0.3-0.7-0.4c0.1,0.2,0.3,0.5,0.4,0.7l0.6,1.3l-1.4,0.5c-0.2,0.1-0.5,0.2-0.8,0.2
		c0.3,0.1,0.6,0.1,0.8,0.2l1.4,0.5l-0.7,1.3c-0.1,0.2-0.3,0.5-0.4,0.7c0.2-0.1,0.5-0.3,0.7-0.4l1.3-0.6l0.5,1.4
		c0.1,0.2,0.2,0.5,0.2,0.8c0.1-0.3,0.1-0.5,0.2-0.8l0.5-1.4l1.3,0.7c0.2,0.1,0.5,0.2,0.7,0.4c-0.1-0.2-0.3-0.5-0.4-0.7l-0.7-1.3
		l1.4-0.5c0.2-0.1,0.5-0.2,0.8-0.2c-0.3-0.1-0.5-0.1-0.8-0.2l-1.4-0.5l0.6-1.3C56.9,72.3,57,72,57.2,71.8L57.2,71.8z M55.3,73.8
		l-0.2,0.5l0.5,0.2c0.1,0,0.2,0.1,0.3,0.1c-0.1,0-0.2,0.1-0.3,0.1l-0.5,0.2l0.2,0.5c0,0.1,0.1,0.2,0.1,0.3c-0.1-0.1-0.2-0.1-0.3-0.1
		l-0.5-0.2l-0.2,0.5c0,0.1-0.1,0.2-0.1,0.3c0-0.1-0.1-0.2-0.1-0.3l-0.2-0.5l-0.5,0.2c-0.1,0-0.2,0.1-0.3,0.1
		c0.1-0.1,0.1-0.2,0.1-0.3l0.2-0.5l-0.5-0.2c-0.1,0-0.2-0.1-0.3-0.1c0.1,0,0.2,0,0.3-0.1l0.5-0.2l-0.2-0.5c0-0.1-0.1-0.2-0.1-0.3
		c0.1,0.1,0.2,0.1,0.3,0.1l0.5,0.2l0.2-0.5c0-0.1,0.1-0.2,0.1-0.3c0,0.1,0.1,0.2,0.1,0.3l0.2,0.5l0.5-0.2c0.1,0,0.2-0.1,0.3-0.1
		C55.4,73.6,55.3,73.7,55.3,73.8z"/>
	<path class="st0" d="M118.1,76.1c0.1,0.2,0.2,0.4,0.3,0.5l0.4,0.9l-1,0.3c-0.2,0.1-0.4,0.1-0.5,0.2c0.2,0,0.4,0.1,0.6,0.2l1,0.4
		l-0.5,0.9c-0.1,0.2-0.2,0.3-0.3,0.5c0.2-0.1,0.3-0.2,0.5-0.3l1-0.5l0.3,1c0.1,0.2,0.1,0.4,0.2,0.5c0-0.2,0.1-0.4,0.2-0.6l0.3-1
		l0.9,0.4c0.2,0.1,0.3,0.2,0.5,0.3c-0.1-0.2-0.2-0.3-0.3-0.5l-0.5-0.9l1-0.4c0.2-0.1,0.4-0.1,0.6-0.2c-0.2,0-0.4-0.1-0.5-0.2l-1-0.3
		l0.4-0.9c0.1-0.2,0.2-0.3,0.3-0.5c-0.2,0.1-0.4,0.2-0.5,0.3l-0.9,0.4l-0.3-0.9c-0.1-0.2-0.1-0.4-0.2-0.6c0,0.2-0.1,0.4-0.2,0.6
		l-0.4,1l-0.9-0.5C118.4,76.3,118.3,76.2,118.1,76.1L118.1,76.1z M119.3,77.3c0.1,0,0.1,0.1,0.2,0.1l0.3,0.2l0.1-0.4
		c0-0.1,0-0.1,0.1-0.2c0,0.1,0,0.1,0.1,0.2l0.1,0.3l0.3-0.2c0.1,0,0.1-0.1,0.2-0.1c0,0.1-0.1,0.1-0.1,0.2l-0.2,0.3l0.4,0.1
		c0.1,0,0.1,0,0.2,0.1c-0.1,0-0.1,0-0.2,0.1l-0.4,0.1l0.2,0.3c0,0.1,0.1,0.1,0.1,0.2c-0.1,0-0.1-0.1-0.2-0.1l-0.3-0.2l-0.1,0.4
		c0,0.1,0,0.1-0.1,0.2c0-0.1,0-0.1-0.1-0.2l-0.1-0.4l-0.3,0.2c-0.1,0-0.1,0.1-0.2,0.1c0-0.1,0.1-0.1,0.1-0.2l0.2-0.3l-0.4-0.1
		c-0.1,0-0.1,0-0.2-0.1c0.1,0,0.1,0,0.2-0.1l0.4-0.1l-0.2-0.3C119.4,77.5,119.4,77.4,119.3,77.3z"/>
	<path class="st0" d="M96.1,66.6c-0.3,0.2-0.7,0.4-1,0.6l-1.9,0.9l-0.7-2c-0.1-0.3-0.2-0.7-0.3-1.1c-0.1,0.4-0.2,0.8-0.3,1.2
		L91.1,68l-1.8-0.8c-0.3-0.2-0.7-0.4-1.1-0.6c0.2,0.4,0.4,0.7,0.6,1l0.9,1.9l-2,0.7c-0.3,0.1-0.7,0.2-1.1,0.3
		c0.4,0.1,0.8,0.2,1.1,0.3l2,0.7l-0.9,1.9c-0.2,0.3-0.4,0.7-0.6,1c0.4-0.2,0.7-0.4,1-0.6l1.9-0.9l0.7,2c0.1,0.3,0.2,0.7,0.3,1.1
		c0.1-0.4,0.2-0.7,0.3-1.1l0.7-2l1.9,1c0.3,0.2,0.7,0.4,1,0.5c-0.2-0.3-0.4-0.7-0.6-1l-0.9-1.9l2-0.7c0.3-0.1,0.7-0.2,1.1-0.3
		c-0.4-0.1-0.8-0.2-1.1-0.3l-2-0.7l0.9-1.9C95.7,67.3,95.9,66.9,96.1,66.6L96.1,66.6z M93.4,69.4L93,70.1l0.7,0.2
		c0.1,0,0.3,0.1,0.4,0.1c-0.1,0-0.3,0.1-0.4,0.1L93,70.9l0.3,0.7c0.1,0.1,0.1,0.2,0.2,0.4c-0.1-0.1-0.2-0.1-0.4-0.2l-0.7-0.3
		l-0.2,0.7c0,0.1-0.1,0.3-0.1,0.4c0-0.1-0.1-0.3-0.1-0.4l-0.2-0.7l-0.7,0.3c-0.1,0.1-0.3,0.1-0.4,0.2c0.1-0.1,0.1-0.2,0.2-0.4
		l0.3-0.7l-0.7-0.3c-0.1,0-0.3-0.1-0.4-0.1c0.1,0,0.3-0.1,0.4-0.1l0.7-0.2l-0.3-0.7c-0.1-0.1-0.1-0.2-0.2-0.4
		c0.1,0.1,0.3,0.2,0.4,0.2l0.7,0.3l0.3-0.7c0-0.1,0.1-0.3,0.1-0.4c0,0.1,0.1,0.3,0.1,0.4l0.3,0.7l0.7-0.3c0.1-0.1,0.2-0.1,0.4-0.2
		C93.5,69.2,93.4,69.3,93.4,69.4z"/>
	<path class="st0" d="M31.1,87.4c-0.2,0.1-0.5,0.3-0.7,0.4l-1.3,0.7l-0.5-1.4c-0.1-0.2-0.2-0.5-0.2-0.8c-0.1,0.3-0.1,0.6-0.2,0.8
		l-0.5,1.3l-1.3-0.6c-0.2-0.1-0.5-0.3-0.7-0.4c0.1,0.2,0.3,0.5,0.4,0.7l0.6,1.3l-1.4,0.5c-0.2,0.1-0.5,0.2-0.8,0.2
		c0.3,0.1,0.6,0.1,0.8,0.2l1.4,0.5L26,92.2c-0.1,0.2-0.3,0.5-0.4,0.7c0.2-0.1,0.5-0.3,0.7-0.4l1.3-0.6l0.5,1.4
		c0.1,0.2,0.2,0.5,0.2,0.8c0.1-0.3,0.1-0.5,0.2-0.8l0.5-1.4l1.3,0.7c0.2,0.1,0.5,0.2,0.7,0.4c-0.1-0.2-0.3-0.5-0.4-0.7L30,90.9
		l1.4-0.5c0.2-0.1,0.5-0.2,0.8-0.2c-0.3-0.1-0.5-0.1-0.8-0.2l-1.4-0.5l0.6-1.3C30.8,87.9,30.9,87.6,31.1,87.4L31.1,87.4z M29.2,89.4
		L29,89.9l0.5,0.2c0.1,0,0.2,0.1,0.3,0.1c-0.1,0-0.2,0.1-0.3,0.1L29,90.4l0.2,0.5c0,0.1,0.1,0.2,0.1,0.3c-0.1-0.1-0.2-0.1-0.3-0.1
		l-0.5-0.2l-0.2,0.5c0,0.1-0.1,0.2-0.1,0.3c0-0.1,0-0.2-0.1-0.3l-0.2-0.5L27.6,91c-0.1,0-0.2,0.1-0.3,0.1c0.1-0.1,0.1-0.2,0.1-0.3
		l0.2-0.5l-0.5-0.2c-0.1,0-0.2-0.1-0.3-0.1c0.1,0,0.2,0,0.3-0.1l0.5-0.2l-0.2-0.5c0-0.1-0.1-0.2-0.1-0.3c0.1,0.1,0.2,0.1,0.3,0.1
		l0.5,0.2l0.2-0.5c0-0.1,0.1-0.2,0.1-0.3c0,0.1,0.1,0.2,0.1,0.3l0.2,0.5l0.5-0.2c0.1,0,0.2-0.1,0.3-0.1
		C29.3,89.2,29.2,89.3,29.2,89.4z"/>
	<path class="st1" d="M64.5,41.6c0.1,0.2,0.2,0.4,0.3,0.5l0.4,0.9l-1,0.3c-0.2,0.1-0.4,0.1-0.5,0.2c0.2,0.1,0.4,0.1,0.6,0.2l1,0.4
		L64.8,45c-0.1,0.2-0.2,0.3-0.3,0.5c0.2-0.1,0.3-0.2,0.5-0.3l1-0.5l0.3,1c0.1,0.2,0.1,0.4,0.2,0.5c0-0.2,0.1-0.4,0.2-0.6l0.3-1
		l0.9,0.4c0.2,0.1,0.3,0.2,0.5,0.3c-0.1-0.2-0.2-0.3-0.3-0.5L67.6,44l1-0.4c0.2-0.1,0.4-0.1,0.6-0.2c-0.2,0-0.4-0.1-0.6-0.2l-1-0.3
		l0.4-0.9c0.1-0.2,0.2-0.3,0.3-0.5c-0.2,0.1-0.4,0.2-0.5,0.3l-0.9,0.4l-0.3-0.9c-0.1-0.2-0.1-0.4-0.2-0.6c0,0.2-0.1,0.4-0.2,0.6
		l-0.4,1L65,41.8C64.8,41.8,64.6,41.7,64.5,41.6L64.5,41.6z M65.7,42.8c0.1,0,0.1,0.1,0.2,0.1l0.3,0.2l0.1-0.4c0-0.1,0-0.1,0.1-0.2
		c0,0.1,0,0.1,0.1,0.2l0.1,0.3l0.3-0.2c0.1,0,0.1-0.1,0.2-0.1c0,0.1-0.1,0.1-0.1,0.2l-0.2,0.3l0.4,0.1c0.1,0,0.1,0,0.2,0.1
		c-0.1,0-0.1,0-0.2,0.1l-0.4,0.1L67,44c0,0.1,0.1,0.1,0.1,0.2c-0.1,0-0.1-0.1-0.2-0.1L66.6,44l-0.1,0.4c0,0.1,0,0.1-0.1,0.2
		c0-0.1,0-0.1-0.1-0.2l-0.1-0.4l-0.3,0.2c-0.1,0-0.1,0.1-0.2,0.1c0-0.1,0.1-0.1,0.1-0.2l0.2-0.3l-0.4-0.1c-0.1,0-0.1,0-0.2-0.1
		c0.1,0,0.1,0,0.2-0.1l0.4-0.1L65.8,43C65.8,42.9,65.8,42.9,65.7,42.8z"/>
	<path class="st1" d="M33.3,107.5c-0.2,0.1-0.3,0.2-0.5,0.3l-0.9,0.5l-0.4-1c-0.1-0.2-0.1-0.4-0.2-0.6c-0.1,0.2-0.1,0.4-0.2,0.6
		l-0.3,0.9l-0.9-0.4c-0.2-0.1-0.4-0.2-0.5-0.3c0.1,0.2,0.2,0.4,0.3,0.5l0.4,0.9l-1,0.3c-0.2,0.1-0.4,0.1-0.6,0.2
		c0.2,0.1,0.4,0.1,0.6,0.2l1,0.4l-0.5,0.9c-0.1,0.2-0.2,0.3-0.3,0.5c0.2-0.1,0.4-0.2,0.5-0.3l0.9-0.4l0.3,1c0.1,0.2,0.1,0.4,0.2,0.6
		c0-0.2,0.1-0.4,0.2-0.5l0.3-1l1,0.5c0.2,0.1,0.3,0.2,0.5,0.3c-0.1-0.2-0.2-0.3-0.3-0.5l-0.5-0.9l1-0.4c0.2-0.1,0.4-0.1,0.6-0.2
		c-0.2,0-0.4-0.1-0.5-0.2l-1-0.3L33,108C33.1,107.9,33.2,107.7,33.3,107.5L33.3,107.5z M31.9,109l-0.2,0.3l0.4,0.1
		c0.1,0,0.1,0,0.2,0.1c-0.1,0-0.1,0-0.2,0.1l-0.4,0.1l0.2,0.3c0,0.1,0.1,0.1,0.1,0.2c-0.1,0-0.1-0.1-0.2-0.1l-0.3-0.2l-0.1,0.4
		c0,0.1,0,0.1-0.1,0.2c0-0.1,0-0.1-0.1-0.2l-0.1-0.4l-0.3,0.2c-0.1,0-0.1,0.1-0.2,0.1c0-0.1,0.1-0.1,0.1-0.2l0.2-0.3l-0.4-0.1
		c-0.1,0-0.1,0-0.2-0.1c0.1,0,0.1,0,0.2-0.1l0.4-0.1l-0.2-0.3c0-0.1-0.1-0.1-0.1-0.2c0.1,0,0.1,0.1,0.2,0.1l0.3,0.2l0.1-0.3
		c0-0.1,0-0.1,0.1-0.2c0,0.1,0,0.1,0.1,0.2l0.1,0.4L31.9,109c0-0.1,0-0.2,0.1-0.2C32,108.8,31.9,108.9,31.9,109z"/>
	<path class="st1" d="M42.1,45.3L41.7,46l0.7,0.2c0.1,0,0.3,0.1,0.4,0.1c-0.1,0-0.3,0.1-0.4,0.1l-0.7,0.3l0.3,0.7
		c0.1,0.1,0.1,0.2,0.2,0.4c-0.1-0.1-0.2-0.1-0.4-0.2l-0.7-0.3L41,47.9c0,0.1-0.1,0.3-0.1,0.4c0-0.1-0.1-0.3-0.1-0.4l-0.2-0.7
		l-0.7,0.3c-0.1,0.1-0.3,0.1-0.4,0.2c0.1-0.1,0.1-0.2,0.2-0.4l0.3-0.7l-0.7-0.3c-0.1,0-0.3-0.1-0.4-0.1c0.1,0,0.3-0.1,0.4-0.1
		l0.7-0.2l-0.3-0.7c-0.1-0.1-0.1-0.2-0.2-0.4c0.1,0.1,0.3,0.2,0.4,0.2l0.7,0.3l0.3-0.7c0-0.1,0.1-0.3,0.1-0.4c0,0.1,0.1,0.3,0.1,0.4
		l0.3,0.7l0.7-0.3c0.1-0.1,0.2-0.1,0.4-0.2C42.2,45,42.1,45.1,42.1,45.3z"/>
	<path class="st1" d="M214.3,53.5c-0.3,0.2-0.7,0.4-1,0.6l-1.9,0.9l-0.7-2c-0.1-0.3-0.2-0.7-0.3-1.1c-0.1,0.4-0.2,0.8-0.3,1.2
		l-0.7,1.9l-1.8-0.8c-0.3-0.2-0.7-0.4-1.1-0.6c0.2,0.4,0.4,0.7,0.6,1l0.9,1.9l-2,0.7c-0.3,0.1-0.7,0.2-1.1,0.3
		c0.4,0.1,0.8,0.2,1.1,0.3l2,0.7l-0.9,1.9c-0.2,0.3-0.4,0.7-0.6,1c0.3-0.2,0.7-0.4,1-0.6l1.9-0.9l0.7,2c0.1,0.3,0.2,0.7,0.3,1.1
		c0.1-0.4,0.2-0.7,0.3-1.1l0.7-2l1.9,1c0.3,0.2,0.7,0.4,1,0.5c-0.2-0.3-0.4-0.7-0.6-1l-0.9-1.9l2-0.7c0.3-0.1,0.7-0.2,1.1-0.3
		c-0.4-0.1-0.8-0.2-1.1-0.3l-2-0.7l0.9-1.9C213.9,54.2,214.1,53.8,214.3,53.5L214.3,53.5z M211.6,56.4l-0.3,0.7l0.7,0.2
		c0.1,0,0.3,0.1,0.4,0.1c-0.1,0-0.3,0.1-0.4,0.1l-0.7,0.3l0.3,0.7c0.1,0.1,0.1,0.2,0.2,0.4c-0.1-0.1-0.2-0.1-0.4-0.2l-0.7-0.3
		l-0.2,0.7c0,0.1-0.1,0.3-0.1,0.4c0-0.1-0.1-0.3-0.1-0.4l-0.2-0.7l-0.7,0.3c-0.1,0.1-0.3,0.1-0.4,0.2c0.1-0.1,0.1-0.2,0.2-0.4
		l0.3-0.7l-0.7-0.3c-0.1,0-0.3-0.1-0.4-0.1c0.1,0,0.3-0.1,0.4-0.1l0.7-0.2l-0.3-0.7c-0.1-0.1-0.1-0.2-0.2-0.4
		c0.1,0.1,0.3,0.2,0.4,0.2l0.7,0.3l0.3-0.7c0-0.1,0.1-0.3,0.1-0.4c0,0.1,0.1,0.3,0.1,0.4l0.3,0.7l0.7-0.3c0.1-0.1,0.2-0.1,0.4-0.2
		C211.8,56.1,211.7,56.2,211.6,56.4z"/>
	<path class="st1" d="M63.5,5.2c-0.3,0.2-0.6,0.4-1,0.5l-1.8,0.9l-0.7-1.9C60,4.4,59.9,4,59.8,3.7c-0.1,0.4-0.2,0.8-0.3,1.1
		l-0.7,1.8L57,5.8c-0.3-0.2-0.7-0.4-1-0.6c0.2,0.3,0.4,0.7,0.5,1L57.4,8l-1.9,0.6c-0.3,0.1-0.7,0.2-1.1,0.3c0.4,0.1,0.8,0.2,1.1,0.3
		l1.9,0.7l-0.9,1.8c-0.2,0.3-0.3,0.6-0.5,1c0.3-0.2,0.7-0.4,1-0.5l1.8-0.9l0.6,1.9c0.1,0.3,0.2,0.7,0.3,1.1c0.1-0.4,0.2-0.7,0.3-1
		l0.6-1.9l1.8,0.9c0.3,0.2,0.6,0.3,0.9,0.5c-0.2-0.3-0.4-0.6-0.5-1l-0.9-1.8l1.9-0.7C64.3,9.2,64.7,9,65,9c-0.4-0.1-0.7-0.2-1.1-0.3
		L62.1,8l0.9-1.8C63.1,5.9,63.3,5.5,63.5,5.2L63.5,5.2z M60.9,8l-0.3,0.7l0.7,0.2c0.1,0,0.3,0.1,0.4,0.1c-0.1,0-0.3,0.1-0.4,0.1
		l-0.7,0.2l0.3,0.6c0.1,0.1,0.1,0.2,0.2,0.3c-0.1-0.1-0.2-0.1-0.3-0.2l-0.7-0.3l-0.2,0.7c0,0.1-0.1,0.2-0.1,0.4
		c0-0.1-0.1-0.3-0.1-0.4l-0.2-0.7l-0.7,0.3c-0.1,0.1-0.2,0.1-0.4,0.2c0.1-0.1,0.1-0.2,0.2-0.3l0.3-0.6l-0.7-0.2
		C58.1,9,58,9,57.8,8.9c0.1,0,0.3-0.1,0.4-0.1l0.7-0.2L58.6,8c-0.1-0.1-0.1-0.2-0.2-0.4c0.1,0.1,0.3,0.1,0.4,0.2l0.6,0.3l0.2-0.7
		c0-0.1,0.1-0.3,0.1-0.4c0,0.1,0.1,0.3,0.1,0.4l0.2,0.7l0.6-0.3c0.1-0.1,0.2-0.1,0.3-0.2C61,7.7,61,7.8,60.9,8z"/>
	<path class="st1" d="M56.7,71.7c-0.2,0.1-0.5,0.3-0.7,0.4l-1.3,0.6l-0.5-1.4c-0.1-0.2-0.2-0.5-0.2-0.8c-0.1,0.3-0.1,0.6-0.2,0.8
		l-0.5,1.3l-1.3-0.6c-0.2-0.1-0.5-0.3-0.7-0.4c0.1,0.2,0.3,0.5,0.4,0.7l0.6,1.3l-1.4,0.5c-0.2,0.1-0.5,0.2-0.8,0.2
		c0.3,0.1,0.6,0.1,0.8,0.2l1.4,0.5l-0.7,1.3c-0.1,0.2-0.3,0.5-0.4,0.7c0.2-0.1,0.5-0.3,0.7-0.4l1.3-0.6l0.5,1.4
		c0.1,0.2,0.2,0.5,0.2,0.8c0.1-0.3,0.1-0.5,0.2-0.8l0.5-1.4l1.3,0.7c0.2,0.1,0.5,0.2,0.7,0.4c-0.1-0.2-0.3-0.5-0.4-0.7l-0.7-1.3
		l1.4-0.5c0.2-0.1,0.5-0.2,0.8-0.2c-0.3-0.1-0.5-0.1-0.8-0.2l-1.4-0.5l0.6-1.3C56.4,72.2,56.5,72,56.7,71.7L56.7,71.7z M54.8,73.7
		l-0.2,0.5l0.5,0.2c0.1,0,0.2,0.1,0.3,0.1c-0.1,0-0.2,0.1-0.3,0.1l-0.5,0.2l0.2,0.5c0,0.1,0.1,0.2,0.1,0.3c-0.1-0.1-0.2-0.1-0.3-0.1
		l-0.5-0.2L54,75.6c0,0.1-0.1,0.2-0.1,0.3c0-0.1,0-0.2-0.1-0.3l-0.2-0.5l-0.5,0.2c-0.1,0-0.2,0.1-0.3,0.1c0.1-0.1,0.1-0.2,0.1-0.3
		l0.2-0.5l-0.5-0.2c-0.1,0-0.2-0.1-0.3-0.1c0.1,0,0.2,0,0.3-0.1l0.5-0.2l-0.2-0.5c0-0.1-0.1-0.2-0.1-0.3c0.1,0.1,0.2,0.1,0.3,0.1
		l0.5,0.2l0.2-0.5c0-0.1,0.1-0.2,0.1-0.3c0,0.1,0.1,0.2,0.1,0.3l0.2,0.5l0.5-0.2c0.1,0,0.2-0.1,0.3-0.1
		C54.8,73.6,54.8,73.7,54.8,73.7z"/>
	<path class="st1" d="M117.6,76c0.1,0.2,0.2,0.4,0.3,0.5l0.4,0.9l-1,0.3c-0.2,0.1-0.4,0.1-0.5,0.2c0.2,0.1,0.4,0.1,0.6,0.2l1,0.4
		l-0.5,0.9c-0.1,0.2-0.2,0.3-0.3,0.5c0.2-0.1,0.3-0.2,0.5-0.3l1-0.5l0.3,1c0.1,0.2,0.1,0.4,0.2,0.5c0-0.2,0.1-0.4,0.2-0.6l0.3-1
		l0.9,0.4c0.2,0.1,0.3,0.2,0.5,0.3c-0.1-0.2-0.2-0.3-0.3-0.5l-0.5-0.9l1-0.4c0.2-0.1,0.4-0.1,0.6-0.2c-0.2,0-0.4-0.1-0.5-0.2l-1-0.3
		l0.4-0.9c0.1-0.2,0.2-0.3,0.3-0.5c-0.2,0.1-0.4,0.2-0.5,0.3l-0.9,0.4l-0.3-0.9c-0.1-0.2-0.1-0.4-0.2-0.6c-0.1,0.2-0.1,0.4-0.2,0.6
		l-0.4,1l-0.9-0.5C117.9,76.2,117.7,76.1,117.6,76L117.6,76z M118.8,77.3c0.1,0,0.1,0.1,0.2,0.1l0.3,0.2l0.1-0.4
		c0-0.1,0-0.1,0.1-0.2c0,0.1,0,0.1,0.1,0.2l0.1,0.3l0.3-0.2c0.1,0,0.1-0.1,0.2-0.1c0,0.1-0.1,0.1-0.1,0.2l-0.2,0.3l0.4,0.1
		c0.1,0,0.1,0,0.2,0.1c-0.1,0-0.1,0-0.2,0.1l-0.4,0.1l0.2,0.3c0,0.1,0.1,0.1,0.1,0.2c-0.1,0-0.1-0.1-0.2-0.1l-0.3-0.2l-0.1,0.4
		c0,0.1,0,0.1-0.1,0.2c0-0.1,0-0.1-0.1-0.2l-0.1-0.4l-0.3,0.2c-0.1,0-0.1,0.1-0.2,0.1c0-0.1,0.1-0.1,0.1-0.2l0.2-0.3l-0.4-0.1
		c-0.1,0-0.1,0-0.2-0.1c0.1,0,0.1,0,0.2-0.1l0.4-0.1l-0.2-0.3C118.9,77.4,118.8,77.3,118.8,77.3z"/>
	<path class="st1" d="M95.5,66.5c-0.3,0.2-0.7,0.4-1,0.6L92.7,68L92,66c-0.1-0.3-0.2-0.7-0.3-1.1c-0.1,0.4-0.2,0.8-0.3,1.2L90.6,68
		l-1.8-0.8c-0.3-0.2-0.7-0.4-1.1-0.6c0.2,0.4,0.4,0.7,0.6,1l0.9,1.9l-2,0.7c-0.3,0.1-0.7,0.2-1.1,0.3c0.4,0.1,0.8,0.2,1.2,0.3l2,0.7
		l-0.9,1.9c-0.2,0.3-0.4,0.7-0.6,1c0.4-0.2,0.7-0.4,1-0.6l1.9-0.9l0.7,2c0.1,0.3,0.2,0.7,0.3,1.1c0.1-0.4,0.2-0.7,0.3-1.1l0.7-2
		l1.9,1c0.3,0.2,0.7,0.4,1,0.5c-0.2-0.3-0.4-0.7-0.6-1L94,71.5l2-0.7c0.3-0.1,0.7-0.2,1.1-0.3c-0.4-0.1-0.8-0.2-1.1-0.3l-2-0.7
		l0.9-1.9C95.1,67.2,95.3,66.9,95.5,66.5L95.5,66.5z M92.8,69.4l-0.3,0.7l0.7,0.2c0.1,0,0.3,0.1,0.4,0.1c-0.1,0-0.3,0.1-0.4,0.1
		l-0.7,0.3l0.3,0.7c0.1,0.1,0.1,0.2,0.2,0.4c-0.1-0.1-0.2-0.1-0.4-0.2L92,71.3L91.7,72c0,0.1-0.1,0.3-0.1,0.4c0-0.1-0.1-0.3-0.1-0.4
		l-0.2-0.7l-0.7,0.3c-0.1,0.1-0.3,0.1-0.4,0.2c0.1-0.1,0.1-0.2,0.2-0.4l0.3-0.7L90,70.6c-0.1,0-0.3-0.1-0.4-0.1
		c0.1,0,0.3-0.1,0.4-0.1l0.7-0.2l-0.3-0.7c-0.1-0.1-0.1-0.2-0.2-0.4c0.1,0.1,0.3,0.2,0.4,0.2l0.7,0.3l0.3-0.7c0-0.1,0.1-0.3,0.1-0.4
		c0,0.1,0.1,0.3,0.1,0.4l0.3,0.7l0.7-0.3c0.1-0.1,0.2-0.1,0.4-0.2C93,69.1,92.9,69.3,92.8,69.4z"/>
	<path class="st1" d="M30.6,87.4c-0.2,0.1-0.5,0.3-0.7,0.4l-1.3,0.6L28.1,87c-0.1-0.2-0.2-0.5-0.2-0.8c-0.1,0.3-0.1,0.6-0.2,0.8
		l-0.5,1.3l-1.3-0.6c-0.2-0.1-0.5-0.3-0.7-0.4c0.1,0.2,0.3,0.5,0.4,0.7l0.6,1.3l-1.4,0.5c-0.2,0.1-0.5,0.2-0.8,0.2
		c0.3,0.1,0.6,0.1,0.8,0.2l1.4,0.5l-0.7,1.3c-0.1,0.2-0.2,0.5-0.4,0.7c0.2-0.1,0.5-0.3,0.7-0.4l1.3-0.6l0.5,1.4
		c0.1,0.2,0.2,0.5,0.2,0.8c0.1-0.3,0.1-0.5,0.2-0.8l0.5-1.4l1.3,0.7c0.2,0.1,0.5,0.2,0.7,0.4c-0.1-0.2-0.3-0.5-0.4-0.7l-0.7-1.3
		l1.4-0.5c0.2-0.1,0.5-0.2,0.8-0.2c-0.3-0.1-0.5-0.1-0.8-0.2l-1.4-0.5l0.6-1.3C30.3,87.8,30.4,87.6,30.6,87.4L30.6,87.4z M28.7,89.4
		l-0.2,0.5l0.5,0.2c0.1,0,0.2,0.1,0.3,0.1c-0.1,0-0.2,0.1-0.3,0.1l-0.5,0.2l0.2,0.5c0,0.1,0.1,0.2,0.1,0.3c-0.1-0.1-0.2-0.1-0.3-0.1
		l-0.5-0.2l-0.2,0.5c0,0.1-0.1,0.2-0.1,0.3c0-0.1,0-0.2-0.1-0.3l-0.2-0.5l-0.5,0.2c-0.1,0-0.2,0.1-0.3,0.1c0-0.1,0.1-0.2,0.1-0.3
		l0.2-0.5l-0.5-0.2c-0.1,0-0.2-0.1-0.3-0.1c0.1,0,0.2,0,0.3-0.1l0.5-0.2L27,89.4c0-0.1-0.1-0.2-0.1-0.3c0.1,0.1,0.2,0.1,0.3,0.1
		l0.5,0.2l0.2-0.5c0-0.1,0.1-0.2,0.1-0.3c0,0.1,0.1,0.2,0.1,0.3l0.2,0.5l0.5-0.2c0.1,0,0.2-0.1,0.3-0.1
		C28.8,89.2,28.7,89.3,28.7,89.4z"/>
	<circle class="st2" cx="45.9" cy="96.9" r="1.4"/>
	<circle class="st2" cx="31.2" cy="127.8" r="1.4"/>
	<circle class="st2" cx="33.2" cy="72.8" r="1.4"/>
	<circle class="st2" cx="226.7" cy="82.5" r="1.4"/>
	<circle class="st2" cx="57.8" cy="28.7" r="1.4"/>
	<circle class="st2" cx="112.7" cy="57" r="1.4"/>
	<circle class="st2" cx="57.8" cy="62.2" r="1.4"/>
	<circle class="st2" cx="78.3" cy="57.3" r="1.4"/>
	<circle class="st2" cx="76" cy="80" r="1.4"/>
	<path class="st0" d="M206.7,98.5c0.2,0.4,0.4,0.7,0.6,1l0.9,1.9l-2,0.7c-0.3,0.1-0.7,0.2-1.1,0.3c0.4,0.1,0.8,0.2,1.1,0.3l2,0.7
		l-0.9,1.9c-0.2,0.3-0.4,0.7-0.6,1c0.3-0.2,0.7-0.4,1-0.5l1.9-1l0.7,2c0.1,0.3,0.2,0.7,0.3,1.1c0.1-0.4,0.2-0.8,0.3-1.1l0.7-2
		l1.9,0.9c0.3,0.2,0.7,0.4,1,0.6c-0.2-0.3-0.4-0.7-0.6-1l-0.9-1.9l2-0.7c0.4-0.1,0.7-0.2,1.1-0.3c-0.4-0.1-0.8-0.2-1.1-0.3l-2-0.7
		l0.9-1.9c0.2-0.3,0.4-0.7,0.6-1c-0.4,0.2-0.7,0.4-1.1,0.6l-1.8,0.8l-0.7-1.9c-0.1-0.3-0.2-0.8-0.3-1.2c-0.1,0.4-0.2,0.8-0.3,1.1
		l-0.7,2l-1.9-0.9C207.4,98.9,207.1,98.7,206.7,98.5L206.7,98.5z M209.2,101c0.1,0.1,0.2,0.1,0.4,0.2l0.7,0.3l0.3-0.7
		c0-0.1,0.1-0.3,0.1-0.4c0,0.1,0.1,0.3,0.1,0.4l0.3,0.7l0.7-0.3c0.1-0.1,0.3-0.1,0.4-0.2c-0.1,0.1-0.1,0.3-0.2,0.4l-0.3,0.7l0.7,0.2
		c0.1,0,0.3,0.1,0.4,0.1c-0.1,0-0.3,0.1-0.4,0.1l-0.7,0.3l0.3,0.7c0.1,0.1,0.1,0.2,0.2,0.4c-0.1-0.1-0.3-0.2-0.4-0.2l-0.7-0.3
		l-0.2,0.7c0,0.1-0.1,0.3-0.1,0.4c0-0.1-0.1-0.3-0.1-0.4l-0.2-0.7l-0.7,0.3c-0.1,0.1-0.2,0.1-0.4,0.2c0.1-0.1,0.1-0.2,0.2-0.4
		l0.3-0.7l-0.7-0.3c-0.1,0-0.3-0.1-0.4-0.1c0.1,0,0.3-0.1,0.4-0.1l0.7-0.2l-0.3-0.7C209.4,101.3,209.3,101.2,209.2,101z"/>
	<path class="st0" d="M124.9,59c0.2,0.4,0.4,0.7,0.6,1l0.9,1.9l-2,0.7c-0.3,0.1-0.7,0.2-1.1,0.3c0.4,0.1,0.8,0.2,1.1,0.3l2,0.7
		l-0.9,1.9c-0.2,0.3-0.4,0.7-0.6,1c0.3-0.2,0.7-0.4,1-0.5l1.9-1l0.7,2c0.1,0.3,0.2,0.7,0.3,1.1c0.1-0.4,0.2-0.8,0.3-1.1l0.7-2
		l1.9,0.9c0.3,0.2,0.7,0.4,1,0.6c-0.2-0.3-0.4-0.7-0.6-1l-0.9-1.9l2-0.7c0.4-0.1,0.7-0.2,1.1-0.3c-0.4-0.1-0.8-0.2-1.1-0.3l-2-0.7
		l0.9-1.9c0.2-0.3,0.4-0.7,0.6-1c-0.4,0.2-0.7,0.4-1.1,0.6l-1.8,0.8l-0.7-1.9c-0.1-0.3-0.2-0.8-0.3-1.2c-0.1,0.4-0.2,0.8-0.3,1.1
		l-0.7,2l-1.9-0.9C125.5,59.4,125.2,59.3,124.9,59L124.9,59z M127.4,61.5c0.1,0.1,0.2,0.1,0.4,0.2l0.7,0.3l0.3-0.7
		c0-0.1,0.1-0.3,0.1-0.4c0,0.1,0.1,0.3,0.1,0.4l0.3,0.7l0.7-0.3c0.1-0.1,0.3-0.1,0.4-0.2c-0.1,0.1-0.2,0.3-0.2,0.4l-0.3,0.7l0.7,0.2
		c0.1,0,0.3,0.1,0.4,0.1c-0.1,0-0.3,0.1-0.4,0.1l-0.7,0.3L130,64c0.1,0.1,0.1,0.2,0.2,0.4c-0.1-0.1-0.3-0.2-0.4-0.2l-0.7-0.3
		l-0.2,0.7c0,0.1-0.1,0.3-0.1,0.4c0-0.1-0.1-0.3-0.1-0.4l-0.2-0.7l-0.7,0.3c-0.1,0.1-0.2,0.1-0.4,0.2c0.1-0.1,0.1-0.2,0.2-0.4
		l0.3-0.7l-0.7-0.3c-0.1,0-0.3-0.1-0.4-0.1c0.1,0,0.3-0.1,0.4-0.1l0.7-0.2l-0.3-0.7C127.5,61.8,127.4,61.7,127.4,61.5z"/>
	<path class="st0" d="M164.2,1.1c0.2,0.2,0.3,0.5,0.4,0.7l0.6,1.3l-1.4,0.5c-0.2,0.1-0.5,0.2-0.8,0.2c0.3,0.1,0.6,0.1,0.8,0.2
		l1.4,0.5l-0.7,1.3c-0.1,0.2-0.2,0.5-0.4,0.7c0.2-0.1,0.5-0.3,0.7-0.4l1.3-0.7l0.5,1.4c0.1,0.2,0.2,0.5,0.2,0.8
		c0.1-0.3,0.1-0.5,0.2-0.8l0.5-1.4l1.3,0.6c0.2,0.1,0.5,0.3,0.7,0.4c-0.1-0.2-0.3-0.5-0.4-0.7l-0.7-1.3l1.4-0.5
		c0.2-0.1,0.5-0.2,0.8-0.2c-0.3-0.1-0.5-0.1-0.8-0.2l-1.4-0.5l0.6-1.3c0.1-0.2,0.3-0.5,0.4-0.7c-0.3,0.2-0.5,0.3-0.7,0.4l-1.3,0.6
		l-0.5-1.3C167,0.6,167,0.3,166.9,0c-0.1,0.3-0.1,0.6-0.2,0.8l-0.5,1.4l-1.3-0.6C164.6,1.4,164.4,1.3,164.2,1.1L164.2,1.1z
		 M165.9,2.9c0.1,0.1,0.2,0.1,0.3,0.1l0.5,0.2l0.2-0.5c0-0.1,0.1-0.2,0.1-0.3c0,0.1,0.1,0.2,0.1,0.3l0.2,0.5l0.5-0.2
		c0.1,0,0.2-0.1,0.3-0.1c-0.1,0.1-0.1,0.2-0.1,0.3l-0.2,0.5l0.5,0.2c0.1,0,0.2,0.1,0.3,0.1c-0.1,0-0.2,0.1-0.3,0.1l-0.5,0.2l0.2,0.5
		c0,0.1,0.1,0.2,0.1,0.3c-0.1-0.1-0.2-0.1-0.3-0.1l-0.5-0.2L167,5c0,0.1-0.1,0.2-0.1,0.3c0-0.1,0-0.2-0.1-0.3l-0.2-0.5l-0.5,0.2
		c-0.1,0-0.2,0.1-0.3,0.1c0.1-0.1,0.1-0.2,0.1-0.3l0.2-0.5L165.8,4c-0.1,0-0.2-0.1-0.3-0.1c0.1,0,0.2,0,0.3-0.1l0.5-0.2l-0.2-0.5
		C166,3.1,166,3,165.9,2.9z"/>
	<path class="st0" d="M146.6,47.5c-0.2,0.1-0.5,0.3-0.7,0.4l-1.3,0.6l-0.5-1.4c-0.1-0.2-0.2-0.5-0.2-0.8c-0.1,0.3-0.1,0.6-0.2,0.8
		l-0.5,1.3l-1.3-0.6c-0.2-0.1-0.5-0.3-0.7-0.4c0.1,0.2,0.3,0.5,0.4,0.7l0.6,1.3l-1.4,0.5c-0.2,0.1-0.5,0.2-0.8,0.2
		c0.3,0.1,0.6,0.1,0.8,0.2l1.4,0.5l-0.7,1.3c-0.1,0.2-0.3,0.5-0.4,0.7c0.2-0.1,0.5-0.3,0.7-0.4l1.3-0.6l0.5,1.4
		c0.1,0.2,0.2,0.5,0.2,0.8c0.1-0.3,0.1-0.5,0.2-0.8l0.5-1.4l1.3,0.7c0.2,0.1,0.5,0.2,0.7,0.4c-0.1-0.2-0.3-0.5-0.4-0.7l-0.6-1.3
		l1.4-0.5c0.2-0.1,0.5-0.2,0.8-0.2c-0.3-0.1-0.5-0.1-0.8-0.2l-1.4-0.5l0.6-1.3C146.3,48,146.4,47.8,146.6,47.5L146.6,47.5z
		 M144.7,49.5l-0.2,0.5l0.5,0.2c0.1,0,0.2,0.1,0.3,0.1c-0.1,0-0.2,0.1-0.3,0.1l-0.5,0.2l0.2,0.5c0,0.1,0.1,0.2,0.1,0.3
		c-0.1-0.1-0.2-0.1-0.3-0.1l-0.5-0.2l-0.2,0.5c0,0.1-0.1,0.2-0.1,0.3c0-0.1,0-0.2-0.1-0.3l-0.2-0.5l-0.5,0.2c-0.1,0-0.2,0.1-0.3,0.1
		c0.1-0.1,0.1-0.2,0.1-0.3l0.2-0.5l-0.5-0.2c-0.1,0-0.2-0.1-0.3-0.1c0.1,0,0.2,0,0.3-0.1l0.5-0.2l-0.2-0.5c0-0.1-0.1-0.2-0.1-0.3
		c0.1,0.1,0.2,0.1,0.3,0.1l0.5,0.2l0.2-0.5c0-0.1,0.1-0.2,0.1-0.3c0,0.1,0.1,0.2,0.1,0.3l0.2,0.5l0.5-0.2c0.1,0,0.2-0.1,0.3-0.1
		C144.8,49.4,144.7,49.5,144.7,49.5z"/>
	<path class="st0" d="M140.8,72.6c-0.2,0.1-0.3,0.2-0.5,0.3l-0.9,0.5l-0.4-1c-0.1-0.2-0.1-0.4-0.2-0.6c-0.1,0.2-0.1,0.4-0.2,0.6
		l-0.3,0.9l-0.9-0.4c-0.2-0.1-0.4-0.2-0.5-0.3c0.1,0.2,0.2,0.4,0.3,0.5l0.4,0.9l-1,0.3c-0.2,0.1-0.4,0.1-0.5,0.2
		c0.2,0,0.4,0.1,0.6,0.2l1,0.4l-0.5,0.9c-0.1,0.2-0.2,0.3-0.3,0.5c0.2-0.1,0.4-0.2,0.5-0.3l0.9-0.4l0.3,1c0.1,0.2,0.1,0.4,0.2,0.6
		c0-0.2,0.1-0.4,0.2-0.5l0.3-1l1,0.5c0.2,0.1,0.3,0.2,0.5,0.3c-0.1-0.2-0.2-0.3-0.3-0.5l-0.5-0.9l1-0.4c0.2-0.1,0.4-0.1,0.6-0.2
		c-0.2,0-0.4-0.1-0.6-0.2l-1-0.3l0.4-0.9C140.5,73,140.6,72.8,140.8,72.6L140.8,72.6z M139.4,74.1l-0.2,0.3l0.4,0.1
		c0.1,0,0.1,0,0.2,0.1c-0.1,0-0.1,0-0.2,0.1l-0.4,0.1l0.2,0.3c0,0.1,0.1,0.1,0.1,0.2c-0.1,0-0.1-0.1-0.2-0.1L139,75l-0.1,0.4
		c0,0.1,0,0.1-0.1,0.2c0-0.1,0-0.1-0.1-0.2l-0.1-0.4l-0.3,0.2c-0.1,0-0.1,0.1-0.2,0.1c0-0.1,0.1-0.1,0.1-0.2l0.2-0.3l-0.4-0.1
		c-0.1,0-0.1,0-0.2-0.1c0.1,0,0.1,0,0.2-0.1l0.4-0.1l-0.2-0.3c0-0.1-0.1-0.1-0.1-0.2c0.1,0,0.1,0.1,0.2,0.1l0.3,0.2l0.1-0.3
		c0-0.1,0-0.1,0.1-0.2c0,0.1,0,0.1,0.1,0.2l0.1,0.4L139.4,74.1c0-0.1,0-0.2,0.1-0.2C139.5,74,139.4,74,139.4,74.1z"/>
	<path class="st0" d="M193.3,1.3c-0.2,0.1-0.3,0.2-0.5,0.3L191.8,2l-0.4-1c-0.1-0.2-0.1-0.4-0.2-0.6c0,0.2-0.1,0.4-0.2,0.6L190.8,2
		l-0.9-0.4c-0.2-0.1-0.4-0.2-0.5-0.3c0.1,0.2,0.2,0.4,0.3,0.5l0.4,0.9l-1,0.3c-0.2,0.1-0.4,0.1-0.6,0.2c0.2,0,0.4,0.1,0.6,0.2l1,0.4
		l-0.5,0.9c-0.1,0.2-0.2,0.3-0.3,0.5c0.2-0.1,0.4-0.2,0.5-0.3l0.9-0.4l0.3,1c0.1,0.2,0.1,0.4,0.2,0.6c0-0.2,0.1-0.4,0.2-0.5l0.3-1
		l1,0.5c0.2,0.1,0.3,0.2,0.5,0.3c-0.1-0.2-0.2-0.3-0.3-0.5l-0.5-0.9l1-0.4c0.2-0.1,0.4-0.1,0.6-0.2c-0.2,0-0.4-0.1-0.6-0.2l-1-0.3
		l0.4-0.9C193.1,1.6,193.2,1.4,193.3,1.3L193.3,1.3z M191.9,2.7L191.7,3l0.4,0.1c0.1,0,0.1,0,0.2,0.1c-0.1,0-0.1,0-0.2,0.1l-0.4,0.1
		l0.2,0.3c0,0.1,0.1,0.1,0.1,0.2c-0.1,0-0.1-0.1-0.2-0.1l-0.3-0.2L191.4,4c0,0.1,0,0.1-0.1,0.2c0-0.1,0-0.1-0.1-0.2l-0.1-0.4
		l-0.3,0.2c-0.1,0-0.1,0.1-0.2,0.1c0-0.1,0.1-0.1,0.1-0.2l0.2-0.3l-0.4-0.1c-0.1,0-0.1,0-0.2-0.1c0.1,0,0.1,0,0.2-0.1l0.4-0.1
		l-0.2-0.3c0-0.1-0.1-0.1-0.1-0.2c0.1,0,0.1,0.1,0.2,0.1l0.3,0.2l0.1-0.3c0-0.1,0-0.1,0.1-0.2c0,0.1,0,0.1,0.1,0.2l0.1,0.4
		L191.9,2.7c0-0.1,0-0.2,0.1-0.2C192,2.6,191.9,2.6,191.9,2.7z"/>
	<path class="st0" d="M158.1,77.1c-0.2,0.2-0.5,0.3-0.7,0.4l-1.4,0.7l-0.5-1.5c-0.1-0.3-0.2-0.6-0.2-0.8c-0.1,0.3-0.2,0.6-0.3,0.9
		l-0.5,1.4l-1.4-0.6c-0.2-0.1-0.5-0.3-0.8-0.4c0.2,0.3,0.3,0.5,0.4,0.8l0.7,1.4l-1.5,0.5c-0.3,0.1-0.5,0.2-0.8,0.2
		c0.3,0.1,0.6,0.2,0.9,0.2l1.5,0.5l-0.7,1.4c-0.1,0.2-0.3,0.5-0.4,0.7c0.3-0.2,0.5-0.3,0.8-0.4l1.4-0.7l0.5,1.5
		c0.1,0.3,0.2,0.5,0.2,0.8c0.1-0.3,0.1-0.6,0.2-0.8l0.5-1.5l1.4,0.7c0.2,0.1,0.5,0.3,0.7,0.4c-0.2-0.2-0.3-0.5-0.4-0.7l-0.7-1.4
		l1.5-0.5c0.3-0.1,0.6-0.2,0.9-0.2c-0.3-0.1-0.6-0.1-0.8-0.2l-1.5-0.5l0.7-1.4C157.8,77.6,157.9,77.3,158.1,77.1L158.1,77.1z
		 M156.1,79.2l-0.2,0.5l0.5,0.2c0.1,0,0.2,0.1,0.3,0.1c-0.1,0-0.2,0.1-0.3,0.1l-0.5,0.2l0.3,0.5c0,0.1,0.1,0.2,0.1,0.3
		c-0.1-0.1-0.2-0.1-0.3-0.1l-0.5-0.3l-0.2,0.5c0,0.1-0.1,0.2-0.1,0.3c0-0.1-0.1-0.2-0.1-0.3l-0.2-0.5l-0.5,0.2
		c-0.1,0-0.2,0.1-0.3,0.2c0.1-0.1,0.1-0.2,0.1-0.3l0.2-0.5l-0.5-0.2c-0.1,0-0.2-0.1-0.3-0.1c0.1,0,0.2-0.1,0.3-0.1l0.5-0.2l-0.2-0.5
		c0-0.1-0.1-0.2-0.2-0.3c0.1,0.1,0.2,0.1,0.3,0.2l0.5,0.2l0.2-0.5c0-0.1,0.1-0.2,0.1-0.3c0,0.1,0.1,0.2,0.1,0.3l0.2,0.5l0.5-0.2
		c0.1,0,0.2-0.1,0.3-0.2C156.2,79,156.1,79.1,156.1,79.2z"/>
	<path class="st1" d="M206.2,98.5c0.2,0.4,0.4,0.7,0.6,1l0.9,1.9l-2,0.7c-0.3,0.1-0.7,0.2-1.1,0.3c0.4,0.1,0.8,0.2,1.1,0.3l2,0.7
		l-0.9,1.9c-0.2,0.3-0.4,0.7-0.6,1c0.3-0.2,0.7-0.4,1-0.5l1.9-1l0.7,2c0.1,0.3,0.2,0.7,0.3,1.1c0.1-0.4,0.2-0.8,0.3-1.1l0.7-2
		l1.9,0.9c0.3,0.2,0.7,0.4,1,0.6c-0.2-0.3-0.4-0.7-0.6-1l-0.9-1.9l2-0.7c0.4-0.1,0.7-0.2,1.1-0.3c-0.4-0.1-0.8-0.2-1.1-0.3l-2-0.7
		l0.9-1.9c0.2-0.3,0.4-0.7,0.6-1c-0.4,0.2-0.7,0.4-1.1,0.6l-1.8,0.8l-0.7-1.9c-0.1-0.3-0.2-0.8-0.3-1.2c-0.1,0.4-0.2,0.8-0.3,1.1
		l-0.7,2l-1.9-0.9C206.9,98.9,206.5,98.7,206.2,98.5L206.2,98.5z M208.7,101c0.1,0.1,0.2,0.1,0.4,0.2l0.7,0.3l0.3-0.7
		c0-0.1,0.1-0.3,0.1-0.4c0,0.1,0.1,0.3,0.1,0.4l0.3,0.7l0.7-0.3c0.1-0.1,0.3-0.1,0.4-0.2c-0.1,0.1-0.2,0.3-0.2,0.4L211,102l0.7,0.2
		c0.1,0,0.3,0.1,0.4,0.1c-0.1,0-0.3,0.1-0.4,0.1l-0.7,0.3l0.3,0.7c0.1,0.1,0.1,0.2,0.2,0.4c-0.1-0.1-0.3-0.2-0.4-0.2l-0.7-0.3
		l-0.2,0.7c0,0.1-0.1,0.3-0.1,0.4c0-0.1-0.1-0.3-0.1-0.4l-0.2-0.7l-0.7,0.3c-0.1,0.1-0.2,0.1-0.4,0.2c0.1-0.1,0.1-0.2,0.2-0.4
		l0.3-0.7l-0.7-0.3c-0.1,0-0.3-0.1-0.4-0.1c0.1,0,0.3-0.1,0.4-0.1l0.7-0.2l-0.3-0.7C208.8,101.2,208.8,101.1,208.7,101z"/>
	<path class="st1" d="M124.3,59c0.2,0.4,0.4,0.7,0.6,1l0.9,1.9l-2,0.7c-0.3,0.1-0.7,0.2-1.1,0.3c0.4,0.1,0.8,0.2,1.1,0.3l2,0.7
		l-0.9,1.9c-0.2,0.3-0.4,0.7-0.6,1c0.3-0.2,0.7-0.4,1-0.5l1.9-1l0.7,2c0.1,0.3,0.2,0.7,0.3,1.1c0.1-0.4,0.2-0.8,0.3-1.1l0.7-2
		l1.9,0.9c0.3,0.2,0.7,0.4,1,0.6c-0.2-0.3-0.4-0.7-0.6-1l-0.9-1.9l2-0.7c0.4-0.1,0.7-0.2,1.1-0.3c-0.4-0.1-0.8-0.2-1.1-0.3l-2-0.7
		l0.9-1.9c0.2-0.3,0.4-0.7,0.6-1c-0.4,0.2-0.7,0.4-1.1,0.6l-1.8,0.8l-0.7-1.9c-0.1-0.3-0.2-0.8-0.3-1.2c-0.1,0.4-0.2,0.8-0.3,1.1
		l-0.7,2l-1.9-0.9C125,59.4,124.7,59.2,124.3,59L124.3,59z M126.8,61.5c0.1,0.1,0.2,0.1,0.4,0.2l0.7,0.3l0.3-0.7
		c0-0.1,0.1-0.3,0.1-0.4c0,0.1,0.1,0.3,0.1,0.4l0.3,0.7l0.7-0.3c0.1-0.1,0.3-0.1,0.4-0.2c-0.1,0.1-0.1,0.3-0.2,0.4l-0.3,0.7l0.7,0.2
		c0.1,0,0.3,0.1,0.4,0.1c-0.1,0-0.3,0.1-0.4,0.1l-0.7,0.3l0.3,0.7c0.1,0.1,0.1,0.2,0.2,0.4c-0.1-0.1-0.3-0.2-0.4-0.2l-0.7-0.3
		l-0.2,0.7c0,0.1-0.1,0.3-0.1,0.4c0-0.1-0.1-0.3-0.1-0.4l-0.2-0.7l-0.7,0.3c-0.1,0.1-0.2,0.1-0.4,0.2c0.1-0.1,0.1-0.2,0.2-0.4
		l0.3-0.7l-0.7-0.3c-0.1,0-0.3-0.1-0.4-0.1c0.1,0,0.3-0.1,0.4-0.1l0.7-0.2l-0.3-0.7C127,61.8,126.9,61.6,126.8,61.5z"/>
	<path class="st0" d="M10.1,124.7c0.2,0.3,0.3,0.6,0.5,0.8l0.7,1.5l-1.6,0.5c-0.3,0.1-0.6,0.2-0.9,0.2c0.3,0.1,0.6,0.2,0.9,0.3
		l1.6,0.6l-0.7,1.5c-0.1,0.3-0.3,0.5-0.4,0.8c0.3-0.2,0.5-0.3,0.8-0.4l1.5-0.8l0.5,1.6c0.1,0.3,0.2,0.6,0.2,0.9
		c0.1-0.3,0.2-0.6,0.2-0.9l0.5-1.6l1.5,0.7c0.3,0.1,0.6,0.3,0.8,0.5c-0.2-0.3-0.3-0.5-0.4-0.8l-0.7-1.5l1.6-0.6
		c0.3-0.1,0.6-0.2,0.9-0.3c-0.3-0.1-0.6-0.2-0.9-0.2l-1.6-0.5l0.7-1.5c0.1-0.3,0.3-0.6,0.5-0.8c-0.3,0.2-0.6,0.3-0.8,0.5l-1.5,0.7
		l-0.6-1.5c-0.1-0.3-0.2-0.6-0.3-0.9c-0.1,0.3-0.2,0.6-0.3,0.9l-0.6,1.6l-1.5-0.7C10.7,125,10.4,124.8,10.1,124.7L10.1,124.7z
		 M12.1,126.7c0.1,0.1,0.2,0.1,0.3,0.2l0.5,0.3l0.2-0.6c0-0.1,0.1-0.2,0.1-0.3c0,0.1,0.1,0.2,0.1,0.3l0.2,0.5l0.5-0.2
		c0.1,0,0.2-0.1,0.3-0.2c-0.1,0.1-0.1,0.2-0.2,0.3l-0.3,0.5l0.6,0.2c0.1,0,0.2,0.1,0.3,0.1c-0.1,0-0.2,0.1-0.3,0.1l-0.6,0.2l0.3,0.5
		c0,0.1,0.1,0.2,0.2,0.3c-0.1-0.1-0.2-0.1-0.3-0.2l-0.5-0.3l-0.2,0.6c0,0.1-0.1,0.2-0.1,0.3c0-0.1-0.1-0.2-0.1-0.3l-0.2-0.6
		l-0.6,0.3c-0.1,0-0.2,0.1-0.3,0.2c0.1-0.1,0.1-0.2,0.2-0.3l0.3-0.5l-0.6-0.2c-0.1,0-0.2-0.1-0.3-0.1c0.1,0,0.2-0.1,0.3-0.1l0.6-0.2
		l-0.3-0.5C12.3,126.9,12.2,126.8,12.1,126.7z"/>
	<path class="st1" d="M9.7,124.6c0.2,0.3,0.3,0.6,0.5,0.8l0.7,1.5l-1.6,0.5c-0.3,0.1-0.6,0.2-0.9,0.2c0.3,0.1,0.6,0.2,0.9,0.3
		l1.6,0.6l-0.7,1.5c-0.1,0.3-0.3,0.5-0.4,0.8c0.3-0.2,0.5-0.3,0.8-0.4l1.5-0.8l0.5,1.6c0.1,0.3,0.2,0.6,0.2,0.9
		c0.1-0.3,0.2-0.6,0.2-0.9l0.5-1.6l1.5,0.7c0.3,0.1,0.6,0.3,0.8,0.5c-0.2-0.3-0.3-0.5-0.4-0.8l-0.7-1.5l1.6-0.6
		c0.3-0.1,0.6-0.2,0.9-0.3c-0.3-0.1-0.6-0.2-0.9-0.2l-1.6-0.5l0.7-1.5c0.1-0.3,0.3-0.6,0.5-0.8c-0.3,0.2-0.6,0.3-0.8,0.5l-1.5,0.7
		l-0.6-1.5c-0.1-0.3-0.2-0.6-0.3-0.9c-0.1,0.3-0.2,0.6-0.3,0.9l-0.6,1.6l-1.5-0.7C10.2,125,10,124.8,9.7,124.6L9.7,124.6z
		 M11.7,126.6c0.1,0.1,0.2,0.1,0.3,0.2l0.5,0.3l0.2-0.6c0-0.1,0.1-0.2,0.1-0.3c0,0.1,0.1,0.2,0.1,0.3l0.2,0.5l0.5-0.2
		c0.1,0,0.2-0.1,0.3-0.2c-0.1,0.1-0.1,0.2-0.2,0.3l-0.3,0.5l0.6,0.2c0.1,0,0.2,0.1,0.3,0.1c-0.1,0-0.2,0.1-0.3,0.1l-0.6,0.2l0.3,0.5
		c0,0.1,0.1,0.2,0.2,0.3c-0.1-0.1-0.2-0.1-0.3-0.2l-0.5-0.3l-0.2,0.6c0,0.1-0.1,0.2-0.1,0.3c0-0.1-0.1-0.2-0.1-0.3l-0.2-0.6
		l-0.6,0.3c-0.1,0-0.2,0.1-0.3,0.2c0.1-0.1,0.1-0.2,0.2-0.3l0.3-0.5l-0.6-0.2c-0.1,0-0.2-0.1-0.3-0.1c0.1,0,0.2-0.1,0.3-0.1l0.6-0.2
		l-0.3-0.5C11.8,126.8,11.8,126.7,11.7,126.6z"/>
	<path class="st1" d="M182.2,58.5c0.2,0.2,0.3,0.5,0.4,0.7l0.6,1.3l-1.4,0.5c-0.2,0.1-0.5,0.2-0.8,0.2c0.3,0.1,0.6,0.1,0.8,0.2
		l1.4,0.5l-0.7,1.3c-0.1,0.2-0.2,0.5-0.4,0.7c0.2-0.1,0.5-0.3,0.7-0.4l1.3-0.7l0.5,1.4c0.1,0.2,0.2,0.5,0.2,0.8
		c0.1-0.3,0.1-0.5,0.2-0.8l0.5-1.4l1.3,0.6c0.2,0.1,0.5,0.3,0.7,0.4c-0.1-0.2-0.3-0.5-0.4-0.7l-0.6-1.3l1.4-0.5
		c0.2-0.1,0.5-0.2,0.8-0.2c-0.3-0.1-0.5-0.1-0.8-0.2l-1.4-0.5l0.6-1.3c0.1-0.2,0.3-0.5,0.4-0.7c-0.3,0.2-0.5,0.3-0.7,0.4l-1.3,0.6
		l-0.5-1.3c-0.1-0.2-0.2-0.5-0.2-0.8c-0.1,0.3-0.1,0.6-0.2,0.8l-0.5,1.4l-1.3-0.6C182.7,58.7,182.5,58.6,182.2,58.5L182.2,58.5z
		 M184,60.2c0.1,0.1,0.2,0.1,0.3,0.1l0.5,0.2l0.2-0.5c0-0.1,0.1-0.2,0.1-0.3c0,0.1,0.1,0.2,0.1,0.3l0.2,0.5l0.5-0.2
		c0.1,0,0.2-0.1,0.3-0.1c-0.1,0.1-0.1,0.2-0.1,0.3l-0.2,0.5l0.5,0.2c0.1,0,0.2,0.1,0.3,0.1c-0.1,0-0.2,0.1-0.3,0.1l-0.5,0.2l0.2,0.5
		c0,0.1,0.1,0.2,0.1,0.3c-0.1-0.1-0.2-0.1-0.3-0.1l-0.5-0.2l-0.2,0.5c0,0.1-0.1,0.2-0.1,0.3c0-0.1,0-0.2-0.1-0.3l-0.2-0.5l-0.5,0.2
		c-0.1,0-0.2,0.1-0.3,0.1c0.1-0.1,0.1-0.2,0.1-0.3l0.2-0.5l-0.5-0.2c-0.1,0-0.2-0.1-0.3-0.1c0.1,0,0.2,0,0.3-0.1l0.5-0.2l-0.2-0.5
		C184.1,60.4,184,60.3,184,60.2z"/>
	<path class="st1" d="M146,47.5c-0.2,0.1-0.5,0.3-0.7,0.4l-1.3,0.6l-0.5-1.4c-0.1-0.2-0.2-0.5-0.2-0.8c-0.1,0.3-0.1,0.6-0.2,0.8
		l-0.5,1.3l-1.3-0.6c-0.2-0.1-0.5-0.3-0.7-0.4c0.1,0.2,0.3,0.5,0.4,0.7l0.6,1.3l-1.4,0.5c-0.2,0.1-0.5,0.2-0.8,0.2
		c0.3,0.1,0.6,0.1,0.8,0.2l1.4,0.5l-0.6,1.3c-0.1,0.2-0.3,0.5-0.4,0.7c0.2-0.2,0.5-0.3,0.7-0.4l1.3-0.6l0.5,1.4
		c0.1,0.2,0.2,0.5,0.2,0.8c0.1-0.3,0.1-0.5,0.2-0.8l0.5-1.4l1.3,0.7c0.2,0.1,0.5,0.2,0.7,0.4c-0.1-0.2-0.3-0.5-0.4-0.7L145,51
		l1.4-0.5c0.2-0.1,0.5-0.2,0.8-0.2c-0.3-0.1-0.5-0.1-0.8-0.2l-1.4-0.5l0.6-1.3C145.7,48,145.9,47.7,146,47.5L146,47.5z M144.1,49.5
		l-0.2,0.5l0.5,0.2c0.1,0,0.2,0.1,0.3,0.1c-0.1,0-0.2,0.1-0.3,0.1l-0.5,0.2l0.2,0.5c0,0.1,0.1,0.2,0.1,0.3c-0.1,0-0.2-0.1-0.3-0.1
		l-0.5-0.2l-0.2,0.5c0,0.1-0.1,0.2-0.1,0.3c0-0.1,0-0.2-0.1-0.3l-0.2-0.5l-0.5,0.2c-0.1,0-0.2,0.1-0.3,0.1c0.1-0.1,0.1-0.2,0.1-0.3
		l0.2-0.5l-0.5-0.2c-0.1,0-0.2-0.1-0.3-0.1c0.1,0,0.2,0,0.3-0.1l0.5-0.2l-0.2-0.5c0-0.1-0.1-0.2-0.1-0.3c0.1,0.1,0.2,0.1,0.3,0.1
		l0.5,0.2l0.2-0.5c0-0.1,0.1-0.2,0.1-0.3c0,0.1,0.1,0.2,0.1,0.3l0.2,0.5l0.5-0.2c0.1,0,0.2-0.1,0.3-0.1
		C144.2,49.3,144.2,49.4,144.1,49.5z"/>
	<path class="st1" d="M140.2,72.6c-0.2,0.1-0.3,0.2-0.5,0.3l-0.9,0.5l-0.4-1c-0.1-0.2-0.1-0.4-0.2-0.6c0,0.2-0.1,0.4-0.2,0.6
		l-0.3,0.9l-0.9-0.4c-0.2-0.1-0.4-0.2-0.5-0.3c0.1,0.2,0.2,0.4,0.3,0.5l0.4,0.9l-1,0.3c-0.2,0.1-0.4,0.1-0.5,0.2
		c0.2,0,0.4,0.1,0.6,0.2l1,0.4l-0.5,0.9c-0.1,0.2-0.2,0.3-0.3,0.5c0.2-0.1,0.4-0.2,0.5-0.3l0.9-0.4l0.3,1c0.1,0.2,0.1,0.4,0.2,0.6
		c0-0.2,0.1-0.4,0.2-0.5l0.3-1l1,0.5c0.2,0.1,0.3,0.2,0.5,0.3c-0.1-0.2-0.2-0.3-0.3-0.5l-0.5-0.9l1-0.4c0.2-0.1,0.4-0.1,0.6-0.2
		c-0.2,0-0.4-0.1-0.6-0.2l-1-0.3l0.4-0.9C140,72.9,140.1,72.8,140.2,72.6L140.2,72.6z M138.9,74l-0.2,0.3l0.4,0.1
		c0.1,0,0.1,0,0.2,0.1c-0.1,0-0.1,0-0.2,0.1l-0.4,0.1l0.2,0.3c0,0.1,0.1,0.1,0.1,0.2c-0.1,0-0.1-0.1-0.2-0.1l-0.3-0.2l-0.1,0.4
		c0,0.1,0,0.1-0.1,0.2c0-0.1,0-0.1-0.1-0.2l-0.1-0.4l-0.3,0.2c-0.1,0-0.1,0.1-0.2,0.1c0-0.1,0.1-0.1,0.1-0.2l0.2-0.3l-0.4-0.1
		c-0.1,0-0.1,0-0.2-0.1c0.1,0,0.1,0,0.2-0.1l0.4-0.1l-0.2-0.3c0-0.1-0.1-0.1-0.1-0.2c0.1,0,0.1,0.1,0.2,0.1l0.3,0.2l0.1-0.3
		c0-0.1,0-0.1,0.1-0.2c0,0.1,0,0.1,0.1,0.2l0.1,0.4L138.9,74c0-0.1,0-0.2,0.1-0.2C138.9,73.9,138.9,74,138.9,74z"/>
	<path class="st0" d="M225.6,111.1c-0.2,0.1-0.3,0.2-0.5,0.3l-0.9,0.5l-0.4-1c-0.1-0.2-0.1-0.4-0.2-0.6c-0.1,0.2-0.1,0.4-0.2,0.6
		l-0.3,0.9l-0.9-0.4c-0.2-0.1-0.4-0.2-0.5-0.3c0.1,0.2,0.2,0.4,0.3,0.5l0.4,0.9l-1,0.3c-0.2,0.1-0.4,0.1-0.5,0.2
		c0.2,0,0.4,0.1,0.6,0.2l1,0.4l-0.5,0.9c-0.1,0.2-0.2,0.3-0.3,0.5c0.2-0.1,0.4-0.2,0.5-0.3l0.9-0.4l0.3,1c0.1,0.2,0.1,0.4,0.2,0.6
		c0-0.2,0.1-0.4,0.2-0.5l0.3-1l1,0.5c0.2,0.1,0.3,0.2,0.5,0.3c-0.1-0.2-0.2-0.3-0.3-0.5l-0.5-0.9l1-0.4c0.2-0.1,0.4-0.1,0.6-0.2
		c-0.2,0-0.4-0.1-0.6-0.2l-1-0.3l0.4-0.9C225.4,111.5,225.5,111.3,225.6,111.1L225.6,111.1z M224.2,112.6l-0.2,0.3l0.4,0.1
		c0.1,0,0.1,0,0.2,0.1c-0.1,0-0.1,0-0.2,0.1l-0.4,0.1l0.2,0.3c0,0.1,0.1,0.1,0.1,0.2c-0.1,0-0.1-0.1-0.2-0.1l-0.3-0.2l-0.1,0.4
		c0,0.1,0,0.1-0.1,0.2c0-0.1,0-0.1-0.1-0.2l-0.1-0.4l-0.3,0.2c-0.1,0-0.1,0.1-0.2,0.1c0-0.1,0.1-0.1,0.1-0.2l0.2-0.3l-0.4-0.1
		c-0.1,0-0.1,0-0.2-0.1c0.1,0,0.1,0,0.2-0.1l0.4-0.1l-0.2-0.3c0-0.1-0.1-0.1-0.1-0.2c0.1,0,0.1,0.1,0.2,0.1l0.3,0.2l0.1-0.3
		c0-0.1,0-0.1,0.1-0.2c0,0.1,0,0.1,0.1,0.2l0.1,0.4L224.2,112.6c0-0.1,0-0.2,0.1-0.2C224.3,112.4,224.2,112.5,224.2,112.6z"/>
	<path class="st1" d="M225,111.1c-0.2,0.1-0.3,0.2-0.5,0.3l-0.9,0.5l-0.4-1c-0.1-0.2-0.1-0.4-0.2-0.6c0,0.2-0.1,0.4-0.2,0.6
		l-0.3,0.9l-0.9-0.4c-0.2-0.1-0.4-0.2-0.5-0.3c0.1,0.2,0.2,0.4,0.3,0.5l0.4,0.9l-1,0.3c-0.2,0.1-0.4,0.1-0.5,0.2
		c0.2,0,0.4,0.1,0.6,0.2l1,0.4l-0.5,0.9c-0.1,0.2-0.2,0.3-0.3,0.5c0.2-0.1,0.4-0.2,0.5-0.3l0.9-0.4l0.3,1c0.1,0.2,0.1,0.4,0.2,0.6
		c0-0.2,0.1-0.4,0.2-0.5l0.3-1l1,0.5c0.2,0.1,0.3,0.2,0.5,0.3c-0.1-0.2-0.2-0.3-0.3-0.5l-0.5-0.9l1-0.4c0.2-0.1,0.4-0.1,0.6-0.2
		c-0.2,0-0.4-0.1-0.6-0.2l-1-0.3l0.4-0.9C224.8,111.4,224.9,111.3,225,111.1L225,111.1z M223.7,112.5l-0.2,0.3l0.4,0.1
		c0.1,0,0.1,0,0.2,0.1c-0.1,0-0.1,0-0.2,0.1l-0.4,0.1l0.2,0.3c0,0.1,0.1,0.1,0.1,0.2c-0.1,0-0.1-0.1-0.2-0.1l-0.3-0.2l-0.1,0.4
		c0,0.1,0,0.1-0.1,0.2c0-0.1,0-0.1-0.1-0.2l-0.1-0.4l-0.3,0.2c-0.1,0-0.1,0.1-0.2,0.1c0-0.1,0.1-0.1,0.1-0.2l0.2-0.3l-0.4-0.1
		c-0.1,0-0.1,0-0.2-0.1c0.1,0,0.1,0,0.2-0.1l0.4-0.1l-0.2-0.3c0-0.1-0.1-0.1-0.1-0.2c0.1,0,0.1,0.1,0.2,0.1l0.3,0.2l0.1-0.3
		c0-0.1,0-0.1,0.1-0.2c0,0.1,0,0.1,0.1,0.2l0.1,0.4L223.7,112.5c0-0.1,0-0.2,0.1-0.2C223.7,112.4,223.7,112.5,223.7,112.5z"/>
	<path class="st1" d="M210.7,74.4c-0.2,0.1-0.3,0.2-0.5,0.3l-0.9,0.5l-0.4-1c-0.1-0.2-0.1-0.4-0.2-0.6c-0.1,0.2-0.1,0.4-0.2,0.6
		l-0.3,0.9l-0.9-0.4c-0.2-0.1-0.4-0.2-0.5-0.3c0.1,0.2,0.2,0.4,0.3,0.5l0.4,0.9l-1,0.3c-0.2,0.1-0.4,0.1-0.6,0.2
		c0.2,0,0.4,0.1,0.6,0.2l1,0.4l-0.5,0.9c-0.1,0.2-0.2,0.3-0.3,0.5c0.2-0.1,0.4-0.2,0.5-0.3l0.9-0.4l0.3,1c0.1,0.2,0.1,0.4,0.2,0.6
		c0-0.2,0.1-0.4,0.2-0.5l0.3-1l1,0.5c0.2,0.1,0.3,0.2,0.5,0.3c-0.1-0.2-0.2-0.3-0.3-0.5l-0.5-0.9l1-0.4c0.2-0.1,0.4-0.1,0.6-0.2
		c-0.2,0-0.4-0.1-0.5-0.2l-1-0.3l0.4-0.9C210.5,74.8,210.6,74.6,210.7,74.4L210.7,74.4z M209.4,75.9l-0.2,0.3l0.4,0.1
		c0.1,0,0.1,0,0.2,0.1c-0.1,0-0.1,0-0.2,0.1l-0.4,0.1l0.2,0.3c0,0.1,0.1,0.1,0.1,0.2c-0.1,0-0.1-0.1-0.2-0.1l-0.3-0.2l-0.1,0.4
		c0,0.1,0,0.1-0.1,0.2c0-0.1,0-0.1-0.1-0.2l-0.1-0.4l-0.3,0.2c-0.1,0-0.1,0.1-0.2,0.1c0-0.1,0.1-0.1,0.1-0.2l0.2-0.3l-0.4-0.1
		c-0.1,0-0.1,0-0.2-0.1c0.1,0,0.1,0,0.2-0.1l0.4-0.1l-0.2-0.3c0-0.1-0.1-0.1-0.1-0.2c0.1,0,0.1,0.1,0.2,0.1l0.3,0.2l0.1-0.3
		c0-0.1,0-0.1,0.1-0.2c0,0.1,0,0.1,0.1,0.2l0.1,0.4L209.4,75.9c0-0.1,0-0.2,0.1-0.2C209.5,75.7,209.4,75.8,209.4,75.9z"/>
	<path class="st1" d="M157.7,77c-0.2,0.2-0.5,0.3-0.7,0.4l-1.4,0.7l-0.5-1.5c-0.1-0.3-0.2-0.5-0.2-0.8c-0.1,0.3-0.2,0.6-0.3,0.9
		l-0.5,1.4l-1.4-0.6c-0.2-0.1-0.5-0.3-0.8-0.4c0.2,0.3,0.3,0.5,0.4,0.8l0.7,1.4l-1.5,0.5c-0.3,0.1-0.5,0.2-0.8,0.2
		c0.3,0.1,0.6,0.2,0.9,0.2l1.5,0.5l-0.7,1.4c-0.1,0.2-0.3,0.5-0.4,0.7c0.3-0.2,0.5-0.3,0.8-0.4l1.4-0.7l0.5,1.5
		c0.1,0.3,0.2,0.5,0.2,0.8c0.1-0.3,0.1-0.6,0.2-0.8l0.5-1.5l1.4,0.7c0.2,0.1,0.5,0.3,0.7,0.4c-0.2-0.2-0.3-0.5-0.4-0.7l-0.7-1.4
		l1.5-0.5c0.3-0.1,0.6-0.2,0.8-0.2c-0.3-0.1-0.6-0.1-0.8-0.2l-1.5-0.5l0.7-1.4C157.4,77.6,157.5,77.3,157.7,77L157.7,77z
		 M155.7,79.2l-0.2,0.5l0.5,0.2c0.1,0,0.2,0.1,0.3,0.1c-0.1,0-0.2,0.1-0.3,0.1l-0.5,0.2l0.3,0.5c0,0.1,0.1,0.2,0.1,0.3
		c-0.1-0.1-0.2-0.1-0.3-0.1l-0.5-0.3l-0.2,0.5c0,0.1-0.1,0.2-0.1,0.3c0-0.1-0.1-0.2-0.1-0.3l-0.2-0.5l-0.5,0.2
		c-0.1,0-0.2,0.1-0.3,0.2c0.1-0.1,0.1-0.2,0.1-0.3l0.2-0.5l-0.5-0.2c-0.1,0-0.2-0.1-0.3-0.1c0.1,0,0.2-0.1,0.3-0.1l0.5-0.2l-0.2-0.5
		c0-0.1-0.1-0.2-0.2-0.3c0.1,0.1,0.2,0.1,0.3,0.2l0.5,0.2l0.2-0.5c0-0.1,0.1-0.2,0.1-0.3c0,0.1,0.1,0.2,0.1,0.3l0.2,0.5l0.5-0.2
		c0.1,0,0.2-0.1,0.3-0.2C155.8,79,155.7,79.1,155.7,79.2z"/>
	<circle class="st2" cx="158.6" cy="48.7" r="1.4"/>
	<circle class="st2" cx="194" cy="86.9" r="1.4"/>
	<circle class="st2" cx="174.7" cy="77.9" r="1.4"/>
	<circle class="st2" cx="148.3" cy="92.8" r="1.4"/>
	<circle class="st2" cx="242.3" cy="97.9" r="1.4"/>
	<circle class="st2" cx="229.8" cy="134.2" r="1.4"/>
	<g>
		<defs>
			<path id="SVGID_1_" d="M191.8,108.2c0-1.4,0.5-2.7,1.4-3.8l-6.3-13.9l-14.1,6.2c-0.1,1.4-0.6,2.7-1.6,3.7
				c-1.1,1.1-2.7,1.8-4.3,1.8c-1.5,0-3-0.6-4.1-1.6c-1.2-1.1-1.8-2.5-1.9-4.1c0-1.6,0.5-3,1.6-4.2c1-1,2.3-1.6,3.7-1.8l5.5-14.2
				L157.3,71c-1.1,0.9-2.4,1.5-3.8,1.5c0,0-0.1,0-0.2,0c-2.4,0-4.5-6.5-5.4-8.5H45.4l-0.1,46.8c0,0,34.1,5.5,45.9,5.8
				c19,0.5,28,1.5,39.2,1.5c11.2,0,58-2.1,64.5-3.9C197.2,113.9,192.1,109.4,191.8,108.2z"/>
		</defs>
		<clipPath id="SVGID_2_">
			<use xlink:href="#SVGID_1_"  style="overflow:visible;"/>
		</clipPath>
		<g transform="matrix(9.495000e-003 0 0 1.000100e-002 53.0117 68.3447)" style="clip-path:url(#SVGID_2_);">
			
				<image style="overflow:visible;" width="16100" height="5000" xlink:href="61CCD7F4.png"  transform="matrix(9.495000e-003 0 0 1.000100e-002 53.0117 68.3447)">
			</image>
		</g>
	</g>
</g>
<g id="star">
	<path class="st2" d="M47.2,126.3c-0.1,0.6-0.3,1.6-0.6,2.7c-0.3,1.2-0.5,2.1-0.6,2.7c-0.2,0.8-0.3,1.5-0.3,2.1
		c-0.1,0.6-0.1,1.1,0,1.5c0.1,0.4,0.2,0.8,0.5,1c0.3,0.3,0.6,0.4,1.1,0.5c0.6,0.1,1.3,0.1,2.1-0.1c0-1,0.1-1.9,0.2-2.9
		c0.1-0.9,0.4-2.3,0.7-4.2c0.1-0.4,0.2-0.9,0.3-1.4c0.1-0.6,0.2-1,0.3-1.3c0.1,0.7,0.2,1.6,0.4,2.7c0.3,2.6,2.3,9.1,2.7,10.3
		c0.7,2.2,2.9,4.7,5.2,3.8c1.7-0.7,2-1.9,1.6-2.1c-0.9-0.3-1.9,0.3-2.9-2.2c-0.3-0.8-1.3-5-2-8.2c-0.3-1.5-0.6-2.7-0.7-3.3
		c-0.1-0.6-0.2-1-0.2-1.2c0-0.2-0.1-0.4-0.1-0.5c-0.2-0.8-0.3-1.5-0.3-1.9c0.3-0.2,0.8-0.6,1.4-1.1c0.4-0.4,0.7-0.6,0.8-0.7
		c0.1-0.1,0.2-0.2,0.5-0.4c0.5-0.4,0.9-0.8,1.1-1.1c0.3-0.4,0.5-0.9,0.6-1.6c0.1-0.5,0.1-0.9,0-1.2c-0.1-0.3-0.2-0.6-0.3-0.8
		c-0.2-0.2-0.3-0.4-0.5-0.5c-0.2-0.1-0.4-0.2-0.7-0.2c-0.3,0-0.6,0-1.1,0.1c-0.2,0.7-0.4,1.4-0.8,2.1c-0.4,0.7-0.8,1.3-1.2,1.9
		c-0.4,0.6-0.9,1.1-1.3,1.6c-0.5,0.5-1,1-1.5,1.5c-0.1,0.1-0.2,0.2-0.2,0.2c0.1-0.5,0.3-1.3,0.5-2.3c0.2-1,0.4-1.8,0.5-2.2
		c0.2-1.2,0.2-2.1-0.1-2.8c-0.3-0.7-0.7-1.1-1.4-1.2c-0.5-0.1-1.1-0.1-1.8,0.1c-0.1,0.9-0.3,1.8-0.4,2.7c-0.2,0.8-0.3,1.6-0.4,2.3
		L47.2,126.3z"/>
	<path class="st2" d="M187.6,130.4c0.1,0.7,0.2,1.6,0.3,2.8c0.1,1.2,0.2,2.1,0.3,2.8c0.1,0.8,0.2,1.5,0.4,2.1c0.1,0.6,0.3,1,0.5,1.4
		c0.2,0.4,0.5,0.7,0.8,0.8c0.3,0.2,0.7,0.2,1.2,0.2c0.6-0.1,1.3-0.3,2-0.8c-0.3-0.9-0.5-1.9-0.7-2.8c-0.2-0.9-0.4-2.3-0.7-4.2
		c-0.1-0.4-0.1-0.9-0.2-1.4c-0.1-0.6-0.1-1-0.2-1.3c0.3,0.6,0.7,1.4,1.2,2.5c1.1,2.4,5.1,8,5.9,9c1.4,1.9,4.3,3.6,6.2,1.9
		c1.4-1.2,1.2-2.5,0.8-2.5c-0.9,0-1.7,1-3.4-1.2c-0.5-0.7-2.9-4.4-4.5-7.2c-0.8-1.3-1.4-2.4-1.7-2.9c-0.3-0.5-0.5-0.8-0.6-1.1
		l-0.2-0.4c-0.4-0.8-0.7-1.3-0.9-1.7c0.2-0.3,0.5-0.8,0.9-1.5c0.3-0.5,0.4-0.8,0.5-1c0-0.1,0.1-0.2,0.3-0.5c0.3-0.5,0.6-1,0.7-1.4
		c0.1-0.4,0.1-1,0-1.7c-0.1-0.5-0.2-0.8-0.4-1.1c-0.2-0.3-0.3-0.5-0.6-0.7c-0.2-0.1-0.4-0.2-0.7-0.3c-0.2,0-0.5,0-0.7,0
		c-0.3,0-0.6,0.2-1,0.4c0.1,0.7,0.1,1.5-0.1,2.2c-0.1,0.8-0.3,1.5-0.5,2.2c-0.2,0.7-0.5,1.3-0.8,1.9c-0.3,0.6-0.6,1.2-0.9,1.9
		c-0.1,0.1-0.1,0.2-0.1,0.2c-0.1-0.5-0.2-1.3-0.2-2.3c-0.1-1-0.2-1.8-0.2-2.3c-0.2-1.2-0.5-2.1-1-2.6c-0.5-0.6-1.1-0.8-1.7-0.7
		c-0.5,0.1-1.1,0.3-1.7,0.6c0.2,0.9,0.3,1.8,0.4,2.7c0.1,0.8,0.2,1.6,0.3,2.3L187.6,130.4z"/>
	<path class="st2" d="M65.1,137.3c0,0.5,0.1,0.9,0.3,1.3c0.1,0.4,0.4,0.7,0.7,1c0.3,0.2,0.7,0.4,1.2,0.5c0.7,0.1,1.5,0,2.4-0.4
		c-0.2-1.8-0.4-3.8-0.6-6.1c-0.1-1.9-0.3-4.8-0.4-8.7c0-1.3-0.1-2.4-0.1-3.4c0-1.2-0.2-2.1-0.5-2.6c-0.3-0.5-0.8-0.8-1.5-0.9
		c-0.4-0.1-0.7-0.1-1.1,0c-0.3,0-0.7,0.2-1.1,0.3c0.1,0.5,0.2,0.9,0.3,1.3c0,0-4,10.9-4.5,12.1c-1.2,2.9-2,6.5,0.8,7.2
		C62.7,139.4,63.6,138.3,65.1,137.3z M65.1,134.6c0,0-1.8,1.6-2.7-0.3c-0.4-1,0.6-3.9,0.6-3.9l1.9-5.8L65.1,134.6z"/>
	<path class="st2" d="M129.6,141.5c0.1,0.5,0.2,0.9,0.4,1.3c0.2,0.4,0.4,0.7,0.8,0.9c0.3,0.2,0.8,0.3,1.3,0.3c0.7,0,1.5-0.2,2.3-0.7
		c-0.5-1.8-0.9-3.8-1.3-5.9c-0.4-1.9-0.9-4.7-1.5-8.6c-0.2-1.3-0.4-2.4-0.6-3.4c-0.2-1.2-0.5-2.1-0.8-2.5c-0.3-0.4-0.9-0.7-1.6-0.7
		c-0.4,0-0.8,0-1.1,0.1c-0.3,0.1-0.7,0.2-1.1,0.4c0.2,0.4,0.4,0.9,0.5,1.2c0,0-2.5,11.4-2.9,12.6c-0.8,3-1.1,6.7,1.8,7
		C127.5,143.9,128.3,142.7,129.6,141.5z M129.2,138.9c0,0-1.6,1.9-2.7,0c-0.6-0.9,0.1-3.9,0.1-3.9l1.1-6L129.2,138.9z"/>
	<path class="st2" d="M207.8,135.4c0.2,0.5,0.4,0.9,0.7,1.2c0.3,0.3,0.6,0.6,0.9,0.7c0.4,0.1,0.8,0.1,1.3,0c0.7-0.1,1.5-0.5,2.2-1.1
		c-0.8-1.6-1.7-3.5-2.6-5.5c-0.8-1.8-1.8-4.5-3.2-8.1c-0.5-1.2-0.9-2.2-1.2-3.2c-0.4-1.2-0.9-1.9-1.3-2.3c-0.4-0.4-1-0.5-1.7-0.4
		c-0.4,0.1-0.7,0.2-1,0.3c-0.3,0.1-0.6,0.4-1,0.6c0.3,0.4,0.5,0.8,0.7,1.1c0,0-0.2,11.6-0.3,12.9c-0.2,3.1,0.2,6.8,3.1,6.5
		C206.1,138.1,206.6,136.7,207.8,135.4z M206.8,132.8c0,0-1.2,2.1-2.7,0.5c-0.7-0.8-0.7-3.9-0.7-3.9l-0.1-6.1L206.8,132.8z"/>
	<path class="st2" d="M70.8,138.4c-0.1,0.8,0,1.3,0.2,1.6c0.3,0.3,0.6,0.4,1.1,0.5c0.3,0,0.6,0,0.8,0c0.2,0,0.4-0.1,0.7-0.2
		c0-0.4-0.1-0.7-0.1-1c0-0.3,0-0.6,0.1-1c0.1-0.7,0.2-1.5,0.5-2.5c0.2-1,0.5-2.1,0.9-3.2c0.3-1.1,0.7-2.2,1-3.2
		c0.3-1,0.6-1.9,0.9-2.7c0,1,0,2.4,0.1,4.4c0,0.9,0.1,1.5,0.1,2c0.1,1.4,0.1,3.1,0.2,5.1c0,1,0.2,1.8,0.6,2.3
		c0.3,0.5,0.8,0.8,1.4,0.9c0.8,0.1,1.8-0.1,2.8-0.5c-0.3-1.8-0.6-3.9-0.9-6.2c-0.2-2.3-0.4-4.5-0.5-6.5l0-0.8l-0.1-2l-0.1-1.9
		c0-0.6-0.1-1.2-0.2-1.7c-0.1-0.5-0.2-0.9-0.3-1.1c-0.1-0.3-0.3-0.5-0.6-0.6c-0.2-0.1-0.5-0.2-0.8-0.3c-0.5,0-1.1,0.1-1.9,0.4
		c-1.1,3.9-2.2,7.2-3.2,9.8l-0.2,0.6c-0.3,0.8-0.6,1.6-0.8,2.3l-0.8,2.1c-0.3,0.7-0.5,1.4-0.7,2.1C71,137.5,70.9,138,70.8,138.4z"/>
	<path class="st2" d="M121.7,132.6c0-0.8,0.1-1.9,0.1-3.2c0.1-1.3,0.1-2.4,0.1-3.2c0-1.4-0.1-2.5-0.5-3.1c-0.4-0.6-1-0.9-1.8-1
		c-0.3,0-0.6,0-0.8,0.1c-0.3,0.1-0.6,0.2-0.9,0.4c0.1,0.9,0.1,1.8,0.1,2.8c0,1,0,2.1-0.1,3.5l0,1.7l-2.4-0.1c0-0.4,0-1,0.1-1.8
		c0-0.8,0.1-1.4,0.1-1.9c0-1,0-1.7,0-2.3c-0.1-0.6-0.2-1.1-0.3-1.5c-0.2-0.4-0.4-0.6-0.8-0.8c-0.3-0.2-0.8-0.3-1.3-0.3
		c-0.4,0-0.9,0.1-1.5,0.3c0.1,1.5,0.1,3.4,0,5.7l-0.2,4c0,0.9-0.1,2.2-0.2,3.9c-0.1,1.7-0.2,3-0.2,3.9c-0.1,1.3,0.1,2.2,0.6,2.8
		c0.4,0.6,1,0.9,1.8,0.9c0.5,0,1.1-0.1,1.8-0.4c0-1.1-0.1-2.1-0.1-3c0-0.9,0-2.2,0.1-4l0.1-1.9l2.5,0.1c0,0.5,0,1.3-0.1,2.5
		c-0.1,1.4-0.1,2.4-0.1,3c0,1.3,0.2,2.3,0.6,2.8c0.4,0.6,1.1,0.9,1.8,0.9c0.5,0,1.1-0.1,1.7-0.3c-0.1-0.8-0.1-1.5-0.1-2.2
		c0-0.7,0-1.7,0-3.1L121.7,132.6z"/>
	<path class="st2" d="M84.5,141.5c0.5,0.5,1,0.7,1.5,0.8c0.5,0,1-0.4,1.6-1.2c0.5-0.9,1-1.9,1.5-3.3c0.4-1.3,0.8-2.6,1.2-4
		c0.3-1.3,0.6-2.5,0.8-3.5c-0.5-0.1-0.9-0.5-1.1-1.1c-0.2-0.6-0.3-1.4-0.2-2.3c0.1-0.8,0.2-1.5,0.5-2.1c0.3-0.6,0.6-0.8,1.1-0.8
		c0.2,0,0.5,0.2,0.8,0.6c-0.1,1-0.3,2-0.3,3c-0.1,0.8-0.1,2-0.2,3.6c-0.1,1.6-0.1,2.8-0.2,3.6c-0.2,2.2-0.4,4.6-0.8,7.3
		c0.3,0.2,0.5,0.3,0.7,0.4c0.2,0.1,0.5,0.1,0.8,0.2c1,0.1,1.7-0.2,2.1-0.9c0.4-0.6,0.7-1.8,0.8-3.5c0-0.6,0.1-1.5,0.1-2.9
		c0.1-1.3,0.1-2.3,0.2-2.8c0-0.2,0.1-0.9,0.1-2.1c0.1-0.8,0.1-1.5,0.2-2.2c0.2-2.5,0.5-4.7,1-6.6c-0.4-0.3-0.7-0.5-1-0.6
		c-0.3-0.1-0.6-0.2-0.9-0.2c-0.5,0-0.8,0-1.1,0.1c-0.2,0.1-0.5,0.4-0.8,0.9c-0.4-0.4-0.8-0.8-1.2-1c-0.4-0.2-0.8-0.4-1.3-0.4
		c-0.5,0-0.9,0-1.4,0.2c-0.5,0.2-0.9,0.5-1.3,0.9c-0.4,0.4-0.7,1-1,1.6c-0.3,0.7-0.5,1.4-0.5,2.3c-0.1,1.5,0.1,2.9,0.9,4
		c0.1,0.1,0.9,1.1,0.9,1c-2.1,6.4-3.8,8-4.5,9C83.6,140.4,84,141.1,84.5,141.5z"/>
	<path class="st2" d="M136.5,143.6c0.5,0.4,1,0.6,1.6,0.6c0.5,0,1-0.5,1.5-1.4c0.5-0.9,0.8-2,1.2-3.4c0.3-1.3,0.6-2.7,0.8-4.1
		c0.2-1.4,0.4-2.5,0.4-3.5c-0.5-0.1-0.9-0.4-1.2-1c-0.3-0.6-0.4-1.4-0.4-2.3c0-0.8,0.1-1.6,0.3-2.1c0.2-0.6,0.5-0.9,1-0.9
		c0.2,0,0.5,0.2,0.8,0.5c-0.1,1-0.1,2-0.1,3c0,0.8,0,2,0.1,3.6c0.1,1.6,0.1,2.8,0.1,3.6c0,2.2,0,4.6-0.2,7.3
		c0.3,0.1,0.5,0.2,0.8,0.3c0.2,0.1,0.5,0.1,0.8,0.1c1,0,1.7-0.4,2-1.1c0.4-0.7,0.6-1.9,0.5-3.5c0-0.6-0.1-1.5-0.1-2.9
		c-0.1-1.3-0.1-2.3-0.1-2.9c0-0.2,0-0.9,0-2.1c0-0.8,0-1.5,0-2.2c-0.1-2.5,0.1-4.7,0.4-6.6c-0.4-0.2-0.7-0.4-1-0.5
		c-0.3-0.1-0.6-0.1-0.9-0.1c-0.5,0-0.8,0.1-1,0.2c-0.2,0.1-0.5,0.5-0.7,1c-0.5-0.4-0.9-0.7-1.3-0.9c-0.4-0.2-0.9-0.3-1.4-0.3
		c-0.5,0-0.9,0.1-1.4,0.3c-0.4,0.2-0.8,0.6-1.2,1c-0.4,0.5-0.6,1-0.9,1.7c-0.2,0.7-0.3,1.5-0.3,2.4c0,1.5,0.4,2.9,1.3,3.9
		c0.1,0.1,1,1,1,0.9c-1.5,6.6-3,8.3-3.7,9.4C135.6,142.6,136,143.2,136.5,143.6z"/>
	<path class="st2" d="M162.1,136.1c-0.2-2.5-0.9-4.3-2.3-5.4c0.4-0.5,0.7-1.2,0.9-1.9c0.2-0.7,0.3-1.5,0.2-2.4
		c0-0.9-0.2-1.6-0.5-2.2c-0.3-0.6-0.6-1.1-1-1.5c-0.4-0.4-0.8-0.6-1.3-0.8c-0.4-0.2-0.9-0.2-1.3-0.2c-0.3,0-0.7,0.1-1.2,0.3
		c-0.5,0.2-0.9,0.4-1.4,0.7c-0.5,0.3-0.8,0.7-1.1,1.2c-0.3,0.5-0.4,1.1-0.4,1.7c0,0.8,0.2,1.4,0.6,1.8c0.4,0.4,0.8,0.6,1.3,0.7
		c0-0.9,0.2-1.6,0.4-2.2c0.2-0.6,0.6-0.9,1-1c0.3,0,0.6,0.2,0.8,0.6c0.2,0.4,0.4,0.8,0.4,1.3c0,0.4,0,0.8-0.1,1.2
		c-0.1,0.4-0.3,0.9-0.4,1.4c-0.1,0.3-0.1,0.4-0.2,0.5c-0.3,0-0.6,0.1-0.9,0.1c-0.3,0.1-0.6,0.2-0.8,0.4c-0.2,0.2-0.4,0.5-0.6,0.8
		c-0.1,0.4-0.2,0.8-0.2,1.4c0,0.4,0.1,0.9,0.2,1.4c0.2-0.2,0.5-0.4,0.7-0.5c0.2-0.1,0.4-0.2,0.7-0.2c0.6,0,1.2,0.3,1.6,0.8
		c0.5,0.6,0.7,1.4,0.8,2.5c0.1,1-0.1,1.9-0.6,2.6c-0.4,0.7-1,1-1.6,1c-0.9,0-1.8-0.5-2.6-1.6c-0.3,0.7-0.4,1.5-0.4,2.5
		c0,0.6,0.2,1.1,0.4,1.5c0.3,0.4,0.6,0.7,1,0.9c0.4,0.2,0.8,0.3,1.2,0.4c0.4,0.1,0.8,0.1,1.1,0.1c0.7,0,1.4-0.2,2.1-0.6
		c0.7-0.3,1.3-0.9,1.8-1.6c0.5-0.7,0.9-1.6,1.2-2.6C162,138.6,162.1,137.4,162.1,136.1z"/>
	<path class="st2" d="M174.8,130.8c-0.3-3.4-1-5.9-2.1-7.5c-1.1-1.6-2.5-2.3-4.4-2.2c-0.9,0.1-1.7,0.4-2.4,1
		c-0.7,0.6-1.2,1.5-1.6,2.5c-0.4,1.1-0.7,2.3-0.8,3.7c-0.1,1.4-0.2,3-0.1,4.6c0.2,3.3,0.8,5.9,1.9,7.6c1.1,1.8,2.6,2.6,4.5,2.4
		c1-0.1,1.9-0.4,2.6-1.1c0.7-0.6,1.3-1.5,1.7-2.6c0.4-1.1,0.6-2.4,0.7-3.8C175,134.1,174.9,132.5,174.8,130.8z M170.7,131.6
		c0.1,1,0.1,2,0.2,2.9c0,0.9,0,1.8,0,2.6c0,0.8-0.1,1.5-0.3,2.1c-0.2,0.6-0.5,0.9-0.8,0.9c-0.3,0-0.6-0.2-0.8-0.7
		c-0.2-0.5-0.4-1.1-0.6-1.9c-0.2-0.8-0.3-1.6-0.4-2.5c-0.1-0.9-0.2-1.9-0.3-2.9l-0.1-2.3c0-0.8,0-1.6,0-2.5c0-0.9,0.1-1.6,0.3-2.1
		c0.2-0.6,0.4-0.9,0.8-0.9c0.3,0,0.6,0.2,0.8,0.7c0.2,0.5,0.4,1.1,0.6,1.9l0.4,2.3C170.5,129.9,170.6,130.7,170.7,131.6z"/>
	<path class="st2" d="M177,132.8c0,0.4,0.1,1.2,0.2,2.3c0.1,1,0.1,1.8,0.2,2.4c0.2,1.6,0.4,2.7,0.8,3.4c0.4,0.7,1.1,1.1,1.9,1
		c0.5-0.1,1.1-0.3,1.8-0.6c-0.3-1.6-0.7-4-1-6.9c-0.1-0.8-0.2-2-0.3-3.6c-0.1-1.6-0.3-2.8-0.3-3.6c-0.1-1.3-0.3-2.3-0.4-3.2
		c0.3-0.3,0.5-0.4,0.7-0.4c0.4,0,0.7,0.2,0.9,0.7c0.2,0.5,0.4,1.1,0.5,1.9l0.1,1.2l-0.1,1.1c-0.1,0.3-0.2,0.6-0.3,0.8
		c-0.1,0.2-0.3,0.3-0.6,0.4l-0.2,0c0,0.2,0.1,0.5,0.1,0.8c0.2,1,0.4,1.6,0.6,2c0.2,0.3,0.6,0.5,1.3,0.4c0.5-0.1,1-0.3,1.3-0.7
		c0.4-0.4,0.7-1,0.9-1.7c0.2-0.7,0.3-1.5,0.4-2.4c0-0.9,0-1.7-0.1-2.6c-0.2-1.8-0.7-3.3-1.4-4.2c-0.7-1-1.5-1.4-2.5-1.3
		c-0.5,0.1-0.9,0.2-1.2,0.4c-0.3,0.2-0.6,0.6-1,1.2c-0.3-0.5-0.6-0.8-0.8-0.9c-0.2-0.1-0.6-0.2-1-0.1c-0.3,0-0.6,0.1-0.9,0.2
		c-0.3,0.1-0.6,0.3-1,0.5c0.3,0.8,0.5,1.8,0.7,2.8c0.2,1,0.3,2.1,0.4,3.1L177,132.8z"/>
	<path class="st2" d="M110,142.9c-0.4,2.4-1,4.6-2.1,5.8c-1.4,1.4-3.5-1-3.5-1c0,0,2.7-4.2,0.3-4.3c-1.7-0.1-2.7-0.1-4.4-0.2
		c-0.6,0-1.2,0.1-1.8,0.5c-0.4,0.3-0.9,0.8-1.2,1.3c-0.7-0.5-1-1.4-1.2-2.3c-0.2-0.7-0.4-2.2-0.1-3c0.3-0.6,1.5,0.1,1.6-0.1
		c0.7-2.1,1.3-4.2,1.9-6.3l0.2-0.7c0.9-2.9,1.8-6.4,2.8-10.6c0.8-0.4,1.5-0.6,2-0.5c0.3,0,0.6,0.1,0.9,0.2c0.3,0.1,0.5,0.4,0.6,0.7
		c0.1,0.2,0.2,0.6,0.3,1.2c0.1,0.5,0.2,1.2,0.3,1.8l0.2,2l0.2,2.1l0.1,0.8c0.2,2.1,0.5,4.4,0.9,6.9c0.1,0.9,0.3,1.8,0.4,2.6
		c0.5-0.1,1.3-0.3,1.5-0.1C110.3,140.3,110.1,142.2,110,142.9z M104,140c-0.2-1.6-0.4-2.9-0.5-4.1c0-0.5-0.1-1.2-0.2-2.1
		c-0.2-2-0.3-3.6-0.4-4.6c-0.2,0.8-2.5,10.8-2.5,10.8C101.4,140.1,103,140.1,104,140z"/>
	<path class="st3" d="M47.2,126.3c-0.1,0.6-0.3,1.6-0.6,2.7c-0.3,1.2-0.5,2.1-0.6,2.7c-0.2,0.8-0.3,1.5-0.3,2.1
		c-0.1,0.6-0.1,1.1,0,1.5c0.1,0.4,0.2,0.8,0.5,1c0.3,0.3,0.6,0.4,1.1,0.5c0.6,0.1,1.3,0.1,2.1-0.1c0-1,0.1-1.9,0.2-2.9
		c0.1-0.9,0.4-2.3,0.7-4.2c0.1-0.4,0.2-0.9,0.3-1.4c0.1-0.6,0.2-1,0.3-1.3c0.1,0.7,0.2,1.6,0.4,2.7c0.3,2.6,2.3,9.1,2.7,10.3
		c0.7,2.2,2.9,4.7,5.2,3.8c1.7-0.7,2-1.9,1.6-2.1c-0.9-0.3-1.9,0.3-2.9-2.2c-0.3-0.8-1.3-5-2-8.2c-0.3-1.5-0.6-2.7-0.7-3.3
		c-0.1-0.6-0.2-1-0.2-1.2c0-0.2-0.1-0.4-0.1-0.5c-0.2-0.8-0.3-1.5-0.3-1.9c0.3-0.2,0.8-0.6,1.4-1.1c0.4-0.4,0.7-0.6,0.8-0.7
		c0.1-0.1,0.2-0.2,0.5-0.4c0.5-0.4,0.9-0.8,1.1-1.1c0.3-0.4,0.5-0.9,0.6-1.6c0.1-0.5,0.1-0.9,0-1.2c-0.1-0.3-0.2-0.6-0.3-0.8
		c-0.2-0.2-0.3-0.4-0.5-0.5c-0.2-0.1-0.4-0.2-0.7-0.2c-0.3,0-0.6,0-1.1,0.1c-0.2,0.7-0.4,1.4-0.8,2.1c-0.4,0.7-0.8,1.3-1.2,1.9
		c-0.4,0.6-0.9,1.1-1.3,1.6c-0.5,0.5-1,1-1.5,1.5c-0.1,0.1-0.2,0.2-0.2,0.2c0.1-0.5,0.3-1.3,0.5-2.3c0.2-1,0.4-1.8,0.5-2.2
		c0.2-1.2,0.2-2.1-0.1-2.8c-0.3-0.7-0.7-1.1-1.4-1.2c-0.5-0.1-1.1-0.1-1.8,0.1c-0.1,0.9-0.3,1.8-0.4,2.7c-0.2,0.8-0.3,1.6-0.4,2.3
		L47.2,126.3z"/>
	<path class="st3" d="M187.6,130.4c0.1,0.7,0.2,1.6,0.3,2.8c0.1,1.2,0.2,2.1,0.3,2.8c0.1,0.8,0.2,1.5,0.4,2.1c0.1,0.6,0.3,1,0.5,1.4
		c0.2,0.4,0.5,0.7,0.8,0.8c0.3,0.2,0.7,0.2,1.2,0.2c0.6-0.1,1.3-0.3,2-0.8c-0.3-0.9-0.5-1.9-0.7-2.8c-0.2-0.9-0.4-2.3-0.7-4.2
		c-0.1-0.4-0.1-0.9-0.2-1.4c-0.1-0.6-0.1-1-0.2-1.3c0.3,0.6,0.7,1.4,1.2,2.5c1.1,2.4,5.1,8,5.9,9c1.4,1.9,4.3,3.6,6.2,1.9
		c1.4-1.2,1.2-2.5,0.8-2.5c-0.9,0-1.7,1-3.4-1.2c-0.5-0.7-2.9-4.4-4.5-7.2c-0.8-1.3-1.4-2.4-1.7-2.9c-0.3-0.5-0.5-0.8-0.6-1.1
		l-0.2-0.4c-0.4-0.8-0.7-1.3-0.9-1.7c0.2-0.3,0.5-0.8,0.9-1.5c0.3-0.5,0.4-0.8,0.5-1c0-0.1,0.1-0.2,0.3-0.5c0.3-0.5,0.6-1,0.7-1.4
		c0.1-0.4,0.1-1,0-1.7c-0.1-0.5-0.2-0.8-0.4-1.1c-0.2-0.3-0.3-0.5-0.6-0.7c-0.2-0.1-0.4-0.2-0.7-0.3c-0.2,0-0.5,0-0.7,0
		c-0.3,0-0.6,0.2-1,0.4c0.1,0.7,0.1,1.5-0.1,2.2c-0.1,0.8-0.3,1.5-0.5,2.2c-0.2,0.7-0.5,1.3-0.8,1.9c-0.3,0.6-0.6,1.2-0.9,1.9
		c-0.1,0.1-0.1,0.2-0.1,0.2c-0.1-0.5-0.2-1.3-0.2-2.3c-0.1-1-0.2-1.8-0.2-2.3c-0.2-1.2-0.5-2.1-1-2.6c-0.5-0.6-1.1-0.8-1.7-0.7
		c-0.5,0.1-1.1,0.3-1.7,0.6c0.2,0.9,0.3,1.8,0.4,2.7c0.1,0.8,0.2,1.6,0.3,2.3L187.6,130.4z"/>
	<path class="st3" d="M65.1,137.3c0,0.5,0.1,0.9,0.3,1.3c0.1,0.4,0.4,0.7,0.7,1c0.3,0.2,0.7,0.4,1.2,0.5c0.7,0.1,1.5,0,2.4-0.4
		c-0.2-1.8-0.4-3.8-0.6-6.1c-0.1-1.9-0.3-4.8-0.4-8.7c0-1.3-0.1-2.4-0.1-3.4c0-1.2-0.2-2.1-0.5-2.6c-0.3-0.5-0.8-0.8-1.5-0.9
		c-0.4-0.1-0.7-0.1-1.1,0c-0.3,0-0.7,0.2-1.1,0.3c0.1,0.5,0.2,0.9,0.3,1.3c0,0-4,10.9-4.5,12.1c-1.2,2.9-2,6.5,0.8,7.2
		C62.7,139.4,63.6,138.3,65.1,137.3z M65.1,134.6c0,0-1.8,1.6-2.7-0.3c-0.4-1,0.6-3.9,0.6-3.9l1.9-5.8L65.1,134.6z"/>
	<path class="st3" d="M129.6,141.5c0.1,0.5,0.2,0.9,0.4,1.3c0.2,0.4,0.4,0.7,0.8,0.9c0.3,0.2,0.8,0.3,1.3,0.3c0.7,0,1.5-0.2,2.3-0.7
		c-0.5-1.8-0.9-3.8-1.3-5.9c-0.4-1.9-0.9-4.7-1.5-8.6c-0.2-1.3-0.4-2.4-0.6-3.4c-0.2-1.2-0.5-2.1-0.8-2.5c-0.3-0.4-0.9-0.7-1.6-0.7
		c-0.4,0-0.8,0-1.1,0.1c-0.3,0.1-0.7,0.2-1.1,0.4c0.2,0.4,0.4,0.9,0.5,1.2c0,0-2.5,11.4-2.9,12.6c-0.8,3-1.1,6.7,1.8,7
		C127.5,143.9,128.3,142.7,129.6,141.5z M129.2,138.9c0,0-1.6,1.9-2.7,0c-0.6-0.9,0.1-3.9,0.1-3.9l1.1-6L129.2,138.9z"/>
	<path class="st3" d="M207.8,135.4c0.2,0.5,0.4,0.9,0.7,1.2c0.3,0.3,0.6,0.6,0.9,0.7c0.4,0.1,0.8,0.1,1.3,0c0.7-0.1,1.5-0.5,2.2-1.1
		c-0.8-1.6-1.7-3.5-2.6-5.5c-0.8-1.8-1.8-4.5-3.2-8.1c-0.5-1.2-0.9-2.2-1.2-3.2c-0.4-1.2-0.9-1.9-1.3-2.3c-0.4-0.4-1-0.5-1.7-0.4
		c-0.4,0.1-0.7,0.2-1,0.3c-0.3,0.1-0.6,0.4-1,0.6c0.3,0.4,0.5,0.8,0.7,1.1c0,0-0.2,11.6-0.3,12.9c-0.2,3.1,0.2,6.8,3.1,6.5
		C206.1,138.1,206.6,136.7,207.8,135.4z M206.8,132.8c0,0-1.2,2.1-2.7,0.5c-0.7-0.8-0.7-3.9-0.7-3.9l-0.1-6.1L206.8,132.8z"/>
	<path class="st3" d="M70.8,138.4c-0.1,0.8,0,1.3,0.2,1.6c0.3,0.3,0.6,0.4,1.1,0.5c0.3,0,0.6,0,0.8,0c0.2,0,0.4-0.1,0.7-0.2
		c0-0.4-0.1-0.7-0.1-1c0-0.3,0-0.6,0.1-1c0.1-0.7,0.2-1.5,0.5-2.5c0.2-1,0.5-2.1,0.9-3.2c0.3-1.1,0.7-2.2,1-3.2
		c0.3-1,0.6-1.9,0.9-2.7c0,1,0,2.4,0.1,4.4c0,0.9,0.1,1.5,0.1,2c0.1,1.4,0.1,3.1,0.2,5.1c0,1,0.2,1.8,0.6,2.3
		c0.3,0.5,0.8,0.8,1.4,0.9c0.8,0.1,1.8-0.1,2.8-0.5c-0.3-1.8-0.6-3.9-0.9-6.2c-0.2-2.3-0.4-4.5-0.5-6.5l0-0.8l-0.1-2l-0.1-1.9
		c0-0.6-0.1-1.2-0.2-1.7c-0.1-0.5-0.2-0.9-0.3-1.1c-0.1-0.3-0.3-0.5-0.6-0.6c-0.2-0.1-0.5-0.2-0.8-0.3c-0.5,0-1.1,0.1-1.9,0.4
		c-1.1,3.9-2.2,7.2-3.2,9.8l-0.2,0.6c-0.3,0.8-0.6,1.6-0.8,2.3l-0.8,2.1c-0.3,0.7-0.5,1.4-0.7,2.1C71,137.5,70.9,138,70.8,138.4z"/>
	<path class="st3" d="M121.7,132.6c0-0.8,0.1-1.9,0.1-3.2c0.1-1.3,0.1-2.4,0.1-3.2c0-1.4-0.1-2.5-0.5-3.1c-0.4-0.6-1-0.9-1.8-1
		c-0.3,0-0.6,0-0.8,0.1c-0.3,0.1-0.6,0.2-0.9,0.4c0.1,0.9,0.1,1.8,0.1,2.8c0,1,0,2.1-0.1,3.5l0,1.7l-2.4-0.1c0-0.4,0-1,0.1-1.8
		c0-0.8,0.1-1.4,0.1-1.9c0-1,0-1.7,0-2.3c-0.1-0.6-0.2-1.1-0.3-1.5c-0.2-0.4-0.4-0.6-0.8-0.8c-0.3-0.2-0.8-0.3-1.3-0.3
		c-0.4,0-0.9,0.1-1.5,0.3c0.1,1.5,0.1,3.4,0,5.7l-0.2,4c0,0.9-0.1,2.2-0.2,3.9c-0.1,1.7-0.2,3-0.2,3.9c-0.1,1.3,0.1,2.2,0.6,2.8
		c0.4,0.6,1,0.9,1.8,0.9c0.5,0,1.1-0.1,1.8-0.4c0-1.1-0.1-2.1-0.1-3c0-0.9,0-2.2,0.1-4l0.1-1.9l2.5,0.1c0,0.5,0,1.3-0.1,2.5
		c-0.1,1.4-0.1,2.4-0.1,3c0,1.3,0.2,2.3,0.6,2.8c0.4,0.6,1.1,0.9,1.8,0.9c0.5,0,1.1-0.1,1.7-0.3c-0.1-0.8-0.1-1.5-0.1-2.2
		c0-0.7,0-1.7,0-3.1L121.7,132.6z"/>
	<path class="st3" d="M84.5,141.5c0.5,0.5,1,0.7,1.5,0.8c0.5,0,1-0.4,1.6-1.2c0.5-0.9,1-1.9,1.5-3.3c0.4-1.3,0.8-2.6,1.2-4
		c0.3-1.3,0.6-2.5,0.8-3.5c-0.5-0.1-0.9-0.5-1.1-1.1c-0.2-0.6-0.3-1.4-0.2-2.3c0.1-0.8,0.2-1.5,0.5-2.1c0.3-0.6,0.6-0.8,1.1-0.8
		c0.2,0,0.5,0.2,0.8,0.6c-0.1,1-0.3,2-0.3,3c-0.1,0.8-0.1,2-0.2,3.6c-0.1,1.6-0.1,2.8-0.2,3.6c-0.2,2.2-0.4,4.6-0.8,7.3
		c0.3,0.2,0.5,0.3,0.7,0.4c0.2,0.1,0.5,0.1,0.8,0.2c1,0.1,1.7-0.2,2.1-0.9c0.4-0.6,0.7-1.8,0.8-3.5c0-0.6,0.1-1.5,0.1-2.9
		c0.1-1.3,0.1-2.3,0.2-2.8c0-0.2,0.1-0.9,0.1-2.1c0.1-0.8,0.1-1.5,0.2-2.2c0.2-2.5,0.5-4.7,1-6.6c-0.4-0.3-0.7-0.5-1-0.6
		c-0.3-0.1-0.6-0.2-0.9-0.2c-0.5,0-0.8,0-1.1,0.1c-0.2,0.1-0.5,0.4-0.8,0.9c-0.4-0.4-0.8-0.8-1.2-1c-0.4-0.2-0.8-0.4-1.3-0.4
		c-0.5,0-0.9,0-1.4,0.2c-0.5,0.2-0.9,0.5-1.3,0.9c-0.4,0.4-0.7,1-1,1.6c-0.3,0.7-0.5,1.4-0.5,2.3c-0.1,1.5,0.1,2.9,0.9,4
		c0.1,0.1,0.9,1.1,0.9,1c-2.1,6.4-3.8,8-4.5,9C83.6,140.4,84,141.1,84.5,141.5z"/>
	<path class="st3" d="M136.5,143.6c0.5,0.4,1,0.6,1.6,0.6c0.5,0,1-0.5,1.5-1.4c0.5-0.9,0.8-2,1.2-3.4c0.3-1.3,0.6-2.7,0.8-4.1
		c0.2-1.4,0.4-2.5,0.4-3.5c-0.5-0.1-0.9-0.4-1.2-1c-0.3-0.6-0.4-1.4-0.4-2.3c0-0.8,0.1-1.6,0.3-2.1c0.2-0.6,0.5-0.9,1-0.9
		c0.2,0,0.5,0.2,0.8,0.5c-0.1,1-0.1,2-0.1,3c0,0.8,0,2,0.1,3.6c0.1,1.6,0.1,2.8,0.1,3.6c0,2.2,0,4.6-0.2,7.3
		c0.3,0.1,0.5,0.2,0.8,0.3c0.2,0.1,0.5,0.1,0.8,0.1c1,0,1.7-0.4,2-1.1c0.4-0.7,0.6-1.9,0.5-3.5c0-0.6-0.1-1.5-0.1-2.9
		c-0.1-1.3-0.1-2.3-0.1-2.9c0-0.2,0-0.9,0-2.1c0-0.8,0-1.5,0-2.2c-0.1-2.5,0.1-4.7,0.4-6.6c-0.4-0.2-0.7-0.4-1-0.5
		c-0.3-0.1-0.6-0.1-0.9-0.1c-0.5,0-0.8,0.1-1,0.2c-0.2,0.1-0.5,0.5-0.7,1c-0.5-0.4-0.9-0.7-1.3-0.9c-0.4-0.2-0.9-0.3-1.4-0.3
		c-0.5,0-0.9,0.1-1.4,0.3c-0.4,0.2-0.8,0.6-1.2,1c-0.4,0.5-0.6,1-0.9,1.7c-0.2,0.7-0.3,1.5-0.3,2.4c0,1.5,0.4,2.9,1.3,3.9
		c0.1,0.1,1,1,1,0.9c-1.5,6.6-3,8.3-3.7,9.4C135.6,142.6,136,143.2,136.5,143.6z"/>
	<path class="st3" d="M162.1,136.1c-0.2-2.5-0.9-4.3-2.3-5.4c0.4-0.5,0.7-1.2,0.9-1.9c0.2-0.7,0.3-1.5,0.2-2.4
		c0-0.9-0.2-1.6-0.5-2.2c-0.3-0.6-0.6-1.1-1-1.5c-0.4-0.4-0.8-0.6-1.3-0.8c-0.4-0.2-0.9-0.2-1.3-0.2c-0.3,0-0.7,0.1-1.2,0.3
		c-0.5,0.2-0.9,0.4-1.4,0.7c-0.5,0.3-0.8,0.7-1.1,1.2c-0.3,0.5-0.4,1.1-0.4,1.7c0,0.8,0.2,1.4,0.6,1.8c0.4,0.4,0.8,0.6,1.3,0.7
		c0-0.9,0.2-1.6,0.4-2.2c0.2-0.6,0.6-0.9,1-1c0.3,0,0.6,0.2,0.8,0.6c0.2,0.4,0.4,0.8,0.4,1.3c0,0.4,0,0.8-0.1,1.2
		c-0.1,0.4-0.3,0.9-0.4,1.4c-0.1,0.3-0.1,0.4-0.2,0.5c-0.3,0-0.6,0.1-0.9,0.1c-0.3,0.1-0.6,0.2-0.8,0.4c-0.2,0.2-0.4,0.5-0.6,0.8
		c-0.1,0.4-0.2,0.8-0.2,1.4c0,0.4,0.1,0.9,0.2,1.4c0.2-0.2,0.5-0.4,0.7-0.5c0.2-0.1,0.4-0.2,0.7-0.2c0.6,0,1.2,0.3,1.6,0.8
		c0.5,0.6,0.7,1.4,0.8,2.5c0.1,1-0.1,1.9-0.6,2.6c-0.4,0.7-1,1-1.6,1c-0.9,0-1.8-0.5-2.6-1.6c-0.3,0.7-0.4,1.5-0.4,2.5
		c0,0.6,0.2,1.1,0.4,1.5c0.3,0.4,0.6,0.7,1,0.9c0.4,0.2,0.8,0.3,1.2,0.4c0.4,0.1,0.8,0.1,1.1,0.1c0.7,0,1.4-0.2,2.1-0.6
		c0.7-0.3,1.3-0.9,1.8-1.6c0.5-0.7,0.9-1.6,1.2-2.6C162,138.6,162.1,137.4,162.1,136.1z"/>
	<path class="st3" d="M174.8,130.8c-0.3-3.4-1-5.9-2.1-7.5c-1.1-1.6-2.5-2.3-4.4-2.2c-0.9,0.1-1.7,0.4-2.4,1
		c-0.7,0.6-1.2,1.5-1.6,2.5c-0.4,1.1-0.7,2.3-0.8,3.7c-0.1,1.4-0.2,3-0.1,4.6c0.2,3.3,0.8,5.9,1.9,7.6c1.1,1.8,2.6,2.6,4.5,2.4
		c1-0.1,1.9-0.4,2.6-1.1c0.7-0.6,1.3-1.5,1.7-2.6c0.4-1.1,0.6-2.4,0.7-3.8C175,134.1,174.9,132.5,174.8,130.8z M170.7,131.6
		c0.1,1,0.1,2,0.2,2.9c0,0.9,0,1.8,0,2.6c0,0.8-0.1,1.5-0.3,2.1c-0.2,0.6-0.5,0.9-0.8,0.9c-0.3,0-0.6-0.2-0.8-0.7
		c-0.2-0.5-0.4-1.1-0.6-1.9c-0.2-0.8-0.3-1.6-0.4-2.5c-0.1-0.9-0.2-1.9-0.3-2.9l-0.1-2.3c0-0.8,0-1.6,0-2.5c0-0.9,0.1-1.6,0.3-2.1
		c0.2-0.6,0.4-0.9,0.8-0.9c0.3,0,0.6,0.2,0.8,0.7c0.2,0.5,0.4,1.1,0.6,1.9l0.4,2.3C170.5,129.9,170.6,130.7,170.7,131.6z"/>
	<path class="st3" d="M177,132.8c0,0.4,0.1,1.2,0.2,2.3c0.1,1,0.1,1.8,0.2,2.4c0.2,1.6,0.4,2.7,0.8,3.4c0.4,0.7,1.1,1.1,1.9,1
		c0.5-0.1,1.1-0.3,1.8-0.6c-0.3-1.6-0.7-4-1-6.9c-0.1-0.8-0.2-2-0.3-3.6c-0.1-1.6-0.3-2.8-0.3-3.6c-0.1-1.3-0.3-2.3-0.4-3.2
		c0.3-0.3,0.5-0.4,0.7-0.4c0.4,0,0.7,0.2,0.9,0.7c0.2,0.5,0.4,1.1,0.5,1.9l0.1,1.2l-0.1,1.1c-0.1,0.3-0.2,0.6-0.3,0.8
		c-0.1,0.2-0.3,0.3-0.6,0.4l-0.2,0c0,0.2,0.1,0.5,0.1,0.8c0.2,1,0.4,1.6,0.6,2c0.2,0.3,0.6,0.5,1.3,0.4c0.5-0.1,1-0.3,1.3-0.7
		c0.4-0.4,0.7-1,0.9-1.7c0.2-0.7,0.3-1.5,0.4-2.4c0-0.9,0-1.7-0.1-2.6c-0.2-1.8-0.7-3.3-1.4-4.2c-0.7-1-1.5-1.4-2.5-1.3
		c-0.5,0.1-0.9,0.2-1.2,0.4c-0.3,0.2-0.6,0.6-1,1.2c-0.3-0.5-0.6-0.8-0.8-0.9c-0.2-0.1-0.6-0.2-1-0.1c-0.3,0-0.6,0.1-0.9,0.2
		c-0.3,0.1-0.6,0.3-1,0.5c0.3,0.8,0.5,1.8,0.7,2.8c0.2,1,0.3,2.1,0.4,3.1L177,132.8z"/>
	<path class="st3" d="M110,142.9c-0.4,2.4-1,4.6-2.1,5.8c-1.4,1.4-3.5-1-3.5-1c0,0,2.7-4.2,0.3-4.3c-1.7-0.1-2.7-0.1-4.4-0.2
		c-0.6,0-1.2,0.1-1.8,0.5c-0.4,0.3-0.9,0.8-1.2,1.3c-0.7-0.5-1-1.4-1.2-2.3c-0.2-0.7-0.4-2.2-0.1-3c0.3-0.6,1.5,0.1,1.6-0.1
		c0.7-2.1,1.3-4.2,1.9-6.3l0.2-0.7c0.9-2.9,1.8-6.4,2.8-10.6c0.8-0.4,1.5-0.6,2-0.5c0.3,0,0.6,0.1,0.9,0.2c0.3,0.1,0.5,0.4,0.6,0.7
		c0.1,0.2,0.2,0.6,0.3,1.2c0.1,0.5,0.2,1.2,0.3,1.8l0.2,2l0.2,2.1l0.1,0.8c0.2,2.1,0.5,4.4,0.9,6.9c0.1,0.9,0.3,1.8,0.4,2.6
		c0.5-0.1,1.3-0.3,1.5-0.1C110.3,140.3,110.1,142.2,110,142.9z M104,140c-0.2-1.6-0.4-2.9-0.5-4.1c0-0.5-0.1-1.2-0.2-2.1
		c-0.2-2-0.3-3.6-0.4-4.6c-0.2,0.8-2.5,10.8-2.5,10.8C101.4,140.1,103,140.1,104,140z"/>
	<g>
		<g>
			<path class="st4" d="M181.3,128.3l0.1-0.9l-0.1-1.1c-0.1-0.7-0.2-1.2-0.4-1.6c-0.1-0.3-0.2-0.3-0.3-0.2l0,0
				c0.1,0.8,0.3,1.7,0.4,2.8c0,0.4,0.1,1,0.2,1.6L181.3,128.3z"/>
			<path class="st4" d="M155.7,134.4l-0.4,0.1c-0.1,0.1-0.3,0.2-0.5,0.4l-0.3,0.3l0,0.1l0.3,1.3l0.8-0.9c0.2-0.2,0.3-0.3,0.5-0.4
				l0.5-0.1l0.4,0.1l-0.2-0.3C156.5,134.6,156.1,134.4,155.7,134.4z"/>
			<path class="st4" d="M169,137.4c0.1,0.7,0.3,1.2,0.5,1.6c0.1,0.2,0.2,0.3,0.2,0.3c0.1,0,0.2-0.3,0.3-0.4l0.1-0.2l-0.1-0.5
				c-0.1-0.7-0.3-1.6-0.4-2.4c-0.1-0.9-0.2-1.9-0.3-2.9l-0.1-2.3c0-0.8,0-1.6,0-2.4c0-0.7,0.1-1.2,0.2-1.7c-0.1-0.4-0.2-0.8-0.4-1.1
				c-0.1-0.2-0.2-0.3-0.2-0.3l0,0c-0.1,0-0.2,0.2-0.2,0.4c-0.1,0.5-0.2,1.1-0.3,1.9c0,0.8,0,1.6,0,2.4l0.1,2.3c0.1,1,0.2,2,0.3,2.9
				C168.7,135.9,168.8,136.7,169,137.4z"/>
			<path class="st4" d="M189.9,119.2c0.6,0.7,1,1.7,1.2,3.1c0.1,0.5,0.2,1.2,0.2,2.3l0.1-0.2l0.6-1.4c-0.2-1.4-0.6-2.4-1.2-3.1
				C190.5,119.6,190.2,119.4,189.9,119.2L189.9,119.2z"/>
			<path class="st4" d="M156.2,125.9c-0.1,0-0.2,0-0.4,0.5c-0.2,0.5-0.3,1.2-0.3,1.9l0,0.9l-0.7-0.1c-0.4-0.1-0.7-0.2-1-0.4l0.2,0.3
				c0.3,0.3,0.7,0.6,1.1,0.7l0.6-0.2l0.6-0.1l0-0.1l0.1-0.3c0-0.7,0.1-1.3,0.3-1.8l0.1-0.2c0-0.3-0.1-0.6-0.3-0.8
				C156.3,126,156.2,125.9,156.2,125.9z"/>
			<path class="st4" d="M207.9,137.1l-0.2-0.3l-0.1,0.1c-0.7,1-1.4,1.9-2.8,2.2l-0.3,0c-0.5,0-1,0-1.4-0.2c0.6,0.6,1.4,0.9,2.4,0.8
				l0.3,0c1.3-0.2,2-1.1,2.7-2L207.9,137.1z"/>
			<path class="st4" d="M204.1,129.5c0,1.4,0.2,3,0.5,3.3c0.4,0.4,0.6,0.4,0.7,0.4l0.1,0c-0.2-0.6-0.3-1.8-0.3-3l0,0l-1-2.7
				L204.1,129.5z"/>
			<path class="st4" d="M196.7,118.7c0.2,0.4,0.4,0.9,0.5,1.4c0.1,0.8,0.1,1.6-0.1,2.1c-0.2,0.5-0.4,1-0.8,1.6
				c-0.2,0.3-0.3,0.4-0.3,0.5c-0.1,0.1-0.2,0.4-0.5,0.9c-0.3,0.5-0.5,0.8-0.7,1.1c0.2,0.3,0.4,0.7,0.7,1.2l0.3,0.5l0.6,1.1
				c0.3,0.5,0.9,1.6,1.7,2.9c1.8,3,4,6.5,4.5,7.1c0.6,0.8,1,1,1.4,1.1l-0.4-0.4c-0.1-0.2-0.4-0.6-0.8-1.2c-0.3-0.2-0.6-0.4-0.8-0.7
				c-0.5-0.6-0.8-1.4-1-2.2l-1.9-3.1c-0.8-1.3-1.4-2.4-1.7-2.9l-0.6-1.1l-0.3-0.5c-0.3-0.5-0.5-0.9-0.7-1.2c0.2-0.3,0.4-0.7,0.7-1.1
				c0.3-0.5,0.4-0.8,0.5-0.9c0-0.1,0.2-0.2,0.3-0.5c0.4-0.6,0.6-1.1,0.8-1.6c0.2-0.6,0.2-1.3,0.1-2.1c-0.1-0.6-0.3-1-0.5-1.4
				c-0.2-0.4-0.5-0.7-0.8-0.9l-0.5-0.3L196.7,118.7z"/>
			<path class="st4" d="M154.9,139.5l-0.2-0.3l-0.7-0.9l-0.1,0.3C154.3,138.9,154.6,139.3,154.9,139.5z"/>
			<path class="st4" d="M214.5,136.4c-0.8-1.6-1.7-3.5-2.6-5.5c-0.8-1.7-1.9-4.4-3.2-8.1c-0.5-1.2-0.9-2.2-1.2-3.2
				c-0.5-1.3-1-2.2-1.6-2.6c-0.2-0.2-0.4-0.3-0.7-0.4c0.4,0.5,0.9,1.3,1.3,2.4c0.4,0.9,0.8,2,1.2,3.2c1.4,3.6,2.5,6.3,3.2,8.1
				c0.9,2,1.7,3.9,2.6,5.5l0.3,0.6l-0.5,0.4c-0.8,0.7-1.6,1.1-2.5,1.3c-0.6,0.1-1.2,0.1-1.6,0c0.3,0.3,0.6,0.5,0.9,0.6
				c0.5,0.2,1,0.2,1.7,0.1c0.8-0.2,1.7-0.6,2.5-1.3l0.5-0.4L214.5,136.4z"/>
			<path class="st4" d="M194,137.4c-0.1-0.5-0.2-1-0.3-1.7c-0.4-0.7-0.8-1.3-1.1-1.9c0.2,1.2,0.4,2.2,0.5,2.9
				c0.2,0.9,0.4,1.8,0.7,2.7l0.2,0.7l-0.5,0.3c-0.8,0.5-1.5,0.7-2.2,0.8c-0.5,0.1-1,0-1.4-0.2c0.2,0.3,0.5,0.5,0.8,0.6
				c0.5,0.2,1,0.3,1.6,0.2c0.7-0.1,1.4-0.4,2.2-0.8l0.5-0.3l-0.2-0.7C194.4,139.2,194.1,138.3,194,137.4z"/>
			<path class="st4" d="M206.4,140.7l-0.1,0l0.1,0.1c0.2,0.7,0.1,1.9-1.3,3.1c-0.5,0.4-1,0.7-1.6,0.8c-1,0.2-2.1-0.1-3-0.7
				c1.2,0.9,2.7,1.6,4,1.3c0.6-0.1,1.2-0.4,1.6-0.8c1.3-1.2,1.5-2.4,1.3-3.1C207.2,141,206.8,140.7,206.4,140.7z"/>
			<path class="st4" d="M162.9,133.3c-0.3-0.8-0.8-1.5-1.3-2c0.2-0.5,0.4-0.9,0.6-1.5c0.2-0.8,0.3-1.7,0.3-2.7
				c-0.1-1-0.2-1.8-0.6-2.5c-0.3-0.7-0.7-1.3-1.2-1.7l-0.5-0.4c0.3,0.4,0.6,0.8,0.8,1.4c0.3,0.7,0.5,1.6,0.5,2.5
				c0.1,1,0,1.9-0.3,2.7c-0.2,0.5-0.4,1-0.6,1.5c1.2,1.2,1.9,3.1,2,5.5c0.1,1.4,0,2.7-0.3,3.8c-0.3,1.1-0.7,2.1-1.3,2.9
				c-0.6,0.8-1.3,1.4-2.1,1.8c-0.8,0.4-1.5,0.6-2.3,0.6c-0.4,0-0.8,0-1.2-0.1c-0.4-0.1-0.9-0.3-1.4-0.5l-0.2-0.1
				c0.3,0.4,0.7,0.7,1.1,0.9c0.4,0.2,0.9,0.4,1.4,0.5c0.4,0.1,0.9,0.1,1.2,0.1c0.8,0,1.6-0.3,2.4-0.7c0.8-0.4,1.5-1,2.1-1.8
				c0.6-0.8,1-1.7,1.3-2.9c0.2-0.8,0.3-1.6,0.3-2.5C163.2,136.7,163,135.1,162.9,133.3z"/>
			<path class="st4" d="M186.2,124.7c-0.1-0.7-0.2-1.5-0.3-2.3l0-0.2l-0.5-0.9c-0.4-0.5-0.8-0.9-1.3-1.2l0.4,0.5
				c0.8,1.1,1.3,2.7,1.6,4.7c0.1,0.9,0.2,1.8,0.1,2.7c0,0.9-0.2,1.8-0.4,2.6c-0.2,0.8-0.6,1.5-1,2c-0.5,0.6-1.1,0.9-1.7,1
				c-0.5,0.1-1,0-1.3-0.2c0,0.4,0.1,0.7,0.1,0.9c0.3,2.9,0.7,5.2,1,6.8l0.1,0.6l-0.5,0.3c-0.8,0.4-1.4,0.6-2,0.7
				c-0.6,0.1-1,0-1.4-0.2c0.4,0.6,1.2,1,2.3,0.9c0.6-0.1,1.2-0.3,2-0.7l0.5-0.3l-0.1-0.6c-0.3-1.6-0.7-3.9-1-6.8
				c0-0.3-0.1-0.6-0.1-0.9c0.3,0.2,0.8,0.3,1.3,0.2c0.7-0.1,1.2-0.4,1.7-1c0.4-0.5,0.8-1.2,1-2l0.3-1.3L186.2,124.7z"/>
			<path class="st4" d="M176.4,132.9l-0.4-4.2c-0.4-2.2-1-4-1.9-5.2c-0.5-0.7-1-1.3-1.6-1.7c0.3,0.3,0.5,0.6,0.8,0.9
				c1.2,1.7,1.9,4.3,2.2,7.9c0.2,1.8,0.2,3.4,0.1,4.9c-0.1,1.5-0.4,2.9-0.8,4.1c-0.4,1.2-1.1,2.2-1.9,2.9c-0.8,0.7-1.8,1.1-3,1.2
				c-1.2,0.1-2.3-0.2-3.3-0.8c1.1,1.2,2.5,1.7,4.2,1.6c1.1-0.1,2.1-0.5,3-1.2c0.8-0.7,1.4-1.7,1.9-2.9c0.4-1.2,0.7-2.5,0.8-4.1l0-2
				C176.4,133.7,176.4,133.2,176.4,132.9z"/>
		</g>
		<g>
			<path class="st4" d="M81.1,121.4c0.1,0.5,0.1,1.1,0.2,1.8l0.1,1.9l0.1,2l0,0.7c0.1,2,0.2,4.2,0.5,6.5c0.2,1.8,0.4,3.5,0.7,5
				l0.1-0.2l0.4-0.5c-0.2-1.1-0.3-2.2-0.4-3.5c-0.2-2.3-0.4-4.5-0.5-6.5l0-0.7l-0.1-2l-0.1-1.9c0-0.7-0.1-1.3-0.2-1.8
				c-0.1-0.6-0.2-1-0.3-1.3c-0.2-0.4-0.4-0.7-0.7-0.9C80.9,120.4,81,120.8,81.1,121.4z"/>
			<path class="st4" d="M91.1,124.9c-0.1,0-0.2,0-0.4,0.4c-0.2,0.4-0.4,1-0.4,1.8c-0.1,0.8,0,1.5,0.2,2c0.1,0.2,0.2,0.4,0.4,0.5
				c0-0.8,0.1-1.4,0.1-1.9l0.3-2.6C91.1,124.9,91.1,124.9,91.1,124.9z"/>
			<path class="st4" d="M69.3,121.5c0,1,0.1,2.1,0.1,3.4c0.1,3.8,0.3,6.7,0.4,8.6c0.1,1.6,0.3,3.1,0.4,4.4c0.1-0.4,0.2-0.8,0.4-1.3
				l0.1-0.4l-0.2-1.8c-0.1-1.9-0.3-4.8-0.4-8.6c0-1.3-0.1-2.4-0.1-3.4c-0.1-1.4-0.3-2.4-0.6-3c-0.1-0.2-0.3-0.4-0.5-0.6
				C69.1,119.4,69.3,120.3,69.3,121.5z"/>
			<path class="st4" d="M97.1,122c-0.5,1.8-0.8,4-1,6.4c0,0.6-0.1,1.4-0.2,2.2l-0.1,2c0,0.6-0.1,1.5-0.2,2.8
				c-0.1,1.3-0.1,2.3-0.1,2.9l-0.1,1.1l0-0.1c0.1-0.2,0.4-0.6,0.9-0.7c0-0.6,0.1-1.4,0.1-2.4c0.1-1.3,0.1-2.3,0.2-2.8l0.1-2
				c0.1-0.8,0.1-1.5,0.2-2.2c0.2-2.4,0.5-4.6,1-6.4l0.2-0.6l-0.4-0.3l-0.4-0.3L97.1,122z"/>
			<path class="st4" d="M65.1,139.7l-0.3-0.7l-0.1-0.4l-0.1,0.1c-1,0.7-1.9,1.4-3.3,1.2l-0.3-0.1c-0.5-0.1-0.9-0.3-1.3-0.6
				c0.4,0.8,1.1,1.3,2,1.5l0.3,0.1C63.3,141,64.2,140.4,65.1,139.7z"/>
			<path class="st4" d="M53,116.5c0.3,0.8,0.4,2,0.1,3.3c-0.1,0.5-0.2,1.2-0.5,2.2l0.1-0.1c0.3-0.4,0.7-0.8,1-1.2
				c0.2-1.4,0.2-2.5-0.2-3.3C53.4,117,53.2,116.7,53,116.5L53,116.5z"/>
			<path class="st4" d="M59.7,118.1c0.1,0.4,0.1,0.9,0,1.5c-0.1,0.8-0.4,1.5-0.7,2c-0.3,0.4-0.7,0.8-1.3,1.3
				c-0.2,0.2-0.4,0.3-0.5,0.4c-0.1,0.1-0.4,0.3-0.8,0.7c-0.4,0.4-0.7,0.6-1,0.9c0.1,0.4,0.1,0.8,0.2,1.3l0.1,0.5l0.2,1.2
				c0.1,0.6,0.3,1.7,0.7,3.3c0.7,3.4,1.7,7.4,2,8.1c0.3,0.9,0.7,1.3,0.9,1.4l-0.2-0.5c-0.3-0.7-1.2-4.7-2-8.1
				c-0.3-1.5-0.6-2.7-0.7-3.3l-0.2-1.2l-0.1-0.5c-0.1-0.5-0.2-1-0.3-1.3c0.3-0.2,0.6-0.5,1-0.9c0.4-0.4,0.7-0.6,0.8-0.7
				c0.1-0.1,0.2-0.2,0.5-0.4c0.5-0.4,1-0.9,1.3-1.3c0.4-0.5,0.6-1.2,0.7-2c0.1-0.6,0.1-1.1,0-1.5c-0.1-0.5-0.2-0.8-0.5-1.1l-0.4-0.4
				L59.7,118.1z"/>
			<path class="st4" d="M131.7,125.3c0.2,1,0.4,2.1,0.6,3.4c0.6,3.8,1.1,6.7,1.5,8.5c0.3,1.5,0.6,2.8,0.9,4.1l0.3-0.5l0.2-0.3
				c-0.2-0.8-0.4-1.7-0.5-2.6c-0.4-1.9-0.9-4.7-1.5-8.5c-0.2-1.3-0.4-2.4-0.6-3.4c-0.2-1.4-0.6-2.3-1-2.9c-0.2-0.2-0.4-0.4-0.6-0.5
				C131.3,123.2,131.5,124.1,131.7,125.3z"/>
			<path class="st4" d="M127.7,138.9L127.7,138.9L127.7,138.9c0-0.6,0.1-1.8,0.4-3l0,0l-0.4-2.9l-0.4,2.1c-0.3,1.4-0.4,3-0.2,3.3
				C127.3,138.8,127.5,138.9,127.7,138.9z"/>
			<path class="st4" d="M141.6,126.4c-0.1,0-0.2,0-0.4,0.4c-0.2,0.5-0.3,1.1-0.2,1.8c0,0.8,0.1,1.5,0.3,1.9c0.1,0.2,0.2,0.4,0.4,0.5
				c0-0.8,0-1.4,0-1.9l0-2.6C141.6,126.4,141.6,126.4,141.6,126.4z"/>
			<path class="st4" d="M115.9,122.6c0.2,0.5,0.4,1.1,0.4,1.8c0.1,0.6,0.1,1.4,0,2.4c0,0.5,0,1.1-0.1,1.9c0,0.4,0,0.7-0.1,1l0.8,0
				l0-0.2c0-0.8,0.1-1.4,0.1-1.9c0-1,0-1.8,0-2.4c-0.1-0.7-0.2-1.3-0.4-1.8c-0.2-0.4-0.5-0.8-0.9-1L115.9,122.6z"/>
			<path class="st4" d="M102.7,137.5c0.1-0.3,0.1-0.6,0.2-0.9l-0.1-0.5c0-0.5-0.1-1.2-0.2-2.1l0-0.4c0,0-0.5,2.1-0.7,3.1
				c-0.3,1.2-0.5,2-0.6,2.6l1,0C102.4,138.8,102.5,138.2,102.7,137.5z"/>
			<path class="st4" d="M106.6,122c0.2,0.3,0.3,0.8,0.4,1.4c0.1,0.6,0.2,1.2,0.3,1.9l0.2,2l0.2,2.1l0.1,0.8c0.2,2.1,0.5,4.4,0.9,6.9
				l0.3,1.8l0.6-0.1l-0.2-0.9c-0.4-2.4-0.7-4.8-0.9-6.9l-0.1-0.8l-0.2-2.1l-0.2-2c-0.1-0.7-0.2-1.3-0.3-1.9
				c-0.1-0.6-0.3-1.1-0.4-1.4C107.1,122.5,106.9,122.2,106.6,122L106.6,122z"/>
			<path class="st4" d="M63.6,130.7c-0.5,1.4-0.8,2.9-0.6,3.2c0.2,0.5,0.4,0.5,0.6,0.6l0.1,0c0-0.6,0.3-1.8,0.7-2.9l0,0l-0.1-2.9
				L63.6,130.7z"/>
			<path class="st4" d="M123.1,142.3c-0.4-1.4-0.3-3.1,0-4.6l0.1-4.2c0-0.8,0-1.9,0.1-3.2c0-1.3,0.1-2.4,0.1-3.3
				c0-1.6-0.2-2.8-0.6-3.6c-0.2-0.4-0.5-0.6-0.8-0.8l0,0c0.5,0.8,0.7,1.9,0.6,3.6c0,0.8,0,1.9-0.1,3.3c0,1.3-0.1,2.4-0.1,3.2
				l-0.1,5.4c0,1.3,0,2.4,0,3.1c0,0.7,0,1.4,0.1,2.2l0,0.6l-0.5,0.2c-0.6,0.3-1.3,0.4-1.9,0.4c-0.6,0-1.2-0.2-1.6-0.5l0.1,0.1
				c0.6,0.8,1.4,1.2,2.3,1.2c0.6,0,1.3-0.1,1.9-0.4l0.5-0.2l0-0.6L123.1,142.3z"/>
			<path class="st4" d="M51,135c0.1-0.5,0.1-1,0.3-1.7c-0.2-0.7-0.3-1.5-0.5-2.1c-0.2,1.2-0.4,2.2-0.5,2.9c-0.1,0.9-0.2,1.8-0.2,2.8
				l0,0.7l-0.6,0.1c-0.9,0.2-1.7,0.2-2.4,0.1c-0.5-0.1-1-0.3-1.3-0.6c0.1,0.3,0.3,0.6,0.5,0.8c0.4,0.4,0.9,0.6,1.5,0.7
				c0.7,0.1,1.5,0.1,2.4-0.1l0.6-0.1l0-0.7C50.9,136.8,50.9,135.9,51,135z"/>
			<path class="st4" d="M116.6,141c0-0.8,0-2.1,0.1-3.9l0-1.1l0.3,0c0-0.3,0-0.6,0-0.8l-1.2,0l0,1.1c-0.1,1.8-0.1,3.1-0.1,3.9
				c0,0.8,0,1.8,0.1,2.9l0,0.6l-0.5,0.2c-0.8,0.3-1.4,0.4-2,0.4c-0.6,0-1.1-0.2-1.6-0.5l0.1,0.2c0.6,0.8,1.3,1.2,2.3,1.2
				c0.6,0,1.2-0.1,2-0.4l0.5-0.2l0-0.6C116.7,142.8,116.6,141.8,116.6,141z"/>
			<path class="st4" d="M135.1,143.2l0.2,0.6l-0.5,0.3c-0.9,0.5-1.8,0.7-2.6,0.7c-0.6,0-1.2-0.1-1.6-0.4l0,0
				c0.2,0.3,0.5,0.6,0.8,0.8c0.4,0.3,1,0.4,1.6,0.4c0.8,0,1.7-0.3,2.6-0.7l0.5-0.3l-0.1-0.4C135.7,143.8,135.4,143.5,135.1,143.2z"
				/>
			<path class="st4" d="M147.7,130.2c-0.1-2.4,0.1-4.6,0.4-6.5l0.1-0.6l-0.5-0.3l-0.4-0.2l-0.1,0.3c-0.3,1.9-0.5,4-0.4,6.5
				c0,0.6,0,1.4,0,2.2l0.1,2c0,0.6,0,1.5,0.1,2.8c0.1,1.3,0.1,2.3,0.1,2.9c0,1.9-0.2,3.2-0.6,4c-0.5,0.9-1.4,1.4-2.6,1.4
				c-0.4,0-0.7,0-1-0.1l-0.4-0.2l0,0.4l0.4,0.2c0.3,0.2,0.6,0.3,0.9,0.3c0.3,0.1,0.6,0.1,1,0.1c1.2,0,2.1-0.5,2.6-1.4
				c0.5-0.8,0.7-2.1,0.6-4c0-0.6-0.1-1.6-0.1-2.9c-0.1-1.3-0.1-2.3-0.1-2.8l-0.1-2C147.7,131.6,147.7,130.9,147.7,130.2z"/>
			<path class="st4" d="M111.1,143.1c-0.2-0.2-0.3-0.5-0.4-0.8l-0.1,0.7c-0.5,3.1-1.2,5.1-2.4,6.2c-0.4,0.5-1,0.7-1.6,0.7
				c-0.9,0-1.7-0.6-2.2-1.1l0.2,0.2c0.1,0.2,1.4,1.6,2.8,1.7c0.6,0,1.1-0.2,1.6-0.7c1.1-1.2,1.9-3.2,2.4-6.2l0-0.4L111.1,143.1z"/>
			<path class="st4" d="M141.9,137.1l-0.5,2.6c-0.3,1.4-0.7,2.6-1.2,3.6c-0.6,1.2-1.3,1.8-2,1.8c-0.6,0-1.2-0.2-1.8-0.7l0.6,0.7
				c0.6,0.5,1.3,0.8,2,0.8c0.8,0,1.5-0.6,2-1.8c0.3-0.6,0.6-1.4,0.8-2.2C141.9,140.2,141.9,138.6,141.9,137.1z"/>
			<path class="st4" d="M129.5,143.2l-0.2-0.4l-0.1,0.1c-0.9,0.8-1.7,1.6-3.1,1.6l-0.3,0c-0.5,0-0.9-0.2-1.3-0.4
				c0.5,0.7,1.2,1.2,2.2,1.2l0.3,0c1.3,0,2.1-0.7,3-1.5L129.5,143.2z"/>
			<path class="st4" d="M76.4,133.7l0.1-0.3l0-0.3c0-0.5,0-1.1-0.1-2l0-0.5l-0.7,2.3c-0.3,1.1-0.6,2.1-0.8,3.1
				c-0.2,1-0.4,1.8-0.5,2.4c0,0.4-0.1,0.7-0.1,0.9c0,0.2,0,0.5,0.1,0.9l0.1,0.6l-0.5,0.2c-0.3,0.1-0.6,0.2-0.9,0.3
				c-0.3,0-0.6,0-0.9,0c-0.7-0.1-1.2-0.3-1.5-0.7l-0.2-0.3l-0.5,0.2c-1,0.4-1.9,0.5-2.7,0.4c-0.6-0.1-1.2-0.3-1.5-0.6l0,0
				c0.2,0.4,0.4,0.7,0.7,0.9c0.4,0.3,0.9,0.5,1.6,0.6c0.8,0.1,1.8,0,2.7-0.4l0.5-0.2l0.2,0.3c0.4,0.4,0.9,0.6,1.5,0.7
				c0.4,0,0.7,0,0.9,0c0.3,0,0.6-0.1,0.9-0.3l0.5-0.2l-0.1-0.6c0-0.4-0.1-0.7-0.1-0.9c0-0.2,0-0.5,0.1-0.9c0.1-0.6,0.2-1.4,0.5-2.4
				C75.8,135.8,76.1,134.8,76.4,133.7z"/>
			<path class="st4" d="M104.9,145c0.1-0.4,0.2-0.6,0.1-0.7c0,0-0.1-0.1-0.3-0.1c-0.7,0-1.2,0-1.7-0.1c0,0-2.2-0.1-2.7-0.2
				c-0.5,0-1,0.1-1.4,0.4c-0.3,0.2-0.8,0.7-1,1.1l-0.4,0.6l-0.5-0.4c0.2,0.3,0.5,0.6,0.8,0.8l0.5,0.4l0.4-0.6c0.2-0.4,0.7-0.9,1-1.1
				c0.4-0.3,0.8-0.4,1.4-0.4c0.6,0,2.7,0.2,2.7,0.2C104.1,145,104.5,145,104.9,145z"/>
			<path class="st4" d="M82.8,140.3l0,0.2l0.1,0.7l-0.6,0.2c-1.1,0.5-2.2,0.7-3.1,0.6c-0.5,0-0.9-0.2-1.3-0.5l0.1,0.2
				c0.5,0.7,1.1,1.1,1.9,1.2c0.9,0.1,2-0.1,3.1-0.6l0.6-0.2l-0.1-0.4C83.3,141.3,83,140.8,82.8,140.3z"/>
			<path class="st4" d="M61.8,141.9l-0.1,0l0,0.2c0,0.7-0.6,1.9-2.2,2.5c-0.6,0.2-1.2,0.3-1.8,0.2c-1-0.2-1.9-0.8-2.7-1.6
				c0.8,1.2,2,2.3,3.4,2.5c0.6,0.1,1.2,0,1.8-0.2c1.6-0.7,2.2-1.8,2.2-2.6C62.4,142.5,62.2,142.1,61.8,141.9z"/>
			<path class="st4" d="M90.4,135.6l-0.8,2.5c-0.5,1.4-1,2.5-1.6,3.4c-0.7,1.1-1.4,1.6-2.2,1.6c-0.6-0.1-1.2-0.3-1.7-0.8l0.6,0.7
				c0.6,0.6,1.2,0.9,1.9,1c0.8,0.1,1.5-0.5,2.2-1.6c0.4-0.6,0.7-1.3,1-2.1C90.1,138.6,90.3,137.1,90.4,135.6z"/>
			<path class="st4" d="M95.2,140.6c-0.2,0.7-0.4,1.2-0.7,1.6c-0.6,0.9-1.5,1.3-2.7,1.2c-0.4,0-0.7-0.1-0.9-0.2l-0.4-0.2l-0.1,0.4
				l0.4,0.3c0.3,0.2,0.6,0.3,0.8,0.4c0.3,0.1,0.6,0.2,0.9,0.2c1.2,0.1,2.1-0.3,2.7-1.2l0.2-0.3C95.3,142.5,95.1,141.5,95.2,140.6z"
				/>
		</g>
		<path class="st2" d="M46.8,125.7c-0.1,0.6-0.3,1.6-0.6,2.7c-0.3,1.2-0.5,2.1-0.6,2.7c-0.2,0.8-0.3,1.5-0.3,2.1
			c-0.1,0.6-0.1,1.1,0,1.5c0.1,0.4,0.2,0.8,0.5,1c0.3,0.3,0.6,0.4,1.1,0.5c0.6,0.1,1.3,0.1,2.1-0.1c0-1,0.1-1.9,0.2-2.9
			c0.1-0.9,0.4-2.3,0.7-4.2c0.1-0.4,0.2-0.9,0.3-1.4c0.1-0.6,0.2-1,0.3-1.3c0.1,0.7,0.2,1.6,0.4,2.7c0.3,2.6,2.3,9.1,2.7,10.3
			c0.7,2.2,2.9,4.7,5.2,3.8c1.7-0.7,2-1.9,1.6-2.1c-0.9-0.3-1.9,0.3-2.9-2.2c-0.3-0.8-1.3-5-2-8.2c-0.3-1.5-0.5-2.7-0.6-3.3
			c-0.1-0.6-0.2-1-0.2-1.2c0-0.2-0.1-0.4-0.1-0.5c-0.2-0.8-0.3-1.5-0.3-1.9c0.3-0.2,0.7-0.6,1.3-1.1c0.4-0.4,0.7-0.6,0.8-0.7
			c0.1-0.1,0.2-0.2,0.5-0.4c0.5-0.4,0.9-0.8,1.1-1.1c0.3-0.4,0.5-0.9,0.6-1.6c0.1-0.5,0.1-0.9,0-1.2c-0.1-0.3-0.2-0.6-0.3-0.8
			c-0.2-0.2-0.3-0.4-0.5-0.5c-0.2-0.1-0.4-0.2-0.7-0.2c-0.3,0-0.6,0-1.1,0.1c-0.2,0.7-0.4,1.4-0.8,2.1c-0.4,0.7-0.8,1.3-1.2,1.9
			c-0.4,0.6-0.9,1.1-1.3,1.6c-0.4,0.5-1,1-1.5,1.5c-0.1,0.1-0.2,0.2-0.2,0.2c0.1-0.5,0.3-1.3,0.5-2.3c0.2-1,0.4-1.8,0.5-2.2
			c0.2-1.2,0.2-2.1-0.1-2.8c-0.3-0.7-0.7-1.1-1.4-1.2c-0.5-0.1-1.1-0.1-1.8,0.1c-0.1,0.9-0.3,1.8-0.5,2.7c-0.2,0.8-0.3,1.6-0.4,2.3
			L46.8,125.7z"/>
		<path class="st2" d="M187,129.9c0.1,0.7,0.2,1.6,0.3,2.8c0.1,1.2,0.2,2.1,0.3,2.8c0.1,0.8,0.2,1.5,0.4,2.1c0.1,0.6,0.3,1,0.5,1.4
			c0.2,0.4,0.5,0.7,0.8,0.8c0.3,0.2,0.7,0.2,1.2,0.2c0.6-0.1,1.3-0.3,2-0.8c-0.3-0.9-0.5-1.9-0.7-2.8c-0.2-0.9-0.4-2.3-0.7-4.2
			c-0.1-0.4-0.1-0.9-0.2-1.5c-0.1-0.6-0.1-1-0.2-1.3c0.3,0.6,0.7,1.4,1.2,2.5c1.1,2.4,5.1,8,5.9,9c1.4,1.9,4.3,3.6,6.2,1.9
			c1.4-1.2,1.2-2.5,0.8-2.5c-0.9,0-1.7,0.9-3.4-1.2c-0.5-0.7-2.9-4.4-4.5-7.2c-0.8-1.3-1.4-2.4-1.7-2.9c-0.3-0.5-0.5-0.9-0.6-1.1
			l-0.2-0.4c-0.4-0.8-0.7-1.3-0.9-1.7c0.2-0.3,0.5-0.8,0.9-1.5c0.3-0.5,0.4-0.8,0.5-1c0-0.1,0.1-0.2,0.3-0.5c0.3-0.5,0.6-1,0.7-1.4
			c0.1-0.4,0.2-1,0-1.7c-0.1-0.5-0.2-0.8-0.4-1.1c-0.2-0.3-0.3-0.5-0.6-0.7c-0.2-0.2-0.4-0.2-0.6-0.3c-0.2,0-0.5,0-0.7,0
			c-0.3,0-0.6,0.2-1,0.4c0.1,0.7,0.1,1.5-0.1,2.2c-0.1,0.8-0.3,1.5-0.5,2.2c-0.2,0.7-0.5,1.3-0.8,1.9c-0.3,0.6-0.6,1.2-1,1.9
			c-0.1,0.1-0.1,0.2-0.1,0.2c-0.1-0.5-0.2-1.3-0.2-2.3c-0.1-1-0.2-1.8-0.2-2.3c-0.2-1.2-0.5-2.1-1-2.6c-0.5-0.6-1-0.8-1.7-0.7
			c-0.5,0.1-1.1,0.3-1.7,0.6c0.2,0.9,0.3,1.8,0.4,2.7c0.1,0.9,0.2,1.6,0.3,2.3L187,129.9z"/>
		<path class="st2" d="M64.7,136.7c0,0.5,0.1,0.9,0.3,1.3c0.1,0.4,0.4,0.7,0.7,1c0.3,0.2,0.7,0.4,1.2,0.5c0.7,0.1,1.5,0,2.4-0.4
			c-0.2-1.8-0.4-3.8-0.6-6.1c-0.1-1.9-0.3-4.8-0.4-8.7c0-1.3-0.1-2.4-0.1-3.4c0-1.2-0.2-2.1-0.5-2.6c-0.3-0.5-0.8-0.8-1.5-0.9
			c-0.4-0.1-0.7-0.1-1.1,0c-0.3,0.1-0.7,0.2-1.1,0.3c0.1,0.5,0.2,0.9,0.3,1.3c0,0-4,10.9-4.5,12.1c-1.2,2.9-2,6.5,0.8,7.2
			C62.3,138.8,63.2,137.7,64.7,136.7z M64.7,134c0,0-1.8,1.7-2.7-0.3c-0.4-1,0.6-3.9,0.6-3.9l1.9-5.8L64.7,134z"/>
		<path class="st2" d="M129.1,141c0.1,0.5,0.2,0.9,0.4,1.3c0.2,0.4,0.4,0.7,0.8,0.9c0.3,0.2,0.8,0.3,1.3,0.3c0.7,0,1.5-0.2,2.3-0.7
			c-0.5-1.8-0.9-3.8-1.3-5.9c-0.4-1.9-0.9-4.7-1.5-8.6c-0.2-1.3-0.4-2.4-0.6-3.4c-0.2-1.2-0.5-2.1-0.8-2.5c-0.4-0.4-0.9-0.7-1.6-0.7
			c-0.4,0-0.8,0-1.1,0.1c-0.3,0.1-0.7,0.2-1.1,0.4c0.2,0.4,0.4,0.9,0.5,1.2c0,0-2.5,11.4-2.9,12.6c-0.8,3-1.1,6.7,1.7,7
			C127,143.3,127.8,142.1,129.1,141z M128.7,138.3c0,0-1.6,1.9-2.7,0c-0.6-0.9,0.1-3.9,0.1-3.9l1.1-6L128.7,138.3z"/>
		<path class="st2" d="M207.2,134.9c0.2,0.5,0.4,0.9,0.7,1.2c0.3,0.3,0.6,0.6,0.9,0.7c0.4,0.1,0.8,0.1,1.3,0
			c0.7-0.1,1.5-0.5,2.2-1.1c-0.8-1.6-1.7-3.5-2.6-5.6c-0.8-1.8-1.8-4.5-3.2-8.1c-0.4-1.2-0.9-2.3-1.2-3.2c-0.4-1.2-0.9-1.9-1.3-2.3
			c-0.4-0.4-1-0.5-1.7-0.4c-0.4,0.1-0.7,0.2-1,0.3c-0.3,0.1-0.6,0.4-1,0.6c0.3,0.4,0.5,0.8,0.7,1.1c0,0-0.2,11.6-0.4,12.9
			c-0.2,3.1,0.2,6.8,3.1,6.5C205.5,137.6,206,136.3,207.2,134.9z M206.2,132.4c0,0-1.2,2.1-2.7,0.5c-0.7-0.8-0.7-3.9-0.7-3.9
			l-0.1-6.1L206.2,132.4z"/>
		<path class="st2" d="M70.4,137.8c-0.1,0.8,0,1.3,0.2,1.6c0.3,0.3,0.6,0.4,1.1,0.5c0.3,0,0.6,0,0.8,0c0.2,0,0.4-0.1,0.7-0.2
			c0-0.4-0.1-0.7-0.1-1c0-0.3,0-0.6,0.1-1c0.1-0.7,0.2-1.5,0.5-2.5c0.2-1,0.5-2.1,0.9-3.2c0.3-1.1,0.7-2.2,1-3.2
			c0.3-1,0.6-1.9,0.9-2.7c0,1,0,2.4,0.1,4.4c0,0.9,0.1,1.5,0.1,2c0,1.4,0.1,3.1,0.2,5.1c0,1,0.2,1.8,0.6,2.3
			c0.3,0.5,0.8,0.8,1.4,0.9c0.8,0.1,1.8-0.1,2.8-0.5c-0.3-1.8-0.6-3.9-0.9-6.2c-0.2-2.3-0.4-4.5-0.5-6.5l0-0.8l-0.1-2l-0.1-1.9
			c0-0.6-0.1-1.2-0.2-1.7c-0.1-0.5-0.2-0.9-0.3-1.1c-0.1-0.3-0.3-0.5-0.6-0.6c-0.2-0.1-0.5-0.2-0.8-0.3c-0.5,0-1.1,0.1-1.9,0.4
			c-1.1,3.9-2.2,7.2-3.2,9.8l-0.2,0.6c-0.3,0.8-0.6,1.6-0.9,2.3l-0.8,2.1c-0.3,0.7-0.5,1.4-0.7,2.1
			C70.6,136.9,70.5,137.4,70.4,137.8z"/>
		<path class="st2" d="M121.3,132.1c0-0.8,0.1-1.9,0.1-3.2c0.1-1.3,0.1-2.4,0.1-3.2c0-1.4-0.1-2.5-0.5-3.1c-0.4-0.6-1-0.9-1.8-1
			c-0.3,0-0.6,0-0.8,0.1c-0.3,0.1-0.6,0.2-0.9,0.4c0.1,0.9,0.1,1.8,0.1,2.8c0,1,0,2.1-0.1,3.5l-0.1,1.7L115,130c0-0.4,0-1,0.1-1.8
			c0-0.8,0.1-1.4,0.1-1.9c0-1,0-1.7,0-2.3c-0.1-0.6-0.2-1.1-0.3-1.5c-0.2-0.4-0.4-0.6-0.7-0.8c-0.3-0.2-0.8-0.3-1.3-0.3
			c-0.4,0-0.9,0.1-1.5,0.3c0.1,1.6,0.1,3.4,0,5.7l-0.2,4c0,0.9-0.1,2.2-0.2,3.9c-0.1,1.7-0.2,3-0.2,3.9c-0.1,1.3,0.1,2.2,0.6,2.8
			c0.4,0.6,1,0.9,1.8,0.9c0.5,0,1.1-0.1,1.8-0.4c0-1.1-0.1-2.1-0.1-3c0-0.9,0-2.2,0.1-3.9l0.1-1.9l2.5,0.1c0,0.5,0,1.3-0.1,2.5
			c-0.1,1.4-0.1,2.4-0.1,3c0,1.3,0.2,2.3,0.6,2.8c0.4,0.6,1,0.9,1.8,0.9c0.5,0,1.1-0.1,1.7-0.3c-0.1-0.8-0.1-1.5-0.1-2.2
			c0-0.7,0-1.7,0-3.1L121.3,132.1z"/>
		<path class="st2" d="M84,140.9c0.5,0.5,1,0.7,1.5,0.8c0.5,0,1-0.4,1.6-1.2c0.5-0.9,1-1.9,1.5-3.3c0.5-1.3,0.8-2.6,1.2-4
			c0.3-1.3,0.6-2.5,0.8-3.5c-0.5-0.1-0.9-0.5-1.1-1.1c-0.2-0.6-0.3-1.4-0.2-2.3c0.1-0.8,0.2-1.5,0.5-2.1c0.3-0.6,0.6-0.8,1.1-0.8
			c0.2,0,0.5,0.2,0.8,0.6c-0.1,1-0.3,2-0.3,3c-0.1,0.8-0.1,2-0.2,3.6c-0.1,1.6-0.1,2.8-0.2,3.6c-0.2,2.2-0.4,4.6-0.8,7.3
			c0.3,0.2,0.5,0.3,0.7,0.4c0.2,0.1,0.5,0.1,0.8,0.1c1,0.1,1.7-0.2,2.1-0.9c0.4-0.6,0.7-1.8,0.8-3.5c0-0.6,0.1-1.5,0.1-2.9
			c0.1-1.3,0.1-2.3,0.2-2.9c0-0.2,0.1-0.9,0.1-2.1c0.1-0.8,0.1-1.5,0.2-2.2c0.2-2.5,0.5-4.7,1-6.6c-0.4-0.3-0.7-0.5-1-0.6
			c-0.3-0.1-0.6-0.2-0.9-0.2c-0.5,0-0.8,0-1.1,0.1c-0.2,0.1-0.5,0.4-0.8,0.9c-0.4-0.4-0.8-0.8-1.2-1c-0.4-0.2-0.8-0.4-1.3-0.4
			c-0.5,0-0.9,0-1.4,0.2c-0.5,0.2-0.9,0.5-1.3,0.9c-0.4,0.4-0.7,1-1,1.6c-0.3,0.7-0.5,1.4-0.5,2.3c-0.1,1.5,0.1,2.9,0.9,4
			c0.1,0.1,0.9,1.1,0.9,1c-2.1,6.4-3.8,8-4.5,9C83.1,139.8,83.6,140.5,84,140.9z"/>
		<path class="st2" d="M136,143c0.5,0.4,1,0.6,1.6,0.6c0.5,0,1-0.5,1.5-1.4c0.5-0.9,0.8-2,1.2-3.4c0.3-1.3,0.6-2.7,0.8-4.1
			c0.2-1.4,0.4-2.5,0.4-3.5c-0.5-0.1-0.9-0.4-1.2-1c-0.3-0.6-0.4-1.4-0.4-2.3c0-0.8,0.1-1.6,0.3-2.1c0.2-0.6,0.5-0.9,1-0.9
			c0.2,0,0.5,0.2,0.8,0.5c-0.1,1-0.1,2-0.1,3c0,0.8,0,2,0.1,3.6c0.1,1.6,0.1,2.8,0.1,3.6c0,2.2,0,4.6-0.2,7.3
			c0.3,0.1,0.5,0.2,0.7,0.3c0.2,0.1,0.5,0.1,0.8,0.1c1,0,1.6-0.4,2-1.1c0.4-0.7,0.6-1.9,0.5-3.5c0-0.6-0.1-1.5-0.1-2.9
			c-0.1-1.3-0.1-2.3-0.1-2.9c0-0.2,0-0.9,0-2.1c0-0.8,0-1.5,0-2.2c-0.1-2.5,0.1-4.7,0.4-6.6c-0.4-0.2-0.7-0.4-1-0.5
			c-0.3-0.1-0.6-0.1-0.9-0.1c-0.5,0-0.8,0.1-1,0.2c-0.2,0.1-0.5,0.5-0.7,1c-0.5-0.4-0.9-0.7-1.3-0.9c-0.4-0.2-0.9-0.3-1.4-0.3
			c-0.5,0-0.9,0.1-1.4,0.3c-0.4,0.2-0.8,0.6-1.2,1c-0.4,0.5-0.6,1-0.9,1.7c-0.2,0.7-0.3,1.5-0.3,2.4c0,1.5,0.4,2.9,1.3,3.9
			c0.1,0.1,1,1,1,0.9c-1.5,6.6-3.1,8.3-3.7,9.4C135.1,142,135.5,142.6,136,143z"/>
		<path class="st2" d="M161.5,135.6c-0.1-2.5-0.9-4.3-2.3-5.4c0.4-0.5,0.7-1.2,0.9-1.9c0.2-0.7,0.3-1.5,0.2-2.4
			c-0.1-0.9-0.2-1.6-0.5-2.2c-0.3-0.6-0.6-1.1-1-1.5c-0.4-0.4-0.8-0.6-1.3-0.8c-0.4-0.2-0.9-0.2-1.3-0.2c-0.3,0-0.7,0.1-1.2,0.3
			c-0.5,0.2-0.9,0.4-1.4,0.7c-0.5,0.3-0.8,0.7-1.1,1.2c-0.3,0.5-0.4,1.1-0.4,1.7c0,0.8,0.2,1.4,0.6,1.8c0.4,0.4,0.8,0.6,1.3,0.7
			c0-0.9,0.2-1.6,0.4-2.2c0.2-0.6,0.6-0.9,1-1c0.3,0,0.6,0.2,0.8,0.6c0.2,0.4,0.4,0.8,0.4,1.3c0,0.4,0,0.8-0.1,1.2
			c-0.1,0.4-0.3,0.9-0.4,1.4c-0.1,0.3-0.1,0.4-0.2,0.5c-0.3,0-0.6,0.1-0.9,0.1c-0.3,0.1-0.6,0.2-0.8,0.4c-0.2,0.2-0.4,0.5-0.6,0.8
			c-0.2,0.4-0.2,0.8-0.2,1.4c0,0.4,0.1,0.9,0.2,1.4c0.2-0.3,0.5-0.4,0.7-0.5c0.2-0.1,0.4-0.2,0.7-0.2c0.6,0,1.2,0.2,1.6,0.8
			c0.5,0.6,0.7,1.4,0.8,2.5c0,1-0.1,1.9-0.6,2.6c-0.4,0.7-1,1-1.6,1c-0.9,0-1.8-0.5-2.6-1.6c-0.3,0.7-0.4,1.5-0.4,2.5
			c0,0.6,0.2,1.1,0.4,1.5c0.3,0.4,0.6,0.7,1,0.9c0.4,0.2,0.8,0.3,1.2,0.4c0.4,0.1,0.8,0.1,1.1,0.1c0.7,0,1.4-0.2,2.1-0.6
			c0.7-0.4,1.3-0.9,1.8-1.6c0.5-0.7,0.9-1.6,1.2-2.6C161.5,138,161.6,136.9,161.5,135.6z"/>
		<path class="st2" d="M174.2,130.3c-0.3-3.4-1-5.9-2.1-7.5c-1.1-1.6-2.5-2.3-4.4-2.2c-0.9,0.1-1.7,0.4-2.4,1
			c-0.7,0.6-1.2,1.5-1.6,2.5c-0.4,1.1-0.7,2.3-0.8,3.7c-0.1,1.4-0.2,3-0.1,4.6c0.2,3.3,0.8,5.9,1.9,7.6c1.1,1.8,2.6,2.6,4.5,2.5
			c1-0.1,1.9-0.4,2.6-1.1c0.7-0.6,1.3-1.5,1.7-2.6c0.4-1.1,0.6-2.4,0.7-3.8C174.4,133.6,174.4,132,174.2,130.3z M170.1,131.1
			c0.1,1,0.1,2,0.2,2.9c0,0.9,0,1.8,0,2.6c0,0.8-0.1,1.5-0.3,2.1c-0.2,0.6-0.5,0.9-0.8,0.9c-0.3,0-0.6-0.2-0.8-0.7
			c-0.2-0.5-0.4-1.1-0.6-1.9c-0.1-0.8-0.3-1.6-0.4-2.5c-0.1-0.9-0.2-1.9-0.3-2.9l-0.1-2.3c0-0.8,0-1.6,0-2.5c0-0.9,0.2-1.6,0.3-2.1
			c0.2-0.6,0.4-0.9,0.8-0.9c0.3,0,0.6,0.2,0.8,0.7c0.2,0.5,0.4,1.1,0.6,1.9l0.3,2.3C170,129.4,170.1,130.2,170.1,131.1z"/>
		<path class="st2" d="M176.5,132.3c0,0.4,0.1,1.2,0.2,2.3c0.1,1,0.1,1.8,0.2,2.4c0.2,1.6,0.4,2.7,0.8,3.4c0.4,0.7,1.1,1.1,1.9,1
			c0.5-0.1,1.1-0.3,1.8-0.6c-0.3-1.6-0.7-4-1-6.9c-0.1-0.8-0.2-2-0.3-3.6c-0.1-1.6-0.2-2.8-0.3-3.6c-0.1-1.3-0.3-2.3-0.4-3.2
			c0.3-0.3,0.5-0.4,0.7-0.4c0.4,0,0.7,0.2,0.9,0.7c0.2,0.5,0.4,1.1,0.5,1.9l0.1,1.2l-0.1,1.1c-0.1,0.3-0.2,0.6-0.3,0.8
			c-0.1,0.2-0.3,0.3-0.6,0.4l-0.2,0c0,0.2,0.1,0.5,0.1,0.8c0.2,1,0.4,1.6,0.6,2c0.2,0.3,0.6,0.5,1.2,0.4c0.5-0.1,1-0.3,1.3-0.7
			c0.4-0.4,0.7-1,0.9-1.7c0.2-0.7,0.3-1.5,0.4-2.4c0-0.9,0-1.7-0.1-2.6c-0.2-1.8-0.7-3.3-1.4-4.2c-0.7-1-1.5-1.4-2.5-1.3
			c-0.5,0.1-0.9,0.2-1.2,0.4c-0.3,0.2-0.6,0.6-1,1.2c-0.3-0.5-0.6-0.8-0.8-0.9c-0.2-0.1-0.6-0.2-1-0.1c-0.3,0-0.6,0.1-0.9,0.2
			c-0.3,0.1-0.6,0.3-1,0.5c0.3,0.8,0.5,1.8,0.7,2.8c0.2,1,0.3,2.1,0.4,3.1L176.5,132.3z"/>
		<path class="st2" d="M109.5,142.3c-0.4,2.4-1,4.6-2.1,5.8c-1.4,1.4-3.5-1-3.5-1c0,0,2.7-4.2,0.3-4.3c-1.7-0.1-2.7-0.1-4.4-0.2
			c-0.6,0-1.2,0.1-1.8,0.5c-0.4,0.3-0.9,0.8-1.2,1.3c-0.7-0.5-1-1.4-1.2-2.3c-0.2-0.7-0.4-2.2-0.1-3c0.3-0.6,1.5,0.1,1.6-0.1
			c0.7-2.1,1.3-4.2,1.9-6.3l0.2-0.7c0.9-2.9,1.8-6.4,2.8-10.6c0.8-0.4,1.5-0.6,2-0.5c0.3,0,0.6,0.1,0.9,0.2c0.3,0.1,0.5,0.4,0.6,0.7
			c0.1,0.2,0.2,0.6,0.3,1.2c0.1,0.5,0.2,1.2,0.3,1.8l0.2,2l0.2,2.1l0.1,0.8c0.2,2.1,0.5,4.5,0.9,6.9c0.1,0.9,0.3,1.8,0.4,2.6
			c0.5-0.1,1.3-0.3,1.5-0.1C109.8,139.7,109.6,141.7,109.5,142.3z M103.6,139.4c-0.2-1.6-0.4-2.9-0.5-4.1c0-0.5-0.1-1.2-0.2-2.1
			c-0.2-2-0.3-3.6-0.4-4.6c-0.2,0.8-2.5,10.8-2.5,10.8C101,139.5,102.5,139.5,103.6,139.4z"/>
	</g>
</g>
</svg>
