<?xml version="1.0" encoding="utf-8"?>
<!-- Generator: Adobe Illustrator 19.1.0, SVG Export Plug-In . SVG Version: 6.00 Build 0)  -->
<svg version="1.1" id="Layer_2" xmlns="http://www.w3.org/2000/svg" xmlns:xlink="http://www.w3.org/1999/xlink" x="0px" y="0px"
	 viewBox="0 0 734.6 195.7" style="enable-background:new 0 0 734.6 195.7;" xml:space="preserve">
<style type="text/css">
	.st0{fill:#FFFFFF;}
</style>
<path class="st0" d="M111.1,120.8c0,4.3-14.2,1.6-22.3-5.6c-16.3-14.5-10.3-30.7-5.9-43.8C80.6,78,63.5,123.1,38.6,126
	c-55.7,1.8-4.3-87.9-12.4-106.4c-12.6-3.4-16.9,6.3-16.9,6.3l-2.2-1.5c1.4-3.3,17.8-20.7,32.5-9.9c6.5,5.7-1,27.4-5.9,52.4
	c-4.4,22-7,49.9,7.4,50.7c27.5,1.5,41-69.8,48.8-89.7c0,0,4.7,8.8,15.5,12.3C94,75.1,91.9,83.3,93.8,98.1c2.5,19.3,9.4,20.8,22,12.7
	c0.8,0.9,1,0.3,1.9,1.5c0,0-3.6,1.5-3.9,4.9c-0.5,7.7-4.5,16.3-16.3,17.6c-78.1,9.1-60.3,46.7-52.3,52.2c1.5,1-23.9-3.1-27.3-22.4
	c-2.7-15.3,5.1-28,26.9-34.6c15.7-4.8,43.8-2.3,53.6-2.3C106.9,127.7,111.1,124.6,111.1,120.8z"/>
<path class="st0" d="M126.5,76.2c-3.2,2.8-11,37.1,3.5,46l-2.2,2.1c-4.5-1.6-20.6-11.9-12-51.8C115.8,72.5,129.9,73.2,126.5,76.2z
	 M125.7,56.1c4.9,0,6.6,4.6,5.9,7.3c-1.6,6.6-11.2,8.5-13.1-0.3C118.6,63.1,118.9,56.1,125.7,56.1z"/>
<path class="st0" d="M164.3,86.1c-1.8,0.8-2.7-1.3-2.7-1.3c4.7-8.8,26-22.7,33.9-7.3c2.2,4.5-1.3,9.7-6.9,14.3
	c-8.5,7.5-14.5,15-13.3,20.2c2.3,10.4,14.2,10,20.6-5.6c2-0.8,2.3,0.7,2.3,0.7c0.9,3.9-4.9,26.2-27.5,15.6
	c-4.8-2.3-7.7-10.6-5.6-17.1c3.2-9.8,11.2-12,18.6-20.9C193.3,71.3,169.6,77.5,164.3,86.1z"/>
<path class="st0" d="M217.7,69.4c23.8-1.6,35.9,26.9,15.8,46.1c-20,19.2-37.7-6.5-37.7-6.5s1.2-4.4,2.4-2
	c10.3,14,22.8,13.1,29.4,2.9c1.9-2.8,2.9-6.2,3.3-9.9c-23.4-3.4-18.8-3.9-27.6-0.8c0,0,2.4-7.6,15.4-6.6c7.4,0.8,8.5,2.8,12.3,3.9
	c0.1-11.7-5.4-24-11.4-23.9c-11.1,0.2-12.4,10.4-12.4,10.4C197,77.5,212,69.8,217.7,69.4z"/>
<path class="st0" d="M284.1,98.8c0,0,15.3-28.7,24.3-28.1c21.4-1.6-3.8,44,2.2,49.6c5.2,1.4,11.1-3.9,11.1-3.9l0.2,2.2
	c-2.3,1.2-9.2,11-19.5,6.4c-5.9-2.3,0.6-16.8,2-27.3c1.1-8.3,2.6-14.6-0.7-14.6c-6.4-0.7-19.3,30.3-20.9,40c0,0-5.8-0.1-10.3-1.5
	c0,0,0.7-6.5,5.3-25.3c1.1-8.3,0.8-15.4-2.5-15.5c-6.5-0.6-18.6,35.2-20.9,42.2c0,0-6.7-0.8-11.1-2.2c0,0,7.4-33.6,8.2-40.5
	c0.9-7.4-8.2-5.4-13.2-3c-0.3-0.4-0.4-1-0.7-1.5c0,0,11.2-8.6,19-3.2c6,7,0.8,21.2-1.1,26.6c0,0,11.9-29.7,23.1-29.1
	C287.9,71.5,286.5,92.2,284.1,98.8z M264.1,63.8c0.8-0.9,1.1-2.7,0.8-4.5c-1,0.7,27-1.3,40-5.5c4.1-1.3-0.1,10.9-0.1,10.8
	C302.4,64.4,282.4,69.1,264.1,63.8z"/>
<path class="st0" d="M330.2,106.6c-1.6,17.5,9.6,9.6,13.2,5.3c5.8-6.9,7.6-29.7,7.6-29.7l7.2,1.9c0,0-1.6,18.9-1.6,22.5
	c0,3.4,4.5,18.3,13.6,6.1l0.4,0.3c-1,3.3-3.5,8.6-9.3,9.2c-13.4,1.4-10.3-15.6-10.3-15.6s-9.7,21.2-20.8,15.7
	c-32.1-15.9,8.3-73.6,26.4-43.4C356.6,80.7,334.2,71.9,330.2,106.6z"/>
<path class="st0" d="M411.6,75.2c6.9,6.2,5.8,20.3,5.2,25.4c0,0,5.6,0.3,11.6-6.9c1.4-1.7,4.6-20.4,8-22.4c0,0,9.3,1,7.7,6.2
	c-2.5,3.3-10.1,35.2-0.7,38c5.3,0.9,8-3.8,8-3.8l0.7,1.1c0,0-3.4,12.1-15.6,8.4c-10.4-2.4-8.1-15.4-8.7-20.4l-11.3,6.2
	c-0.9,5.2-2.9,14.7-4.9,17.9c0,0-4.6-1.6-9.8-2.5c0,0,5.6-32.2,5.6-39.1c0-7.4-4.1-5.7-8.7-2.8c-0.3-0.4-0.4-0.3-0.8-0.7
	C398,79.8,403.3,70.5,411.6,75.2z"/>
<path class="st0" d="M480.6,112.1c1.1-1.5-0.7-8.2-0.3-8.2c6.4-0.6,8.1,3,8.1,3c0-0.4-2.1,13.8-18,16.3c-19.2,3-26.4-17.1-25.7-26.1
	c1.6-22.7,28.2-33.4,35.9-20.6c10.3,17.3-18.4,29.9-22.7,27.5C457.3,111.5,467.7,129.6,480.6,112.1z M471.8,75.3
	c-9.4-1.7-16.4,26.2-14.2,25.2C465.2,100.8,485,77.6,471.8,75.3z"/>
<path class="st0" d="M567.4,121.6c1.5,2.8-7.5,4.3-11.6,1.5c-6.1-6.8-2.1-20.7-0.2-26.3c-0.9,1.9-13.8,29.1-22.5,28.5
	c-13.4,1.7-9.2-12.2-7.7-24.7c1.3-11.2,3.8-23.7,2.2-24.8c-5.2-1.4-8.5,3-8.5,3l-1.5-1.2c2,0.5,7-11.4,17.5-6.9
	c5.9,2.3,2.1,17.4,0.8,27.9c-1,8.3-2.6,16.7,0.7,16.7c6.5,0.6,21-35.3,26.6-42.3c0,0,2.4,2.8,6.9,4.2c0,0-8.8,30.1-9.6,36.9
	c-0.8,7.4,3.8,7.3,8.8,4.9c0.3,0.4,0.4,0.3,0.7,0.8l-0.1,0.1c1.3-0.2,3.9,13.8-6.8,19.4c-9.6,5.1-17.2,2.1-17.2,11.6
	c-4.8-1.3-11.7-14-1.2-19.1c5.1-2.5,10.8,1,17.6-0.8C568.1,129.5,569.6,125.6,567.4,121.6z"/>
<path class="st0" d="M582.4,72.9c12,2-5.2,40.5,0.2,46c1.9,1.9,14.2,0.6,18.8-4.3c0,0,3.2-26.2,3.2-39.3c0-1.9,12.6-1.3,13,0.7
	c0.9,5.1-9.1,51.8-13.7,68.5c39,8.2,59.4,9,86.6-4.3c4.5-2.2-0.6,40.8-89.7,12.4c-5.6,11.9-15.5,29.2-38.1,29.2
	c-20,0-21.6-13-20-20.5c1.5-7,10.7-21.6,48.9-18.1l6.3,0.6c2.1-7,3.4-15.2,3.6-24.8c0-0.7-40.7,26.8-27.2-32.2
	c4.2-18.2-11.9-3.2-13.8-0.8c0,0-0.5-0.2-1.5-1.3C560.3,80.5,570.1,70.9,582.4,72.9z M566.3,177.7c8.9-0.3,21.2-8.3,29-26.7
	c-16.1-4.4-30.7-0.2-35.7,4.2C548.9,164.5,555.5,178,566.3,177.7z"/>
<path class="st0" d="M628.5,109.8c0,17.2,10.3,8.3,15.3,2.5c4.1-4.7,8.3-25.8,8.3-25.8c9.1,0,12,2.5,12,2.5
	c-2.9,10.3-4.8,50.7-4.8,50.7s-1.3,32.1-24.7,37c-32.4,6.9-27.3-23.9-27.3-23.9l1.4-0.4c-0.3,7.4,2,25.5,23.2,17.7
	c9.6-3.5,14.2-17.7,16.5-30.9c2.4-13.9,2.1-27.1,1.6-27.1c0,0-6.1,9.5-15.4,12c-12.1,5.2-24.6-27.9-6.6-45.4
	c21.6-20.9,27.3,2.3,27.3,2.3C649.5,78.9,628.5,91.6,628.5,109.8z"/>
<path class="st0" d="M667,24.8c11.3-10.6,47.1-20.9,56-5.5c16.4,28.3-31.4,32.4-34.5,82.7c-3.7,3.3-5.8,1.3-5.8,1.3
	c-0.6-52.9,22.7-45.6,28.2-70.9c2.6-12.3-25.3-16.6-35,13.7C675.9,46.5,649.5,41.3,667,24.8z M686.5,112.3c6.4,0,8.5,6,7.6,9.4
	c-2.3,8.5-14.7,10.8-16.9-0.6C677.2,121.1,677.8,112.1,686.5,112.3z"/>
</svg>
