<?xml version="1.0" encoding="utf-8"?>
<!-- Generator: Adobe Illustrator 17.0.0, SVG Export Plug-In . SVG Version: 6.00 Build 0)  -->
<!DOCTYPE svg PUBLIC "-//W3C//DTD SVG 1.1//EN" "http://www.w3.org/Graphics/SVG/1.1/DTD/svg11.dtd">
<svg version="1.1" id="Layer_1" xmlns="http://www.w3.org/2000/svg" xmlns:xlink="http://www.w3.org/1999/xlink" x="0px" y="0px"
	 width="252.1px" height="437.499px" viewBox="0 0 252.1 437.499" enable-background="new 0 0 252.1 437.499" xml:space="preserve">
<g>
	<defs>
		<polygon id="SVGID_1_" points="110.833,133.569 68.418,29.964 35.913,0 62.075,46.724 71.268,159.471 112.993,141.695 		"/>
	</defs>
	<linearGradient id="SVGID_2_" gradientUnits="userSpaceOnUse" x1="74.4529" y1="-1.729859e-009" x2="74.4529" y2="159.4707">
		<stop  offset="0" style="stop-color:#F5F5F5"/>
		<stop  offset="0.5317" style="stop-color:#D7D7D7"/>
		<stop  offset="0.9796" style="stop-color:#C0C0C0"/>
	</linearGradient>
	<use xlink:href="#SVGID_1_"  overflow="visible" fill="url(#SVGID_2_)"/>
	<clipPath id="SVGID_3_">
		<use xlink:href="#SVGID_1_"  overflow="visible"/>
	</clipPath>
	<linearGradient id="SVGID_4_" gradientUnits="userSpaceOnUse" x1="94.9813" y1="165.565" x2="94.9813" y2="42.2178">
		<stop  offset="0" style="stop-color:#939393"/>
		<stop  offset="0.3669" style="stop-color:#AAAAAA"/>
		<stop  offset="0.7399" style="stop-color:#BBBBBB"/>
		<stop  offset="1" style="stop-color:#C0C0C0"/>
	</linearGradient>
	<polygon clip-path="url(#SVGID_3_)" fill="url(#SVGID_4_)" points="93.519,42.218 71.268,159.471 85.007,165.565 118.694,137.632 
		114.668,83.29 	"/>
	<linearGradient id="SVGID_5_" gradientUnits="userSpaceOnUse" x1="39.0838" y1="55.8655" x2="91.8055" y2="55.8655">
		<stop  offset="0" style="stop-color:#EBEBEB"/>
		<stop  offset="0.3669" style="stop-color:#D6D6D6"/>
		<stop  offset="0.7399" style="stop-color:#C6C6C6"/>
		<stop  offset="1" style="stop-color:#C0C0C0"/>
	</linearGradient>
	<polygon clip-path="url(#SVGID_3_)" fill="url(#SVGID_5_)" points="54.94,37.583 91.805,82.782 82.527,28.949 39.084,28.949 	"/>
</g>
<g>
	<defs>
		<polygon id="SVGID_6_" points="142.261,133.569 184.677,29.964 217.18,0 191.018,46.724 181.825,159.471 140.1,141.695 		"/>
	</defs>
	
		<linearGradient id="SVGID_7_" gradientUnits="userSpaceOnUse" x1="152.05" y1="-1.730768e-009" x2="152.05" y2="159.4707" gradientTransform="matrix(-1 0 0 1 330.6904 0)">
		<stop  offset="0" style="stop-color:#F5F5F5"/>
		<stop  offset="0.5317" style="stop-color:#D7D7D7"/>
		<stop  offset="0.9796" style="stop-color:#C0C0C0"/>
	</linearGradient>
	<use xlink:href="#SVGID_6_"  overflow="visible" fill="url(#SVGID_7_)"/>
	<clipPath id="SVGID_8_">
		<use xlink:href="#SVGID_6_"  overflow="visible"/>
	</clipPath>
	
		<linearGradient id="SVGID_9_" gradientUnits="userSpaceOnUse" x1="172.5778" y1="165.565" x2="172.5778" y2="42.2178" gradientTransform="matrix(-1 0 0 1 330.6904 0)">
		<stop  offset="0" style="stop-color:#939393"/>
		<stop  offset="0.3669" style="stop-color:#AAAAAA"/>
		<stop  offset="0.7399" style="stop-color:#BBBBBB"/>
		<stop  offset="1" style="stop-color:#C0C0C0"/>
	</linearGradient>
	<polygon clip-path="url(#SVGID_8_)" fill="url(#SVGID_9_)" points="159.575,42.218 181.825,159.471 168.087,165.565 134.4,137.632 
		138.427,83.29 	"/>
	
		<linearGradient id="SVGID_10_" gradientUnits="userSpaceOnUse" x1="116.6798" y1="55.8655" x2="169.4025" y2="55.8655" gradientTransform="matrix(-1 0 0 1 330.6904 0)">
		<stop  offset="0" style="stop-color:#EBEBEB"/>
		<stop  offset="0.3669" style="stop-color:#D6D6D6"/>
		<stop  offset="0.7399" style="stop-color:#C6C6C6"/>
		<stop  offset="1" style="stop-color:#C0C0C0"/>
	</linearGradient>
	<polygon clip-path="url(#SVGID_8_)" fill="url(#SVGID_10_)" points="198.153,37.583 161.288,82.782 170.567,28.949 214.011,28.949 
			"/>
</g>
<g>
	<defs>
		<polygon id="SVGID_11_" points="242.908,147.721 197.218,159.044 177.753,177.316 161.802,169.853 164.12,184.985 
			125.934,149.522 87.749,184.985 90.067,169.853 74.116,177.316 54.651,159.044 8.961,147.721 -0.232,152.353 23.559,194.042 
			58.165,202.535 77.669,215.942 80.335,249.629 113.589,272.533 125.934,274.334 138.28,272.533 171.534,249.629 174.2,215.942 
			193.704,202.535 228.309,194.042 252.1,152.353 		"/>
	</defs>
	<use xlink:href="#SVGID_11_"  overflow="visible" fill="#D7C6AE"/>
	<clipPath id="SVGID_12_">
		<use xlink:href="#SVGID_11_"  overflow="visible"/>
	</clipPath>
	<linearGradient id="SVGID_13_" gradientUnits="userSpaceOnUse" x1="-2.1242" y1="176.5432" x2="71.1434" y2="176.5432">
		<stop  offset="3.188800e-004" style="stop-color:#DDB2B4"/>
		<stop  offset="0.1986" style="stop-color:#D7ACAE"/>
		<stop  offset="0.4509" style="stop-color:#C89CA0"/>
		<stop  offset="0.7312" style="stop-color:#AF838A"/>
		<stop  offset="1" style="stop-color:#916770"/>
	</linearGradient>
	<polygon clip-path="url(#SVGID_12_)" fill="url(#SVGID_13_)" points="-0.232,159.816 24.911,188.896 56.003,197.388 
		71.143,205.366 66.276,169.956 33.293,156.213 10.583,147.721 -2.124,153.125 	"/>
	<polygon clip-path="url(#SVGID_12_)" fill="#AB7C79" points="13.643,156.386 46.268,175.429 49.602,189.554 24.911,188.896 
		74.565,202.02 80.677,197.903 68.659,169.424 38.768,158.272 	"/>
	<linearGradient id="SVGID_14_" gradientUnits="userSpaceOnUse" x1="-3.4757" y1="174.9082" x2="85.4715" y2="174.9082">
		<stop  offset="3.188800e-004" style="stop-color:#DACEB9"/>
		<stop  offset="0.4497" style="stop-color:#D6C8B1"/>
		<stop  offset="1" style="stop-color:#C9B79C"/>
	</linearGradient>
	<polygon clip-path="url(#SVGID_12_)" fill="url(#SVGID_14_)" points="-3.476,149.779 56.544,172.941 60.869,188.124 
		78.614,209.301 85.471,171.396 53.028,140.515 0.85,140.515 	"/>
	
		<linearGradient id="SVGID_15_" gradientUnits="userSpaceOnUse" x1="120.6349" y1="176.5432" x2="193.9005" y2="176.5432" gradientTransform="matrix(-1 0 0 1 375.1689 0)">
		<stop  offset="3.188800e-004" style="stop-color:#DDB2B4"/>
		<stop  offset="0.1986" style="stop-color:#D7ACAE"/>
		<stop  offset="0.4509" style="stop-color:#C89CA0"/>
		<stop  offset="0.7312" style="stop-color:#AF838A"/>
		<stop  offset="1" style="stop-color:#916770"/>
	</linearGradient>
	<polygon clip-path="url(#SVGID_12_)" fill="url(#SVGID_15_)" points="252.642,159.816 227.499,188.896 196.408,197.388 
		181.268,205.366 186.134,169.956 219.118,156.213 241.828,147.721 254.534,153.125 	"/>
	<polygon clip-path="url(#SVGID_12_)" fill="#AB7C79" points="239.705,156.385 207.079,175.429 203.745,189.554 228.436,188.896 
		178.781,202.021 172.671,197.903 184.688,169.423 214.579,158.271 	"/>
	
		<linearGradient id="SVGID_16_" gradientUnits="userSpaceOnUse" x1="119.2823" y1="174.9082" x2="208.2306" y2="174.9082" gradientTransform="matrix(-1 0 0 1 375.1689 0)">
		<stop  offset="3.188800e-004" style="stop-color:#DACEB9"/>
		<stop  offset="0.4497" style="stop-color:#D6C8B1"/>
		<stop  offset="1" style="stop-color:#C9B79C"/>
	</linearGradient>
	<polygon clip-path="url(#SVGID_12_)" fill="url(#SVGID_16_)" points="255.887,149.779 195.867,172.941 191.542,188.124 
		173.797,209.301 166.938,171.396 199.382,140.515 251.561,140.515 	"/>
</g>
<g>
	<defs>
		<polygon id="SVGID_17_" points="185.593,169.321 181.807,155.471 166.667,152.471 142.335,130.471 125.934,130.471 
			109.534,130.471 85.202,152.471 70.061,155.471 66.276,169.321 62.762,181.971 70.872,216.721 108.181,254.971 125.934,254.971 
			143.687,254.971 180.997,216.721 189.107,181.971 		"/>
	</defs>
	<use xlink:href="#SVGID_17_"  overflow="visible" fill="#B19C89"/>
	<clipPath id="SVGID_18_">
		<use xlink:href="#SVGID_17_"  overflow="visible"/>
	</clipPath>
	<radialGradient id="SVGID_19_" cx="125.9183" cy="166.4707" r="44.411" gradientUnits="userSpaceOnUse">
		<stop  offset="0" style="stop-color:#E8D9C7"/>
		<stop  offset="0.2924" style="stop-color:#DECFBC"/>
		<stop  offset="0.7775" style="stop-color:#C4B6A2"/>
		<stop  offset="1" style="stop-color:#B6A995"/>
	</radialGradient>
	<path clip-path="url(#SVGID_18_)" fill="url(#SVGID_19_)" d="M100.774,123.971l25.144-2.25l-1.983,41.796l-31.812,47.704
		l-8.921-28.75l-1.353-37.75L100.774,123.971z M151.061,123.97l-25.144-2.25l1.983,41.796l31.812,47.705l8.922-28.751l1.353-37.75
		L151.061,123.97z"/>
	<radialGradient id="SVGID_20_" cx="102.2816" cy="215.0957" r="30.5145" gradientUnits="userSpaceOnUse">
		<stop  offset="0" style="stop-color:#FFFFFF"/>
		<stop  offset="0.2487" style="stop-color:#F8F3ED"/>
		<stop  offset="0.7175" style="stop-color:#EDE0D1"/>
		<stop  offset="1" style="stop-color:#E8D9C7"/>
	</radialGradient>
	<path clip-path="url(#SVGID_18_)" fill="url(#SVGID_20_)" d="M86.282,145.971c0.811,0,15.682,21.75,15.682,21.75l-5.407,54
		l-16.492-12.5l-19.466-22.5v-37L86.282,145.971z"/>
	<radialGradient id="SVGID_21_" cx="149.0601" cy="211.5957" r="30.515" gradientUnits="userSpaceOnUse">
		<stop  offset="0" style="stop-color:#FFFFFF"/>
		<stop  offset="0.2487" style="stop-color:#F8F3ED"/>
		<stop  offset="0.7175" style="stop-color:#EDE0D1"/>
		<stop  offset="1" style="stop-color:#E8D9C7"/>
	</radialGradient>
	<path clip-path="url(#SVGID_18_)" fill="url(#SVGID_21_)" d="M166.308,145.971c-0.812,0-15.681,21.75-15.681,21.75l5.407,54
		l16.491-12.5l19.467-22.5v-37L166.308,145.971z"/>
	<polygon clip-path="url(#SVGID_18_)" fill="#C8AD97" points="128.548,189.47 125.934,181.22 125.934,181.221 123.321,189.471 
		96.556,221.721 96.556,248.221 125.934,266.721 125.934,266.722 155.313,248.221 155.313,221.721 	"/>
</g>
<linearGradient id="SVGID_22_" gradientUnits="userSpaceOnUse" x1="126.6039" y1="291.4219" x2="126.6039" y2="437.499">
	<stop  offset="0.0076" style="stop-color:#B3A48F"/>
	<stop  offset="0.1867" style="stop-color:#BFAF9A"/>
	<stop  offset="0.4572" style="stop-color:#CDBCA5"/>
	<stop  offset="0.7286" style="stop-color:#D5C3AB"/>
	<stop  offset="1" style="stop-color:#D7C6AD"/>
</linearGradient>
<path fill="url(#SVGID_22_)" d="M115.28,291.422l-10.945,61.162c0,0,28.004,44.985,28.004,56.739
	c0,20.379-14.418,28.176-14.418,28.176s16.229,0,24.908-23.021c6.442-17.086,6.039-68.309,6.039-68.309l-14.719-54.747H115.28z"/>
<polygon fill="#544940" points="96.015,277.508 101.241,280.211 125.647,286.429 150.626,280.211 155.853,277.508 125.934,274.334 
	"/>
<g>
	<polygon fill="#FFFFFF" points="133.934,300.754 132.612,301.129 142.014,345.181 	"/>
	<polygon fill="#FFFFFF" points="130.959,301.453 138.59,345.827 132.29,301.156 	"/>
	<polygon fill="#FFFFFF" points="129.299,301.681 135.165,346.315 130.636,301.461 	"/>
	<polygon fill="#FFFFFF" points="127.634,301.81 131.741,346.642 128.976,301.668 	"/>
	<polygon fill="#FFFFFF" points="125.968,301.842 128.319,346.814 127.312,301.779 	"/>
	<polygon fill="#FFFFFF" points="124.895,346.825 125.647,301.792 124.301,301.776 	"/>
	<polygon fill="#FFFFFF" points="121.471,346.682 123.983,301.708 122.637,301.613 	"/>
	<polygon fill="#FFFFFF" points="120.977,301.353 118.046,346.379 122.321,301.527 	"/>
	<polygon fill="#FFFFFF" points="119.325,300.996 114.62,345.918 120.665,301.248 	"/>
	<polygon fill="#FFFFFF" points="117.682,300.541 111.194,345.297 119.016,300.872 	"/>
</g>
<radialGradient id="SVGID_23_" cx="126.9344" cy="171.7424" r="47.2424" gradientTransform="matrix(1 0 0 1.0294 0 28.7754)" gradientUnits="userSpaceOnUse">
	<stop  offset="0" style="stop-color:#FFFFFF"/>
	<stop  offset="0.2487" style="stop-color:#F8F3ED"/>
	<stop  offset="0.7175" style="stop-color:#EDE0D1"/>
	<stop  offset="1" style="stop-color:#E8D9C7"/>
</radialGradient>
<path fill="url(#SVGID_23_)" d="M149.364,219.005l-23.43-18.662l-23.43,18.662c0,0-7.57,30.395-7.57,45.531l1.081,12.972
	c0,0,5.496,2.703,29.919,2.703c24.423,0,29.919-2.703,29.919-2.703l1.081-12.972C156.934,249.4,149.364,219.005,149.364,219.005z"/>
<linearGradient id="SVGID_24_" gradientUnits="userSpaceOnUse" x1="125.9334" y1="280.211" x2="125.9334" y2="313.4707">
	<stop  offset="0" style="stop-color:#D1BCA8"/>
	<stop  offset="0.0061" style="stop-color:#D1BCA9"/>
	<stop  offset="0.2698" style="stop-color:#DECCB9"/>
	<stop  offset="0.5724" style="stop-color:#E6D6C4"/>
	<stop  offset="1" style="stop-color:#E8D9C7"/>
</linearGradient>
<path fill="url(#SVGID_24_)" d="M125.934,283.17c-10.816,0-24.693-2.959-24.693-2.959l7.391,18.82l17.303,14.439l17.302-14.439
	l7.39-18.82C150.626,280.211,136.749,283.17,125.934,283.17z"/>
<g>
	<defs>
		<path id="SVGID_25_" d="M147.741,241.137c-3.244-2.746-11.896-4.975-21.807-4.975c-9.912,0-18.564,2.229-21.809,4.975
			l-1.802,18.014l5.587,10.122l14.42,4.118l3.604-3.603l3.603,3.603l14.418-4.118l5.588-10.122L147.741,241.137z"/>
	</defs>
	<use xlink:href="#SVGID_25_"  overflow="visible" fill="#D2C0A9"/>
	<clipPath id="SVGID_26_">
		<use xlink:href="#SVGID_25_"  overflow="visible"/>
	</clipPath>
	<linearGradient id="SVGID_27_" gradientUnits="userSpaceOnUse" x1="126.1097" y1="254.4049" x2="126.1097" y2="277.5083">
		<stop  offset="3.188800e-004" style="stop-color:#DDB2B4"/>
		<stop  offset="0.228" style="stop-color:#D1A4A8"/>
		<stop  offset="0.6168" style="stop-color:#B2838B"/>
		<stop  offset="0.7802" style="stop-color:#A4747F"/>
	</linearGradient>
	<path clip-path="url(#SVGID_26_)" fill="url(#SVGID_27_)" d="M146.437,254.776c-3.087,3.561-10.048,3.518-20.503,3.518
		c-10.455,0-17.469,0.216-20.321-3.518c-1.081-1.415,0.337,4.187,0.337,4.187l-0.084,14.428l20.068,4.118l0,0l0,0l0,0l0,0
		l20.067-4.118l-0.722-13.478C145.28,259.912,148.223,252.715,146.437,254.776z"/>
	<path clip-path="url(#SVGID_26_)" fill="#544940" d="M101.241,258.979l3.787-1.716c0,0,4.322,10.637,20.906,14.24l-2.883,3.946
		l-16.222-3.431L101.241,258.979z"/>
	<path clip-path="url(#SVGID_26_)" fill="#544940" d="M150.626,258.979l-3.785-1.716c0,0-4.324,10.637-20.906,14.24l2.882,3.946
		l16.222-3.431L150.626,258.979z"/>
</g>
<polygon fill="#B19C8A" points="64.79,180.249 66.002,188.593 76.922,196.471 87.489,196.471 90.66,186.23 76.218,180.454 "/>
<path fill="#382613" d="M89.907,187.678c-1.44,3.564-8.076,4.519-14.821,2.134c-6.745-2.387-11.046-7.21-9.606-10.775
	c1.441-3.565,8.076-4.52,14.823-2.135C87.048,179.289,91.347,184.113,89.907,187.678z"/>
<polygon fill="#B19C8A" points="186.944,180.249 185.731,188.593 174.811,196.471 164.245,196.471 161.073,186.23 175.516,180.454 
	"/>
<path fill="#382613" d="M161.827,187.678c1.439,3.564,8.075,4.519,14.821,2.134c6.745-2.387,11.046-7.21,9.606-10.775
	c-1.441-3.565-8.076-4.52-14.823-2.135C164.686,179.289,160.386,184.113,161.827,187.678z"/>
<polyline fill="none" stroke="#B19C89" stroke-width="1.4397" stroke-miterlimit="10" stroke-dasharray="4.3191,3.5993" points="
	66.002,188.593 82.935,203.971 94.934,210.004 98.268,169.471 85.202,152.471 "/>
<polyline fill="none" stroke="#B19C89" stroke-width="1.4397" stroke-miterlimit="10" stroke-dasharray="4.3192,3.5993" points="
	186.405,188.593 169.471,203.971 157.472,210.005 154.138,169.471 167.206,152.47 "/>
<path fill="none" stroke="#B19C89" stroke-width="1.4397" stroke-miterlimit="10" stroke-dasharray="4.3192,3.5993" d="
	M149.909,195.923c-0.987-1.48-3.945-29.619-3.945-29.619l8-16l-27.666-16.667h-0.363l-27.666,16.667l8,16
	c0,0-2.957,28.139-3.944,29.619"/>
<g>
	<g>
		<polygon fill="#9C3833" points="137.362,159.832 125.934,165.689 114.507,159.832 125.934,153.974 		"/>
	</g>
	
		<rect x="123.732" y="157.453" transform="matrix(0.707 0.7072 -0.7072 0.707 149.9556 -42.3442)" fill="#FFFFFF" width="4.698" height="4.697"/>
	
		<rect x="108.836" y="157.453" transform="matrix(0.7071 0.7071 -0.7071 0.7071 145.5629 -31.815)" fill="#9C0F2E" width="4.698" height="4.698"/>
	
		<rect x="138.335" y="157.453" transform="matrix(0.7071 0.7071 -0.7071 0.7071 154.2056 -52.6738)" fill="#9C0F2E" width="4.698" height="4.698"/>
	
		<rect x="123.68" y="169.847" transform="matrix(0.7071 0.7071 -0.7071 0.7071 158.6739 -38.6811)" fill="#9C0F2E" width="4.698" height="4.698"/>
	
		<rect x="123.68" y="144.839" transform="matrix(0.7072 0.7071 -0.7071 0.7072 140.9765 -46.0067)" fill="#9C0F2E" width="4.698" height="4.698"/>
	
		<line fill="none" stroke="#9C0F2E" stroke-width="1.1614" stroke-miterlimit="10" stroke-dasharray="3.4842,2.9035" x1="114.507" y1="155.999" x2="123.481" y2="151.563"/>
	
		<line fill="none" stroke="#9C0F2E" stroke-width="1.1614" stroke-miterlimit="10" stroke-dasharray="3.4842,2.9035" x1="113.785" y1="163.471" x2="122.76" y2="167.908"/>
	
		<line fill="none" stroke="#9C0F2E" stroke-width="1.1614" stroke-miterlimit="10" stroke-dasharray="3.4842,2.9035" x1="137.447" y1="155.999" x2="128.472" y2="151.563"/>
	
		<line fill="none" stroke="#9C0F2E" stroke-width="1.1614" stroke-miterlimit="10" stroke-dasharray="3.4842,2.9035" x1="138.169" y1="163.471" x2="129.194" y2="167.908"/>
</g>
<circle fill="#FFFFFF" cx="74.453" cy="182.016" r="6.338"/>
<circle fill="#FFFFFF" cx="175.04" cy="182.016" r="6.338"/>
</svg>
