<?xml version="1.0" encoding="utf-8"?>
<!-- Generator: Adobe Illustrator 17.0.0, SVG Export Plug-In . SVG Version: 6.00 Build 0)  -->
<!DOCTYPE svg PUBLIC "-//W3C//DTD SVG 1.1//EN" "http://www.w3.org/Graphics/SVG/1.1/DTD/svg11.dtd">
<svg version="1.1" id="Layer_1" xmlns="http://www.w3.org/2000/svg" xmlns:xlink="http://www.w3.org/1999/xlink" x="0px" y="0px"
	 width="142.999px" height="259px" viewBox="0 0 142.999 259" enable-background="new 0 0 142.999 259" xml:space="preserve">
<g>
	<defs>
		<path id="SVGID_1_" d="M113.249,141.75c0,0,17.031-37.995,18.75-42.25c5.25-13,7.25-15.5,7.25-28.5c0-22.5-41.5-71-41.5-71
			s-0.25,85-0.25,99c0,26.25,1.713,44.635-11.749,39.25c-6.25-2.5-20.583-2.5-28.5,0c-13.827,4.366-11.75-13-11.75-39.25
			c0-14-0.25-99-0.25-99S3.75,48.5,3.75,71c0,13,2,15.5,7.25,28.5c1.719,4.255,18.75,42.25,18.75,42.25L0,227.75
			c0,0,8.75,15.25,23.25,18.5s18,6,18,6S47.5,259,55.5,259s16-5.25,16-5.25v-0.001c0,0,8,5.25,16,5.25
			c7.999,0,14.249-6.75,14.249-6.75s3.5-2.75,18-6s23.25-18.5,23.25-18.5L113.249,141.75z"/>
	</defs>
	<linearGradient id="SVGID_2_" gradientUnits="userSpaceOnUse" x1="-4.024041e-007" y1="129.4998" x2="142.9995" y2="129.4998">
		<stop  offset="0" style="stop-color:#C0C0C0"/>
		<stop  offset="0.1277" style="stop-color:#DCDCDC"/>
		<stop  offset="0.2498" style="stop-color:#F0F0F0"/>
		<stop  offset="0.3628" style="stop-color:#FBFBFB"/>
		<stop  offset="0.458" style="stop-color:#FFFFFF"/>
		<stop  offset="0.6093" style="stop-color:#FDFDFD"/>
		<stop  offset="0.7242" style="stop-color:#F5F5F5"/>
		<stop  offset="0.8271" style="stop-color:#E8E8E8"/>
		<stop  offset="0.9223" style="stop-color:#D5D5D5"/>
		<stop  offset="1" style="stop-color:#C0C0C0"/>
	</linearGradient>
	<use xlink:href="#SVGID_1_"  overflow="visible" fill="url(#SVGID_2_)"/>
	<clipPath id="SVGID_3_">
		<use xlink:href="#SVGID_1_"  overflow="visible"/>
	</clipPath>
	<linearGradient id="SVGID_4_" gradientUnits="userSpaceOnUse" x1="19.0557" y1="-5.5826" x2="19.0557" y2="149.7505">
		<stop  offset="3.188800e-004" style="stop-color:#DDB2B4"/>
		<stop  offset="0.3392" style="stop-color:#D9AEB0"/>
		<stop  offset="0.583" style="stop-color:#CFA2A6"/>
		<stop  offset="0.7963" style="stop-color:#BD8E95"/>
		<stop  offset="0.9922" style="stop-color:#A57580"/>
		<stop  offset="1" style="stop-color:#A4747F"/>
	</linearGradient>
	<path clip-path="url(#SVGID_3_)" fill="url(#SVGID_4_)" d="M48.833-5.583c1,0,0,134.306,0,134.306l-31.667,21.027l-28.333-77.667
		l23-47.481L48.833-5.583z"/>
	<linearGradient id="SVGID_5_" gradientUnits="userSpaceOnUse" x1="123.4217" y1="-3.2495" x2="123.4217" y2="142.417">
		<stop  offset="3.188800e-004" style="stop-color:#DDB2B4"/>
		<stop  offset="0.3392" style="stop-color:#D9AEB0"/>
		<stop  offset="0.583" style="stop-color:#CFA2A6"/>
		<stop  offset="0.7963" style="stop-color:#BD8E95"/>
		<stop  offset="0.9922" style="stop-color:#A57580"/>
		<stop  offset="1" style="stop-color:#A4747F"/>
	</linearGradient>
	<path clip-path="url(#SVGID_3_)" fill="url(#SVGID_5_)" d="M98.125,132C98.125,132,95.5-3.25,96.5-3.25l38.626,32.916
		c0,0,14.041,41.417,15.374,42.084c1.333,0.667-16.667,55.667-16.667,55.667l-15,14.667l-13,0.333L98.125,132z"/>
	<linearGradient id="SVGID_6_" gradientUnits="userSpaceOnUse" x1="73.3652" y1="288.0747" x2="73.3652" y2="219.2309">
		<stop  offset="0.0169" style="stop-color:#D4DBE1"/>
		<stop  offset="0.2289" style="stop-color:#D1D7DD"/>
		<stop  offset="0.4321" style="stop-color:#C6CDD4"/>
		<stop  offset="0.6316" style="stop-color:#B5BCC3"/>
		<stop  offset="0.8278" style="stop-color:#9CA5AC"/>
		<stop  offset="1" style="stop-color:#818991"/>
	</linearGradient>
	<path clip-path="url(#SVGID_3_)" fill="url(#SVGID_6_)" d="M162.449,219.231c-11.134,0-11.134,7.488-22.268,7.488
		c-11.135,0-11.135-7.488-22.27-7.488c-11.136,0-11.136,7.488-22.272,7.488c-11.136,0-11.136-7.488-22.273-7.488
		s-11.137,7.488-22.273,7.488c-11.136,0-11.136-7.488-22.272-7.488c-11.135,0-11.135,7.488-22.27,7.488
		c-11.134,0-11.134-7.488-22.269-7.488l-15.159,36.138l35.717,32.706l68.526-12.044l68.526,12.044l35.717-32.706L162.449,219.231z"
		/>
	<linearGradient id="SVGID_7_" gradientUnits="userSpaceOnUse" x1="73.6203" y1="293.1382" x2="73.6203" y2="224.2939">
		<stop  offset="0.0169" style="stop-color:#D4DBE1"/>
		<stop  offset="0.2289" style="stop-color:#D1D7DD"/>
		<stop  offset="0.4321" style="stop-color:#C6CDD4"/>
		<stop  offset="0.6316" style="stop-color:#B5BCC3"/>
		<stop  offset="0.8278" style="stop-color:#9CA5AC"/>
		<stop  offset="1" style="stop-color:#818991"/>
	</linearGradient>
	<path clip-path="url(#SVGID_3_)" fill="url(#SVGID_7_)" d="M162.704,224.294c-11.134,0-11.134,7.488-22.269,7.488
		c-11.135,0-11.135-7.488-22.27-7.488c-11.136,0-11.136,7.488-22.272,7.488c-11.136,0-11.136-7.488-22.273-7.488
		s-11.137,7.488-22.273,7.488c-11.136,0-11.136-7.488-22.272-7.488c-11.135,0-11.135,7.488-22.27,7.488
		c-11.134,0-11.134-7.488-22.269-7.488l-15.159,36.138l35.717,32.706l68.526-12.044l68.526,12.044l35.716-32.706L162.704,224.294z"
		/>
	<linearGradient id="SVGID_8_" gradientUnits="userSpaceOnUse" x1="73.6203" y1="299.5278" x2="73.6203" y2="230.684">
		<stop  offset="0.0169" style="stop-color:#D4DBE1"/>
		<stop  offset="0.3885" style="stop-color:#D2D9DF"/>
		<stop  offset="0.5649" style="stop-color:#CBD2D9"/>
		<stop  offset="0.7001" style="stop-color:#C0C7CD"/>
		<stop  offset="0.8143" style="stop-color:#AFB7BD"/>
		<stop  offset="0.9142" style="stop-color:#99A2A9"/>
		<stop  offset="1" style="stop-color:#818991"/>
	</linearGradient>
	<path clip-path="url(#SVGID_3_)" fill="url(#SVGID_8_)" d="M162.704,230.684c-11.134,0-11.134,7.488-22.269,7.488
		c-11.135,0-11.135-7.488-22.27-7.488c-11.136,0-11.136,7.488-22.272,7.488c-11.136,0-11.136-7.488-22.273-7.488
		s-11.137,7.488-22.273,7.488c-11.136,0-11.136-7.488-22.272-7.488c-11.135,0-11.135,7.488-22.27,7.488
		c-11.134,0-11.134-7.488-22.269-7.488l-15.159,36.139l35.717,32.705l68.526-12.044l68.526,12.044l35.716-32.705L162.704,230.684z"
		/>
	<linearGradient id="SVGID_9_" gradientUnits="userSpaceOnUse" x1="71.4997" y1="-6.9165" x2="71.4997" y2="253.7495">
		<stop  offset="0.0116" style="stop-color:#E1E5EA"/>
		<stop  offset="0.3511" style="stop-color:#E0E4E8"/>
		<stop  offset="0.5247" style="stop-color:#D9DDE1"/>
		<stop  offset="0.6607" style="stop-color:#CFD3D7"/>
		<stop  offset="0.7772" style="stop-color:#C0C4C6"/>
		<stop  offset="0.8811" style="stop-color:#ACAFB2"/>
		<stop  offset="0.9748" style="stop-color:#949598"/>
		<stop  offset="0.9898" style="stop-color:#8F9093"/>
	</linearGradient>
	<polygon clip-path="url(#SVGID_3_)" fill="url(#SVGID_9_)" points="46.833,-4.917 29.75,141.75 71.5,253.749 113.249,141.75 
		95.833,-6.917 	"/>
	<g clip-path="url(#SVGID_3_)">
		<path fill="#EBEBEB" d="M66.849,227.593c0.292,0.016,0.588,0.03,0.889,0.044v-17.842c-0.308,0.133-0.605,0.279-0.889,0.444
			V227.593z"/>
		<path fill="#EBEBEB" d="M71.015,209.087c-0.304,0.01-0.602,0.031-0.889,0.067v18.563c0.296,0.007,0.592,0.012,0.889,0.015V209.087
			z"/>
		<path fill="#EBEBEB" d="M72.654,209.158c-0.288-0.038-0.584-0.063-0.889-0.074v18.654c0.297,0,0.594,0,0.889-0.003V209.158z"/>
		<path fill="#EBEBEB" d="M78.321,227.32c0.308-0.05,0.605-0.106,0.889-0.168v-13.524c-0.274-0.425-0.571-0.83-0.889-1.214V227.32z"
			/>
		<path fill="#EBEBEB" d="M69.376,209.27c-0.307,0.064-0.602,0.144-0.889,0.237v18.163c0.294,0.012,0.59,0.021,0.889,0.03V209.27z"
			/>
		<path fill="#EBEBEB" d="M80.849,216.925c-0.26-0.683-0.554-1.355-0.889-2.002v12.042c0.321-0.091,0.617-0.192,0.889-0.303V216.925
			z"/>
		<path fill="#EBEBEB" d="M76.682,227.535c0.304-0.03,0.6-0.064,0.889-0.102v-15.84c-0.281-0.276-0.577-0.534-0.889-0.773V227.535z"
			/>
		<path fill="#EBEBEB" d="M65.209,227.495c0.289,0.02,0.585,0.038,0.889,0.056v-16.822c-0.315,0.23-0.607,0.487-0.889,0.754V227.495
			z"/>
		<path fill="#EBEBEB" d="M61.932,227.234c0.272,0.025,0.567,0.051,0.889,0.079v-12.581c-0.339,0.652-0.631,1.331-0.889,2.02
			V227.234z"/>
		<path fill="#EBEBEB" d="M61.182,219.145c-1.06,4.109-1.015,7.912-1.015,7.912s0.372,0.043,1.015,0.106V219.145z"/>
		<path fill="#EBEBEB" d="M81.599,219.227v7.054c0.699-0.438,1.083-0.993,1.005-1.7C82.441,223.108,82.142,221.199,81.599,219.227z"
			/>
		<path fill="#EBEBEB" d="M64.459,212.275c-0.319,0.374-0.616,0.77-0.889,1.185v13.915c0.284,0.022,0.58,0.045,0.889,0.067V212.275z
			"/>
		<path fill="#EBEBEB" d="M75.932,210.309c-0.285-0.173-0.58-0.332-0.889-0.472v17.82c0.3-0.017,0.597-0.035,0.889-0.058V210.309z"
			/>
		<path fill="#EBEBEB" d="M74.293,209.534c-0.286-0.098-0.584-0.176-0.889-0.244v18.43c0.299-0.007,0.595-0.017,0.889-0.028V209.534
			z"/>
	</g>
	<linearGradient id="SVGID_10_" gradientUnits="userSpaceOnUse" x1="57.4512" y1="268.7038" x2="57.4512" y2="224.0005">
		<stop  offset="0.0169" style="stop-color:#FFFFFF"/>
		<stop  offset="0.2184" style="stop-color:#FCFCFC"/>
		<stop  offset="0.4115" style="stop-color:#F3F3F3"/>
		<stop  offset="0.6012" style="stop-color:#E3E3E3"/>
		<stop  offset="0.7888" style="stop-color:#CDCDCD"/>
		<stop  offset="0.9734" style="stop-color:#AFAFAF"/>
		<stop  offset="1" style="stop-color:#AAAAAA"/>
	</linearGradient>
	<path clip-path="url(#SVGID_3_)" fill="url(#SVGID_10_)" d="M65.917,224.001c-1.927,1.984-4.305-1.056-6.23,0.771
		c-8.257,7.841-15.836,14.77-17.187,25.313c-1.667,13,18.667,18.499,19.667,18.583c1,0.084,10.332,0,10.332,0l-2.416-44.25
		L65.917,224.001z"/>
	
		<linearGradient id="SVGID_11_" gradientUnits="userSpaceOnUse" x1="-253.8828" y1="268.7038" x2="-253.8828" y2="223.622" gradientTransform="matrix(-1 0 0 1 -168.1953 0)">
		<stop  offset="0.0169" style="stop-color:#FFFFFF"/>
		<stop  offset="0.2184" style="stop-color:#FCFCFC"/>
		<stop  offset="0.4115" style="stop-color:#F3F3F3"/>
		<stop  offset="0.6012" style="stop-color:#E3E3E3"/>
		<stop  offset="0.7888" style="stop-color:#CDCDCD"/>
		<stop  offset="0.9734" style="stop-color:#AFAFAF"/>
		<stop  offset="1" style="stop-color:#AAAAAA"/>
	</linearGradient>
	<path clip-path="url(#SVGID_3_)" fill="url(#SVGID_11_)" d="M76.833,224.667c1.712,1.762,5.971-0.511,5.971-0.511
		s16.448,15.109,17.834,25.928c1.667,13-18.667,18.499-19.667,18.583c-1,0.084-10.332,0-10.332,0l2.119-45.045L76.833,224.667z"/>
	<path clip-path="url(#SVGID_3_)" fill="#8F9093" d="M42.107,252.996c4.137,3.306,8.56,4.654,14.217,4.308
		c5.656-0.347,14.83-4.088,14.83-4.088l0.308,3.162c0,0-9.879,7.724-20.438,7.075c-10.56-0.649-8.806-6.256-8.806-6.256
		L42.107,252.996z"/>
	<path clip-path="url(#SVGID_3_)" fill="#8F9093" d="M100.859,253.225c-4.116,3.231-8.531,4.556-14.19,4.237
		c-5.658-0.32-14.855-3.935-14.855-3.935l-0.288,3.079c0,0,9.927,7.488,20.482,6.824c10.555-0.664,8.768-6.116,8.768-6.116
		L100.859,253.225z"/>
</g>
<linearGradient id="SVGID_12_" gradientUnits="userSpaceOnUse" x1="71.3852" y1="222.7687" x2="71.3852" y2="253.75">
	<stop  offset="3.188800e-004" style="stop-color:#DDB2B4"/>
	<stop  offset="0.3392" style="stop-color:#D9AEB0"/>
	<stop  offset="0.583" style="stop-color:#CFA2A6"/>
	<stop  offset="0.7963" style="stop-color:#BD8E95"/>
	<stop  offset="0.9922" style="stop-color:#A57580"/>
	<stop  offset="1" style="stop-color:#A4747F"/>
</linearGradient>
<path fill="url(#SVGID_12_)" d="M60.167,224.084c0,0,9.402-2.877,22.437-0.121L71.5,253.75L60.167,224.084z"/>
<linearGradient id="SVGID_13_" gradientUnits="userSpaceOnUse" x1="47.2712" y1="222.8878" x2="30.0643" y2="201.1174">
	<stop  offset="0.0244" style="stop-color:#929599"/>
	<stop  offset="0.0715" style="stop-color:#8E9196"/>
	<stop  offset="0.687" style="stop-color:#62686D"/>
	<stop  offset="1" style="stop-color:#52575B"/>
</linearGradient>
<polygon fill="url(#SVGID_13_)" points="21.583,199.167 40.833,199.167 49.333,215.768 29.333,215.768 "/>
<circle fill="#FFFFFF" cx="35.921" cy="207.681" r="6.338"/>
<linearGradient id="SVGID_14_" gradientUnits="userSpaceOnUse" x1="-205.1458" y1="222.8878" x2="-222.3527" y2="201.1174" gradientTransform="matrix(-1 0 0 1 -110.5 0)">
	<stop  offset="0.0244" style="stop-color:#929599"/>
	<stop  offset="0.0715" style="stop-color:#8E9196"/>
	<stop  offset="0.687" style="stop-color:#62686D"/>
	<stop  offset="1" style="stop-color:#52575B"/>
</linearGradient>
<polygon fill="url(#SVGID_14_)" points="120.333,199.167 101.083,199.167 92.583,215.768 112.583,215.768 "/>
<circle fill="#FFFFFF" cx="105.996" cy="207.681" r="6.338"/>
<path fill="#9C0F2E" d="M72.021,154.797l-6.438,14.875l6.438,14.375l6.438-14.375L72.021,154.797z M72.021,171.999
	c-1.423,0-2.576-1.153-2.576-2.576c0-1.423,1.153-2.576,2.576-2.576c1.423,0,2.576,1.153,2.576,2.576
	C74.597,170.845,73.444,171.999,72.021,171.999z"/>
<rect x="70.12" y="186.109" transform="matrix(0.7072 -0.707 0.707 0.7072 -111.8409 105.976)" fill="#9C0F2E" width="3.801" height="3.801"/>
<rect x="70.12" y="148.375" transform="matrix(0.7072 -0.707 0.707 0.7072 -85.1615 94.9265)" fill="#9C0F2E" width="3.801" height="3.801"/>
<g>
	<g>
		
			<line fill="none" stroke="#9C0F2E" stroke-width="1.487" stroke-miterlimit="10" x1="67.333" y1="154.797" x2="66.591" y2="156.313"/>
		
			<line fill="none" stroke="#9C0F2E" stroke-width="1.487" stroke-miterlimit="10" stroke-dasharray="3.0381,2.2785" x1="65.588" y1="158.359" x2="61.411" y2="166.884"/>
		<polyline fill="none" stroke="#9C0F2E" stroke-width="1.487" stroke-miterlimit="10" points="60.91,167.907 60.167,169.422 
			60.88,170.952 		"/>
		
			<line fill="none" stroke="#9C0F2E" stroke-width="1.487" stroke-miterlimit="10" stroke-dasharray="2.8245,2.1184" x1="61.775" y1="172.872" x2="65.506" y2="180.871"/>
		
			<line fill="none" stroke="#9C0F2E" stroke-width="1.487" stroke-miterlimit="10" x1="65.954" y1="181.831" x2="66.667" y2="183.36"/>
	</g>
</g>
<g>
	<g>
		
			<line fill="none" stroke="#9C0F2E" stroke-width="1.487" stroke-miterlimit="10" x1="77.333" y1="154.667" x2="78.076" y2="156.182"/>
		
			<line fill="none" stroke="#9C0F2E" stroke-width="1.487" stroke-miterlimit="10" stroke-dasharray="3.0381,2.2785" x1="79.079" y1="158.229" x2="83.256" y2="166.754"/>
		<polyline fill="none" stroke="#9C0F2E" stroke-width="1.487" stroke-miterlimit="10" points="83.757,167.777 84.5,169.292 
			83.787,170.821 		"/>
		
			<line fill="none" stroke="#9C0F2E" stroke-width="1.487" stroke-miterlimit="10" stroke-dasharray="2.8245,2.1184" x1="82.892" y1="172.741" x2="79.161" y2="180.74"/>
		<line fill="none" stroke="#9C0F2E" stroke-width="1.487" stroke-miterlimit="10" x1="78.713" y1="181.7" x2="78" y2="183.229"/>
	</g>
</g>
</svg>
